<svg height="511pt" viewBox="-20 0 511 511.9996" width="511pt" xmlns="http://www.w3.org/2000/svg"><path d="m471.09375 506.574219c.09375 2.972656-2.296875 5.425781-5.265625 5.425781h-460.058594c-2.972656 0-5.363281-2.453125-5.265625-5.425781 1.421875-43.332031 19.820313-87.960938 52.167969-118.503907 33.707031-31.820312 99.609375-49.335937 147.28125-49.335937h71.6875c47.671875 0 113.578125 17.515625 147.28125 49.335937 32.347656 30.542969 50.75 75.171876 52.171875 118.503907zm0 0" fill="#2e5aac"/><path d="m471.09375 506.574219c.09375 2.972656-2.296875 5.425781-5.265625 5.425781h-427.753906c-2.972657 0-5.371094-2.453125-5.265625-5.425781 1.421875-43.332031 19.820312-87.960938 52.167968-118.503907 33.707032-31.820312 99.609376-49.335937 147.273438-49.335937h39.390625c47.671875 0 113.578125 17.515625 147.28125 49.335937 32.347656 30.542969 50.75 75.171876 52.171875 118.503907zm0 0" fill="#4172cc"/><path d="m338.0625 359.480469c-5.257812 5.5-35.792969 33.917969-102.359375 29.988281-73.65625 4.351562-102.074219-29.671875-102.074219-29.671875l-.023437-.359375c-9.710938 5.910156-18.664063 12.96875-26.65625 20.960938-25.722657 25.722656-41.628907 61.25-41.628907 100.496093 0 17.179688 13.925782 31.105469 31.105469 31.105469h278.742188c8.585937 0 16.371093-3.476562 21.996093-9.113281 5.632813-5.625 9.109376-13.40625 9.109376-21.992188 0-51.390625-27.289063-96.460937-68.210938-121.414062zm0 0" fill="#d63030"/><path d="m338.0625 359.480469c-5.257812 5.5-35.792969 33.917969-102.359375 29.988281-44.207031 2.613281-72.117187-8.605469-87.371094-17.988281-3.402343 2.820312-6.667969 5.800781-9.785156 8.917969-25.722656 25.722656-41.625 61.25-41.625 100.496093 0 17.179688 13.921875 31.105469 31.101563 31.105469h247.144531c8.585937 0 16.371093-3.476562 21.996093-9.113281 5.632813-5.625 9.109376-13.40625 9.109376-21.992188 0-51.421875-27.3125-96.460937-68.210938-121.414062zm0 0" fill="#f44545"/><path d="m134.15625 450.910156v61.089844h-15.800781v-61.089844c0-4.363281 3.539062-7.902344 7.898437-7.902344 4.363282 0 7.902344 3.539063 7.902344 7.902344zm0 0" fill="#c42d2d"/><path d="m353.238281 450.910156v61.089844h-15.796875v-61.089844c0-4.363281 3.539063-7.902344 7.898438-7.902344s7.898437 3.539063 7.898437 7.902344zm0 0" fill="#c42d2d"/><path d="m281.214844 455.648438-20.433594 35.378906c-.9375 1.632812-2.675781 2.632812-4.558594 2.632812h-40.847656c-1.886719 0-3.625-1-4.5625-2.632812l-20.433594-35.378906c-.9375-1.632813-.9375-3.632813 0-5.265626l20.433594-35.382812c.9375-1.632812 2.675781-2.632812 4.5625-2.632812h40.847656c1.882813 0 3.621094 1 4.558594 2.632812l20.433594 35.382812c.9375 1.632813.9375 3.632813 0 5.265626zm0 0" fill="#2e5aac"/><path d="m281.214844 455.648438-20.433594 35.378906c-.9375 1.632812-2.675781 2.632812-4.558594 2.632812h-13.988281c-1.886719 0-3.625-1-4.5625-2.632812l-20.433594-35.378906c-.9375-1.632813-.9375-3.632813 0-5.265626l20.433594-35.382812c.9375-1.632812 2.675781-2.632812 4.5625-2.632812h13.988281c1.882813 0 3.621094 1 4.558594 2.632812l20.433594 35.382812c.9375 1.632813.9375 3.632813 0 5.265626zm0 0" fill="#4172cc"/><path d="m338.074219 359.472656c-5.226563 5.476563-35.761719 33.925782-102.371094 29.996094-73.65625 4.351562-102.074219-29.671875-102.074219-29.671875l-.023437-.359375c21.519531-13.113281 46.800781-20.664062 73.835937-20.664062h56.710938c26.953125 0 52.160156 7.5 73.636718 20.527343.09375.054688.1875.117188.285157.171875zm0 0" fill="#2e5aac"/><path d="m207.441406 338.773438c-27.035156 0-52.316406 7.554687-73.835937 20.667968l.023437.355469s4.539063 5.4375 14.703125 11.683594c24.617188-20.425781 56.226563-32.707031 90.710938-32.707031zm0 0" fill="#274c91"/><path d="m235.796875 389.464844c-19.582031 0-35.460937-15.875-35.460937-35.460938v-79.699218h70.921874v79.699218c0 19.585938-15.875 35.460938-35.460937 35.460938zm0 0" fill="#f2bb88"/><path d="m175.535156 227.015625c0 22.132813-17.945312 40.078125-40.082031 40.078125-22.132813 0-40.078125-17.945312-40.078125-40.078125 0-22.136719 17.945312-40.078125 40.078125-40.078125 22.136719 0 40.082031 17.941406 40.082031 40.078125zm0 0" fill="#f2bb88"/><path d="m376.21875 227.019531c0 22.136719-17.941406 40.082031-40.078125 40.082031-22.132813 0-40.078125-17.945312-40.078125-40.082031 0-22.132812 17.945312-40.078125 40.078125-40.078125 22.136719 0 40.078125 17.945313 40.078125 40.078125zm0 0" fill="#f2d1a5"/><path d="m340 136.324219v98.183593c0 28.765626-19.992188 54.824219-43.28125 73.679688-14.851562 12.027344-31.050781 21.140625-44.246094 26.140625-7.488281 2.855469-14.019531 4.382813-18.78125 4.382813-26.332031-.011719-106.308594-46.660157-106.308594-104.203126v-98.183593c0-19 15.398438-34.402344 34.398438-34.402344h143.820312c19 0 34.398438 15.402344 34.398438 34.402344zm0 0" fill="#f2bb88"/><path d="m340 136.324219v98.183593c0 28.765626-19.992188 54.824219-43.28125 73.679688-14.851562 12.027344-31.050781 21.140625-44.246094 26.140625-33.886718-12.871094-87.519531-52.695313-87.519531-99.820313v-98.183593c0-19 15.398437-34.402344 34.402344-34.402344h106.246093c19 0 34.398438 15.402344 34.398438 34.402344zm0 0" fill="#f2d1a5"/><g fill="#ff7c48"><path d="m257 236.078125c-4.363281 0-7.898438 3.539063-7.898438 7.902344 0 7.335937-5.96875 13.300781-13.304687 13.300781-7.332031 0-13.300781-5.964844-13.300781-13.300781 0-4.363281-3.539063-7.902344-7.898438-7.902344-4.363281 0-7.902344 3.539063-7.902344 7.902344 0 16.046875 13.058594 29.101562 29.101563 29.101562 16.046875 0 29.101563-13.054687 29.101563-29.101562 0-4.363281-3.535157-7.902344-7.898438-7.902344zm0 0"/><path d="m296.613281 198.117188c0 6.957031-5.640625 12.597656-12.597656 12.597656s-12.59375-5.640625-12.59375-12.597656c0-6.957032 5.636719-12.59375 12.59375-12.59375s12.597656 5.636718 12.597656 12.59375zm0 0"/><path d="m200.171875 198.117188c0 6.957031-5.636719 12.597656-12.59375 12.597656s-12.59375-5.640625-12.59375-12.597656c0-6.957032 5.636719-12.59375 12.59375-12.59375s12.59375 5.636718 12.59375 12.59375zm0 0"/></g><path d="m112.714844 184.152344h25.625c21.785156 0 39.609375-17.824219 39.609375-39.609375v-12.722657c0-19.335937-15.820313-35.152343-35.152344-35.152343h-1.453125c-19.414062 0-35.152344 15.738281-35.152344 35.152343v45.808594c0 3.601563 2.921875 6.523438 6.523438 6.523438zm0 0" fill="#f76937"/><path d="m358.878906 184.152344h-25.621094c-21.785156 0-39.609374-17.824219-39.609374-39.609375v-12.722657c0-19.335937 15.816406-35.152343 35.152343-35.152343h1.449219c19.414062 0 35.152344 15.738281 35.152344 35.152343v45.808594c0 3.601563-2.917969 6.523438-6.523438 6.523438zm0 0" fill="#f76937"/><path d="m338.476562 5.945312v58.519532c0 5.457031-.863281 10.710937-2.464843 15.640625-6.582031 20.339843-25.679688 35.042969-48.21875 35.042969h-110.070313c-24.6875 0-44.710937-20.011719-44.710937-44.710938 0-12.34375 5-23.53125 13.101562-31.621094 6.097657-6.097656 13.957031-10.449218 22.75-12.21875 2.867188-.566406 5.824219-.871094 8.859375-.871094 0 0 110.660156 7.066407 151.222656-24.480468 3.886719-3.011719 9.53125-.222656 9.53125 4.699218zm0 0" fill="#f76937"/><path d="m338.476562 5.945312v58.519532c0 5.457031-.863281 10.710937-2.464843 15.640625-4.339844 1.210937-8.921875 1.867187-13.652344 1.867187h-110.066406c-24.691407 0-44.714844-20.015625-44.714844-44.714844 0-3.675781.445313-7.246093 1.285156-10.660156 2.867188-.566406 5.824219-.871094 8.859375-.871094 0 0 110.660156 7.066407 151.222656-24.480468 3.886719-3.011719 9.53125-.222656 9.53125 4.699218zm0 0" fill="#ff7c48"/></svg>