<svg height="512pt" viewBox="-88 0 511 512" width="512pt" xmlns="http://www.w3.org/2000/svg"><path d="m293.640625 240.957031-5.3125-120.308593h-236.472656l-9.46875 119.792968s-4.703125 121.574219-26.484375 195.457032h304.988281c-21.78125-73.6875-27.25-194.941407-27.25-194.941407zm0 0" fill="#e25ca5"/><path d="m109.023438 209.863281c0 21.792969-17.671876 39.464844-39.464844 39.464844-21.796875 0-39.464844-17.671875-39.464844-39.464844 0-21.796875 17.667969-39.464843 39.464844-39.464843 21.792968 0 39.464844 17.667968 39.464844 39.464843zm0 0" fill="#f2bb88"/><path d="m306.632812 209.867188c0 21.796874-17.667968 39.464843-39.464843 39.464843s-39.464844-17.667969-39.464844-39.464843c0-21.792969 17.667969-39.464844 39.464844-39.464844s39.464843 17.671875 39.464843 39.464844zm0 0" fill="#f2bb88"/><path d="m68.277344 451.84375v60.15625h-15.558594v-60.15625c0-4.292969 3.488281-7.777344 7.78125-7.777344s7.777344 3.484375 7.777344 7.777344zm0 0" fill="#af2727"/><path d="m284.003906 451.84375v60.15625h-15.554687v-60.15625c0-4.292969 3.484375-7.777344 7.777343-7.777344 4.292969 0 7.777344 3.484375 7.777344 7.777344zm0 0" fill="#af2727"/><path d="m168.363281 422.460938c-19.285156 0-34.917969-15.632813-34.917969-34.917969v-109.59375h69.835938v109.59375c0 19.285156-15.632812 34.917969-34.917969 34.917969zm0 0" fill="#f2bb88"/><path d="m270.96875 55.25v183.511719c0 51.371093-37.761719 93.9375-87.046875 101.433593-5.074219.769532-10.269531 1.171876-15.558594 1.171876-56.671875 0-102.605469-45.945313-102.605469-102.605469v-183.511719c0-18.710938 15.164063-33.875 33.875-33.875h137.460938c18.710938 0 33.875 15.164062 33.875 33.875zm0 0" fill="#f2bb88"/><path d="m270.96875 55.25v183.511719c0 51.371093-37.761719 93.9375-87.046875 101.433593-49.289063-7.496093-87.050781-50.0625-87.050781-101.433593v-183.511719c0-18.710938 15.164062-33.875 33.875-33.875h106.347656c18.710938 0 33.875 15.164062 33.875 33.875zm0 0" fill="#f2d1a5"/><path d="m336.226562 487.046875c0 6.886719-3.421874 13.128906-8.972656 17.640625-5.539062 4.523438-13.203125 7.3125-21.65625 7.3125h-274.46875c-16.917968 0-30.628906-11.171875-30.628906-24.953125 0-31.488281 15.660156-59.988281 40.988281-80.628906 15.671875-12.765625 35.046875-22.515625 56.691407-28.097657 13.335937-3.441406 27.535156-5.296874 42.261718-5.296874h55.839844c14.730469 0 28.9375 1.84375 42.265625 5.296874 56.640625 14.59375 97.679687 57.75 97.679687 108.726563zm0 0" fill="#c6237c"/><path d="m336.226562 487.046875c0 6.886719-3.421874 13.128906-8.972656 17.640625-5.539062 4.523438-13.203125 7.3125-21.65625 7.3125h-240.585937c-16.917969 0-30.628907-11.171875-30.628907-24.953125 0-31.488281 15.660157-59.988281 40.988282-80.628906 15.671875-12.765625 35.046875-22.515625 56.691406-28.097657 13.335938-3.441406 27.535156-5.296874 42.265625-5.296874h21.953125c14.730469 0 28.9375 1.84375 42.265625 5.296874 56.640625 14.59375 97.679687 57.75 97.679687 108.726563zm0 0" fill="#dd3f95"/><path d="m68.277344 451.84375v60.15625h-15.558594v-60.15625c0-4.292969 3.488281-7.777344 7.78125-7.777344s7.777344 3.484375 7.777344 7.777344zm0 0" fill="#8c1958"/><path d="m284.003906 451.84375v60.15625h-15.554687v-60.15625c0-4.292969 3.484375-7.777344 7.777343-7.777344 4.292969 0 7.777344 3.484375 7.777344 7.777344zm0 0" fill="#8c1958"/><path d="m264.351562 182.476562c-5.1875 0-184.855468 0-190.035156 0-3.851562 0-6.269531 4.15625-4.367187 7.503907l28.277343 49.769531c10.886719 19.15625 35.175782 18.539062 45.335938-1.152344l4.308594-8.355468c9.21875-17.875 34.59375-18.386719 44.527344-.898438l5.914062 10.40625c10.886719 19.15625 35.175781 18.539062 45.335938-1.152344l25.171874-48.792968c1.722657-3.34375-.707031-7.328126-4.46875-7.328126zm0 0" fill="#dd3f95"/><path d="m191.160156 260.144531c-4.292968 0-7.777344 3.484375-7.777344 7.777344 0 6.195313-5.039062 11.238281-11.234374 11.238281-1.84375 0-3.59375-.429687-5.207032-1.273437-3.804687-1.996094-8.507812-.527344-10.5 3.277343-1.996094 3.804688-.527344 8.507813 3.277344 10.5 3.808594 1.996094 8.105469 3.054688 12.425781 3.054688 14.777344 0 26.792969-12.019531 26.792969-26.792969.003906-4.296875-3.480469-7.78125-7.777344-7.78125zm0 0" fill="#f29500"/><path d="m228.246094 214.855469c0 6.851562-5.554688 12.402343-12.402344 12.402343-6.851562 0-12.402344-5.550781-12.402344-12.402343 0-6.847657 5.550782-12.402344 12.402344-12.402344 6.847656 0 12.402344 5.554687 12.402344 12.402344zm0 0" fill="#8c1958"/><path d="m133.285156 214.855469c0 6.851562-5.554687 12.402343-12.402344 12.402343-6.851562 0-12.402343-5.550781-12.402343-12.402343 0-6.847657 5.550781-12.402344 12.402343-12.402344 6.847657 0 12.402344 5.554687 12.402344 12.402344zm0 0" fill="#8c1958"/><path d="m296.015625 66.179688v96.144531c0 2.355469-.953125 4.5-2.511719 6.046875-1.542968 1.554687-3.691406 2.511718-6.046875 2.511718-57.28125 0-105.332031-38.574218-118.480469-90.585937-.34375-1.328125-2.253906-1.265625-2.5.082031-9.585937 51.503906-54.761718 90.503906-109.035156 90.503906h-8.175781c-4.71875 0-8.554687-3.839843-8.554687-8.558593v-104.503907c0-19.15625 9.3125-36.132812 23.65625-46.640624 9.574218-7.03125 21.386718-11.179688 34.164062-11.179688h129.757812c37.398438 0 67.726563 29.632812 67.726563 66.179688zm0 0" fill="#e25ca5"/><path d="m296.015625 66.179688v65.539062c-48.921875-3.828125-117.863281-35.386719-128.378906-77.03125-.289063-1.140625-1.929688-1.085938-2.136719.0625-8.191406 44.027344-46.804688 77.363281-93.207031 77.363281h-6.980469c-4.035156 0-7.3125-3.277343-7.3125-7.3125v-89.332031c0-8.824219 2.3125-17.121094 6.367188-24.289062 9.574218-7.03125 21.386718-11.179688 34.164062-11.179688h129.757812c37.398438 0 67.726563 29.632812 67.726563 66.179688zm0 0" fill="#e779b5"/><path d="m213.085938 444.585938-20.121094 34.835937c-.921875 1.609375-2.636719 2.59375-4.492188 2.59375h-40.21875c-1.859375 0-3.570312-.984375-4.492187-2.59375l-20.121094-34.835937c-.921875-1.609376-.921875-3.578126 0-5.1875l20.121094-34.835938c.921875-1.609375 2.632812-2.59375 4.492187-2.59375h40.21875c1.855469 0 3.570313.984375 4.492188 2.59375l20.121094 34.835938c.921874 1.609374.921874 3.578124 0 5.1875zm0 0" fill="#e779b5"/><path d="m213.085938 444.585938-20.121094 34.835937c-.921875 1.609375-2.636719 2.59375-4.492188 2.59375h-13.773437c-1.855469 0-3.566407-.984375-4.488281-2.59375l-20.121094-34.835937c-.925782-1.609376-.925782-3.578126 0-5.1875l20.121094-34.835938c.921874-1.609375 2.632812-2.59375 4.488281-2.59375h13.773437c1.855469 0 3.570313.984375 4.492188 2.59375l20.121094 34.835938c.921874 1.609374.921874 3.578124 0 5.1875zm0 0" fill="#efa4cd"/><path d="m115.34375 239.746094-28.28125-49.761719c-1.898438-3.347656.515625-7.507813 4.363281-7.507813h-17.113281c-3.847656 0-6.261719 4.160157-4.363281 7.507813l28.28125 49.761719c7.125 12.550781 20.007812 16.617187 30.90625 12.386718-5.382813-2.085937-10.277344-6.203124-13.792969-12.386718zm0 0" fill="#c6237c"/></svg>