<svg height="512pt" viewBox="-85 0 512 512" width="512pt" xmlns="http://www.w3.org/2000/svg"><path d="m341.757812 480.820312c0 8.605469-3.484374 16.410157-9.125 22.042969-5.644531 5.65625-13.449218 9.136719-22.054687 9.136719h-279.398437c-17.128907 0-31.148438-13.8125-31.179688-30.929688-.0742188-39.441406 15.890625-75.148437 41.726562-100.984374 19.757813-19.769532 45.304688-33.746094 73.863282-39.191407 11.441406-2.183593 19.746094-12.148437 19.746094-23.800781v-43.359375h71.085937v43.371094c0 11.597656 8.230469 21.59375 19.640625 23.765625 65.882812 12.523437 115.695312 70.421875 115.695312 139.949218zm0 0" fill="#4172cc"/><path d="m341.757812 480.820312c0 8.605469-3.484374 16.410157-9.125 22.042969-5.644531 5.65625-13.449218 9.136719-22.054687 9.136719h-249.261719c-17.125 0-31.144531-13.8125-31.175781-30.929688-.074219-39.441406 15.890625-75.148437 41.726563-100.984374 19.753906-19.769532 45.300781-33.746094 73.859374-39.191407 11.445313-2.183593 19.746094-12.148437 19.746094-23.800781v-43.359375h40.949219v43.371094c0 11.597656 8.230469 21.59375 19.640625 23.765625 65.882812 12.523437 115.695312 70.421875 115.695312 139.949218zm0 0" fill="#6990d7"/><path d="m68.863281 450.765625v61.234375h-15.589843v-61.234375c0-4.3125 3.492187-7.792969 7.792968-7.792969 4.316406 0 7.796875 3.480469 7.796875 7.792969zm0 0" fill="#4172cc"/><path d="m288.484375 450.765625v61.234375h-15.589844v-61.234375c0-4.3125 3.480469-7.792969 7.792969-7.792969 4.304688 0 7.796875 3.480469 7.796875 7.792969zm0 0" fill="#4172cc"/><path d="m109.5625 157.628906c0 22.519532-18.257812 40.777344-40.78125 40.777344-22.519531 0-40.777344-18.257812-40.777344-40.777344 0-22.523437 18.257813-40.78125 40.777344-40.78125 22.523438 0 40.78125 18.257813 40.78125 40.78125zm0 0" fill="#274c91"/><path d="m313.753906 157.632812c0 22.523438-18.257812 40.78125-40.777344 40.78125-22.523437 0-40.78125-18.257812-40.78125-40.78125 0-22.519531 18.257813-40.777343 40.78125-40.777343 22.519532 0 40.777344 18.257812 40.777344 40.777343zm0 0" fill="#274c91"/><path d="m277.445312 106.566406v95.59375c0 49.03125-57.90625 90.167969-91.496093 101.421875-5.9375 1.984375-11.113281 3.035157-15.070313 3.035157-13.199218 0-39.847656-11.691407-63.1875-30.59375-23.34375-18.90625-43.378906-45.023438-43.378906-73.863282v-95.59375c0-58.851562 47.710938-106.566406 106.566406-106.566406 5.113282 0 10.144532.363281 15.070313 1.058594 51.714843 7.316406 91.496093 51.769531 91.496093 105.507812zm0 0" fill="#2e5aac"/><path d="m277.445312 106.566406v95.59375c0 49.03125-57.90625 90.167969-91.496093 101.421875-13.835938-4.632812-31.78125-14.332031-48.121094-27.558593-23.339844-18.90625-43.378906-45.023438-43.378906-73.863282v-95.59375c0-53.738281 39.785156-98.191406 91.5-105.507812 51.714843 7.316406 91.496093 51.769531 91.496093 105.507812zm0 0" fill="#4172cc"/><path d="m259.550781 159.390625c.179688 7.785156-2.929687 14.871094-8.023437 19.96875-4.96875 4.96875-11.808594 8.042969-19.332032 8.042969h-40.507812c-1.300781 0-2.503906-.691406-3.152344-1.820313l-14.503906-25.117187c-1.402344-2.425782-4.902344-2.425782-6.304688 0l-14.503906 25.117187c-.648437 1.128907-1.851562 1.820313-3.152344 1.820313h-40.507812c-15.050781 0-27.363281-12.316406-27.363281-27.375 0-7.523438 3.074219-14.363282 8.03125-19.320313 4.96875-4.96875 11.808593-8.042969 19.332031-8.042969h122.058594c14.960937 0 27.585937 11.769532 27.929687 26.726563zm0 0" fill="#f2d1a5"/><path d="m231.839844 160.585938c0 6.972656-5.652344 12.625-12.625 12.625s-12.628906-5.652344-12.628906-12.625c0-6.972657 5.65625-12.628907 12.628906-12.628907s12.625 5.65625 12.625 12.628907zm0 0" fill="#ea552d"/><path d="m135.167969 160.585938c0 6.972656-5.652344 12.625-12.625 12.625-6.972657 0-12.625-5.652344-12.625-12.625 0-6.972657 5.652343-12.628907 12.625-12.628907 6.972656 0 12.625 5.65625 12.625 12.628907zm0 0" fill="#ea552d"/><path d="m216.257812 444.269531-20.441406 35.398438c-.9375 1.632812-2.675781 2.632812-4.5625 2.632812h-40.867187c-1.886719 0-3.625-1-4.5625-2.632812l-20.441407-35.398438c-.9375-1.632812-.9375-3.632812 0-5.269531l20.441407-35.394531c.9375-1.636719 2.675781-2.636719 4.5625-2.636719h40.867187c1.886719 0 3.625 1 4.5625 2.636719l20.441406 35.394531c.9375 1.636719.9375 3.636719 0 5.269531zm0 0" fill="#ffcd71"/><path d="m216.257812 444.269531-20.441406 35.398438c-.9375 1.632812-2.675781 2.632812-4.5625 2.632812h-13.996094c-1.882812 0-3.625-1-4.5625-2.632812l-20.441406-35.398438c-.9375-1.632812-.9375-3.632812 0-5.269531l20.441406-35.394531c.9375-1.636719 2.679688-2.636719 4.5625-2.636719h13.996094c1.886719 0 3.625 1 4.5625 2.636719l20.441406 35.394531c.9375 1.636719.9375 3.636719 0 5.269531zm0 0" fill="#ffd993"/></svg>