<svg height="512pt" viewBox="0 -31 512.00105 512" width="512pt" xmlns="http://www.w3.org/2000/svg"><path d="m141.46875 450.625h229.0625c9.625 0 18.519531-5.136719 23.332031-13.472656l114.527344-198.371094c4.8125-8.332031 4.8125-18.601562 0-26.9375l-114.53125-198.371094c-4.8125-8.335937-13.703125-13.472656-23.328125-13.472656h-229.0625c-9.625 0-18.515625 5.136719-23.328125 13.472656l-114.53125 198.371094c-4.8125 8.332031-4.8125 18.601562 0 26.9375l114.53125 198.371094c4.8125 8.335937 13.703125 13.472656 23.328125 13.472656zm0 0" fill="#91aee2"/><path d="m469.3125 233.164062-99.855469 172.957032c-2.808593 4.859375-7.988281 7.851562-13.601562 7.851562h-199.710938c-5.613281 0-10.792969-2.992187-13.601562-7.851562l-99.855469-172.957032c-2.804688-4.855468-2.804688-10.847656 0-15.707031l99.855469-172.953125c2.808593-4.859375 7.988281-7.851562 13.601562-7.851562h199.710938c5.613281 0 10.792969 2.992187 13.601562 7.851562l99.855469 172.953125c2.804688 4.859375 2.804688 10.851563 0 15.707031zm0 0" fill="#2e5aac"/><path d="m469.3125 233.164062-99.855469 172.957032c-2.808593 4.859375-7.988281 7.851562-13.601562 7.851562h-149.449219c-5.609375 0-10.792969-2.992187-13.601562-7.851562l-99.851563-172.957032c-2.808594-4.855468-2.808594-10.847656 0-15.707031l99.851563-172.953125c2.808593-4.859375 7.992187-7.851562 13.601562-7.851562h149.449219c5.613281 0 10.792969 2.992187 13.601562 7.851562l99.855469 172.953125c2.804688 4.859375 2.804688 10.851563 0 15.707031zm0 0" fill="#4172cc"/><path d="m327.351562 254.757812c-2.429687 2.367188-3.539062 5.789063-2.964843 9.128907l10.964843 63.929687.511719 2.972656c1.445313 8.441407-7.402343 14.871094-14.984375 10.890626l-44.460937-23.382813-15.613281-8.210937c-3.003907-1.578126-6.605469-1.578126-9.609376 0l-33.707031 17.730468-26.367187 13.863282c-7.582032 3.980468-16.429688-2.449219-14.984375-10.890626l11.476562-66.902343c.574219-3.339844-.535156-6.761719-2.964843-9.128907l-48.609376-47.382812c-6.125-5.96875-2.753906-16.378906 5.71875-17.601562l67.171876-9.761719c3.363281-.492188 6.273437-2.605469 7.773437-5.652344l30.039063-60.871094c3.792968-7.664062 14.722656-7.664062 18.515624 0l11.160157 22.617188 18.878906 38.253906c1.5 3.046875 4.410156 5.160156 7.773437 5.652344l67.171876 9.761719c8.472656 1.222656 11.84375 11.632812 5.71875 17.601562zm0 0" fill="#ea552d"/><path d="m327.351562 254.757812c-2.429687 2.367188-3.539062 5.789063-2.964843 9.128907l10.964843 63.929687.511719 2.972656c1.445313 8.441407-7.402343 14.871094-14.984375 10.890626l-44.460937-23.382813-15.613281-8.210937c-3.003907-1.578126-6.605469-1.578126-9.609376 0l-33.707031 17.730468 10.960938-63.929687c.578125-3.339844-.535157-6.761719-2.960938-9.128907l-48.609375-47.382812c-6.125-5.96875-2.753906-16.378906 5.71875-17.601562l67.171875-9.761719c3.363281-.492188 6.273438-2.605469 7.769531-5.652344l18.878907-38.253906 18.878906 38.253906c1.5 3.046875 4.410156 5.160156 7.773437 5.652344l67.171876 9.761719c8.472656 1.222656 11.84375 11.632812 5.71875 17.601562zm0 0" fill="#f76937"/></svg>