<svg height="511pt" viewBox="-35 0 511 511.99985" width="511pt" xmlns="http://www.w3.org/2000/svg"><path d="m436.265625 113.648438c-.496094-3.71875-3.589844-6.519532-7.339844-6.652344-75.011719-2.707032-151.4375-52.042969-202.089843-104.648438-3.007813-3.121094-7.976563-3.132812-10.996094-.023437-51.921875 53.523437-127.273438 102.003906-202.066406 104.671875-3.753907.132812-6.851563 2.933594-7.347657 6.65625-69.789062 525.847656 501.246094 536.390625 429.839844-.003906zm0 0" fill="#c42d2d"/><path d="m339.925781 419.65625c-26.570312 30.332031-59.867187 49.246094-95.410156 54.539062-6.820313 1.015626-13.71875 1.535157-20.671875 1.535157-.011719 0-.011719 0-.023438 0-44.195312-.011719-86.609374-20.652344-119.429687-58.125-53.003906-60.519531-75.761719-156.726563-64.984375-272.859375.199219-2.175782 1.875-3.917969 4.03125-4.25 74.652344-11.75 137.222656-56.816406 174.644531-90.15625 1.800781-1.605469 4.515625-1.574219 6.320313.042968 5.75 5.152344 11.59375 10.125 17.511718 14.890626 49.6875 40.050781 105.035157 66.558593 157.386719 75.109374 2.148438.351563 3.804688 2.082032 4.011719 4.25 11.234375 118.164063-10.960938 215.167969-63.386719 275.023438zm0 0" fill="#f44545"/><path d="m339.925781 419.65625c-26.570312 30.332031-59.867187 49.246094-95.410156 54.539062-36.582031-5.410156-71.035156-25.023437-98.671875-56.589843-53.007812-60.519531-75.761719-156.726563-64.984375-272.859375.195313-2.175782 1.875-3.917969 4.03125-4.25 63.945313-10.0625 119.023437-44.578125 157.023437-75.222656 49.6875 40.050781 105.035157 66.558593 157.386719 75.109374 2.148438.351563 3.804688 2.082032 4.011719 4.25 11.234375 118.164063-10.960938 215.167969-63.386719 275.023438zm0 0" fill="#fb5858"/><path d="m275.222656 164.601562h-107.488281c-4.949219 0-9.523437 2.640626-11.996094 6.925782l-53.742187 93.085937c-2.476563 4.289063-2.476563 9.570313 0 13.859375l53.742187 93.085938c2.472657 4.285156 7.046875 6.925781 11.996094 6.925781h107.488281c4.949219 0 9.523438-2.640625 12-6.925781l53.742188-93.085938c2.476562-4.289062 2.476562-9.570312 0-13.859375l-53.742188-93.085937c-2.476562-4.285156-7.050781-6.925782-12-6.925782zm0 0" fill="#d63030"/><path d="m305.136719 256.695312-72.816407 95.160157-63.140624 82.507812c-8.953126 9.210938-23.785157-1.640625-17.722657-12.964843l54.074219-113.296876c2.878906-6.039062-1.523438-13.015624-8.207031-13.015624h-52.28125c-7.191407 0-11.53125-7.945313-7.667969-14l109.214844-170.691407c6.878906-10.644531 23.34375-3.277343 19.996094 8.941407l-27.230469 76.859374-11.949219 33.730469c-2.101562 5.917969 2.289062 12.136719 8.570312 12.136719h61.9375c7.535157 0 11.804688 8.640625 7.222657 14.632812zm0 0" fill="#ffc14f"/><path d="m305.136719 256.695312-72.816407 95.160157 20.878907-43.753907c2.882812-6.039062-1.523438-13.015624-8.207031-13.015624h-52.28125c-7.191407 0-11.53125-7.945313-7.667969-14l54.3125-84.890626-11.949219 33.730469c-2.101562 5.917969 2.289062 12.136719 8.570312 12.136719h61.9375c7.535157 0 11.804688 8.640625 7.222657 14.632812zm0 0" fill="#ffb52d"/></svg>