<svg height="512pt" viewBox="0 -54 512.00046 512" width="512pt" xmlns="http://www.w3.org/2000/svg"><path d="m511.707031 121.683594-76.242187 265.632812-1.027344-88.652344-1.34375-115.421874 51.414062-59.011719 9.574219-10.992188c6.601563-8.441406 20.078125-1.996093 17.625 8.445313zm0 0" fill="#f76937"/><path d="m78.90625 183.242188-1.34375 115.421874-1.027344 88.652344-76.242187-265.632812c-2.449219-10.441406 11.023437-16.886719 17.625-8.445313l9.574219 10.992188zm0 0" fill="#f76937"/><path d="m484.507812 124.230469-50.070312 174.433593-1.34375-115.421874zm0 0" fill="#ff7c48"/><path d="m78.90625 183.242188-1.34375 115.421874-50.070312-174.433593zm0 0" fill="#ff7c48"/><path d="m444.003906 216.121094v166.847656c0 1.460938-.03125 2.90625-.085937 4.355469-.527344 13.226562-14.671875 21.363281-26.328125 15.089843l-153.445313-82.535156c-5.050781-2.710937-11.105469-2.773437-16.214843-.152344l-137.5 70.734376-16.382813 8.425781c-11.796875 6.074219-26.015625-2.371094-26.046875-15.628907v-168.949218c0-103.851563 84.230469-188.042969 188.113281-187.980469 7.109375 0 14.117188.402344 21.007813 1.191406 94.125 10.636719 166.882812 91.628907 166.882812 188.601563zm0 0" fill="#274c91"/><path d="m444.003906 216.121094v166.847656c0 1.460938-.03125 2.90625-.085937 4.355469-.527344 13.226562-14.671875 21.363281-26.328125 15.089843l-153.445313-82.535156c-5.050781-2.710937-11.105469-2.773437-16.214843-.152344l-137.5 70.734376v-176.152344c0-96.609375 72.890624-176.203125 166.691406-186.789063 94.125 10.636719 166.882812 91.628907 166.882812 188.601563zm0 0" fill="#2e5aac"/><path d="m227.054688 195.660156v54.25c0 6.066406-3.507813 11.582032-9.003907 14.148438l-36.097656 16.847656-14.800781 6.902344c-5.742188 2.679687-12.53125 1.625-17.1875-2.679688l-43.890625-40.515625c-5.074219-4.679687-6.46875-12.140625-3.4375-18.339843l18.359375-37.472657c2.617187-5.363281 8.0625-8.757812 14.023437-8.757812h76.429688c8.617187 0 15.605469 6.996093 15.605469 15.617187zm0 0" fill="#6990d7"/><path d="m405.925781 244.613281-39.3125 36.292969-4.574219 4.222656c-4.660156 4.304688-11.449218 5.359375-17.191406 2.679688l-50.898437-23.75c-5.496094-2.566406-9.003907-8.082032-9.003907-14.148438v-54.25c0-8.621094 6.988282-15.617187 15.609376-15.617187h76.425781c5.960937 0 11.40625 3.394531 14.023437 8.757812l18.359375 37.472657c3.03125 6.199218 1.636719 13.660156-3.4375 18.339843zm0 0" fill="#6990d7"/><path d="m227.054688 195.660156v54.25c0 6.066406-3.507813 11.582032-9.003907 14.148438l-36.097656 16.847656-39.316406-36.292969c-5.070313-4.679687-6.46875-12.140625-3.4375-18.339843l18.359375-37.472657c2.621094-5.363281 8.0625-8.757812 14.023437-8.757812h39.867188c8.617187 0 15.605469 6.996093 15.605469 15.617187zm0 0" fill="#91aee2"/><path d="m405.925781 244.613281-39.3125 36.292969-36.089843-16.847656c-5.503907-2.566406-9.011719-8.082032-9.011719-14.148438v-54.25c0-8.621094 6.984375-15.617187 15.613281-15.617187h39.855469c5.960937 0 11.40625 3.394531 14.023437 8.757812l18.359375 37.472657c3.03125 6.199218 1.636719 13.660156-3.4375 18.339843zm0 0" fill="#91aee2"/><path d="m301.496094 14.644531v77.183594c0 5.257813-2.390625 10.234375-6.5 13.535156l-28.171875 22.53125c-6.320313 5.0625-15.324219 5.0625-21.648438 0l-28.171875-22.53125c-4.109375-3.300781-6.5-8.277343-6.5-13.535156v-77.140625c0-5.414062 3.820313-10.070312 9.128906-11.128906 4.492188-.886719 9.035157-1.613282 13.640626-2.171875 7.410156-.910157 14.953124-1.3750002 22.613281-1.386719 12.46875 0 24.660156 1.199219 36.460937 3.519531 5.308594 1.042969 9.148438 5.710938 9.148438 11.125zm0 0" fill="#f76937"/><path d="m301.496094 14.644531v75.785157l-11.902344 9.523437c-6.324219 5.058594-15.328125 5.058594-21.652344 0l-28.167968-22.53125c-4.109376-3.300781-6.5-8.28125-6.5-13.535156v-62.5c7.410156-.910157 14.953124-1.3750002 22.613281-1.386719 12.46875 0 24.660156 1.199219 36.460937 3.519531 5.308594 1.042969 9.148438 5.710938 9.148438 11.125zm0 0" fill="#ff7c48"/></svg>