<svg height="512pt" viewBox="0 -18 512.00044 512" width="512pt" xmlns="http://www.w3.org/2000/svg"><path d="m417.003906 258.046875 28.585938 74.382813 35.566406 81.816406 26.378906 60.667968c1.078125 2.457032 4.769532 1.453126 4.445313-1.214843l-25.984375-240.683594-4.664063-48.1875-21.976562 25.019531zm0 0" fill="#ffad8c"/><path d="m417.003906 258.046875 28.585938 74.382813 35.566406 81.816406-19.5625-181.230469-2.238281-23.167969zm0 0" fill="#ff956a"/><path d="m407.589844 143.28125v186.941406l36.484375.5 56.566406-139.859375c1.097656-3.441406-.269531-7.195312-3.324219-9.121093l-16.945312-10.710938-43.890625-27.75zm0 0" fill="#c42d2d"/><path d="m407.589844 143.28125v158.582031l19.75.273438 53.03125-131.105469-43.890625-27.75zm0 0" fill="#d63030"/><path d="m94.996094 258.046875-28.585938 74.382813-35.566406 81.816406-26.378906 60.667968c-1.078125 2.457032-4.769532 1.453126-4.4453128-1.214843l25.9843748-240.683594 4.664063-48.1875 21.976562 25.019531zm0 0" fill="#ffad8c"/><path d="m94.996094 258.046875-28.585938 74.382813-35.566406 81.816406 19.5625-181.230469 2.238281-23.167969zm0 0" fill="#ff956a"/><path d="m104.410156 143.28125v186.941406l-36.484375.5-56.566406-139.859375c-1.097656-3.441406.269531-7.195312 3.324219-9.121093l16.945312-10.710938 43.890625-27.75zm0 0" fill="#c42d2d"/><path d="m104.410156 143.28125v158.582031l-19.75.273438-53.03125-131.105469 43.890625-27.75zm0 0" fill="#d63030"/><path d="m443.292969 187.203125c0 180.761719.039062 168.917969-.085938 172.296875-.539062 13.230469-14.65625 21.21875-26.191406 14.996094-6.34375-3.410156-141.949219-76.355469-152.714844-82.152344-5.09375-2.726562-11.210937-2.78125-16.347656-.144531-7.785156 4.003906-146.378906 75.289062-153.175781 78.792969-11.738282 6.035156-25.878906-2.363282-25.910156-15.550782v-166.441406c0-103.648438 83.472656-188.9492188 187.117187-189 103.636719 0 187.308594 83.933594 187.308594 187.203125zm0 0" fill="#f44545"/><path d="m443.292969 187.203125c0 180.761719.039062 168.917969-.085938 172.296875-.539062 13.230469-14.65625 21.21875-26.191406 14.996094-6.34375-3.410156-141.949219-76.355469-152.714844-82.152344-5.09375-2.726562-11.210937-2.78125-16.347656-.144531-7.4375 3.824219-141.4375 72.75-148.574219 76.421875v-179.621094c0-98.5625 75.46875-180.527344 172.015625-188.382812 96.230469 7.792968 171.898438 88.355468 171.898438 186.585937zm0 0" fill="#fb5858"/><path d="m456.15625 85.792969v33.03125c0 6.519531-4.128906 12.324219-10.292969 14.457031l-186.65625 64.609375c-2.027343.703125-4.226562.703125-6.253906 0l-186.660156-64.609375c-6.160157-2.132812-10.292969-7.9375-10.292969-14.457031v-33.03125c0-12.449219 14.070312-19.6875 24.195312-12.449219l171.167969 96.945312c2.929688 1.652344 6.503907 1.652344 9.433594 0l171.167969-96.945312c10.125-7.238281 24.191406 0 24.191406 12.449219zm0 0" fill="#ff956a"/><path d="m456.15625 85.792969v16.988281c0 6.527344-4.128906 12.332031-10.292969 14.464844l-186.65625 64.601562c-2.027343.710938-4.226562.710938-6.253906 0l-186.660156-64.601562c-6.160157-2.132813-10.292969-7.9375-10.292969-14.464844v-16.988281c0-12.449219 14.070312-19.6875 24.195312-12.449219l171.167969 96.945312c2.929688 1.652344 6.503907 1.652344 9.433594 0l171.167969-96.945312c10.125-7.238281 24.191406 0 24.191406 12.449219zm0 0" fill="#ffad8c"/><path d="m237.304688 236.742188-107.363282 61.503906c-13.4375 7.707031-30.195312-2.007813-30.195312-17.5v-65.523438c0-10.8125 8.335937-19.191406 18.304687-20.101562 2.5-.242188 5.105469 0 7.699219.785156l103.59375 31.304688 7.113281 2.144531c3.398438 1.023437 3.921875 5.617187.847657 7.386719zm0 0" fill="#af2727"/><path d="m412.414062 215.222656v65.523438c0 15.492187-16.757812 25.207031-30.199218 17.5l-107.359375-61.503906c-3.074219-1.769532-2.550781-6.363282.847656-7.386719l31.074219-9.394531 79.632812-24.054688c12.949219-3.914062 26.003906 5.78125 26.003906 19.316406zm0 0" fill="#af2727"/><g fill="#c42d2d"><path d="m229.34375 227.210938-81.09375 46.453124c-13.441406 7.707032-30.199219-2.007812-30.199219-17.5v-61.042968c2.5-.242188 5.105469 0 7.699219.785156zm0 0"/><path d="m412.414062 215.222656v61.054688c-3.921874.367187-8.042968-.40625-11.894531-2.613282l-93.742187-53.703124 79.632812-24.054688c12.949219-3.914062 26.003906 5.78125 26.003906 19.316406zm0 0"/></g></svg>