<svg height="512pt" viewBox="0 -135 512 511" width="512pt" xmlns="http://www.w3.org/2000/svg"><path d="m380.957031.5c-20.613281 0-40.109375 4.375-57.457031 12.183594-42.890625 19.300781-92.109375 19.300781-135 0-17.347656-7.808594-36.84375-12.183594-57.457031-12.183594-72.367188 0-131.042969 54.035156-131.042969 120.683594 0 66.652344 58.675781 120.6875 131.042969 120.6875 20.613281 0 40.109375-4.375 57.457031-12.183594 42.890625-19.300781 92.109375-19.300781 135 0 17.347656 7.808594 36.84375 12.183594 57.457031 12.183594 72.367188 0 131.042969-54.035156 131.042969-120.6875 0-66.648438-58.675781-120.683594-131.042969-120.683594zm54.476563 143.300781c-37.824219 31.722657-103.339844 7.953125-134.644532-6.433593-8.488281-3.902344-9.496093-15.5-1.878906-20.894532 75.382813-53.320312 129.335938-32.320312 142.578125-11.050781 7.765625 12.46875 5.195313 28.945313-6.054687 38.378906zm-227.382813-6.433593c-31.304687 14.386718-96.820312 38.15625-134.640625 6.433593-11.25-9.433593-13.824218-25.910156-6.058594-38.378906 13.246094-21.269531 67.195313-42.269531 142.566407 11.050781 7.628906 5.394532 6.625 16.992188-1.867188 20.894532zm0 0" fill="#ffc14f"/><path d="m380.957031 33.03125c-15.523437 0-30.359375 3.140625-44.109375 9.320312-25.5625 11.511719-52.765625 17.347657-80.847656 17.347657s-55.285156-5.835938-80.847656-17.347657c-13.75-6.179687-28.585938-9.320312-44.109375-9.320312-10.390625 0-20.402344 1.449219-29.804688 4.125-39.792969 11.324219-68.707031 44.71875-68.707031 84.027344 0 40.625 30.875 74.921875 72.726562 85.089844 8.21875 1.996093 16.867188 3.066406 25.785157 3.066406 15.523437 0 30.359375-3.140625 44.109375-9.320313 25.5625-11.511719 52.765625-17.347656 80.847656-17.347656s55.285156 5.835937 80.847656 17.347656c13.75 6.179688 28.585938 9.320313 44.109375 9.320313 54.320313 0 98.511719-39.542969 98.511719-88.15625 0-48.609375-44.191406-88.152344-98.511719-88.152344zm-172.90625 104.335938c-31.304687 14.386718-96.820312 38.15625-134.640625 6.433593-6.027344-5.046875-9.5625-12.132812-10.359375-19.53125-.011719-.007812-.011719-.03125 0-.039062-.1875-1.816407-.222656-3.652344-.0625-5.480469.34375-4.617188 1.78125-9.191406 4.363281-13.328125 13.246094-21.269531 67.195313-42.269531 142.566407 11.050781 7.628906 5.394532 6.625 16.992188-1.867188 20.894532zm227.382813 6.433593c-37.824219 31.722657-103.339844 7.953125-134.644532-6.433593-8.488281-3.902344-9.496093-15.5-1.878906-20.894532 75.382813-53.320312 129.335938-32.320312 142.578125-11.050781 7.765625 12.46875 5.195313 28.945313-6.054687 38.378906zm0 0" fill="#4172cc"/><path d="m380.957031 33.03125c-15.523437 0-30.359375 3.140625-44.109375 9.320312-25.5625 11.511719-52.765625 17.347657-80.847656 17.347657s-55.285156-5.835938-80.847656-17.347657c-13.75-6.179687-28.585938-9.320312-44.109375-9.320312-10.390625 0-20.402344 1.449219-29.804688 4.125-22.949219 18.941406-37.863281 48.441406-38.25 81.59375.34375-4.617188 1.78125-9.191406 4.363281-13.328125 13.246094-21.269531 67.195313-42.269531 142.566407 11.050781 7.628906 5.394532 6.625 16.992188-1.867188 20.894532-31.304687 14.386718-96.820312 38.15625-134.640625 6.433593-6.027344-5.046875-9.5625-12.132812-10.359375-19.53125 1.226563 33.917969 17.652344 63.753907 42.207031 82.003907 8.21875 1.996093 16.867188 3.066406 25.785157 3.066406 15.523437 0 30.359375-3.140625 44.109375-9.320313 25.5625-11.511719 52.765625-17.347656 80.847656-17.347656s55.285156 5.835937 80.847656 17.347656c13.75 6.179688 28.585938 9.320313 44.109375 9.320313 54.320313 0 98.511719-39.542969 98.511719-88.15625 0-48.609375-44.191406-88.152344-98.511719-88.152344zm54.476563 110.769531c-37.824219 31.722657-103.339844 7.953125-134.644532-6.433593-8.488281-3.902344-9.496093-15.5-1.878906-20.894532 75.382813-53.320312 129.335938-32.320312 142.578125-11.050781 7.765625 12.46875 5.195313 28.945313-6.054687 38.378906zm0 0" fill="#6990d7"/></svg>