<svg height="511pt" viewBox="0 -7 511.9996 511" width="511pt" xmlns="http://www.w3.org/2000/svg"><path d="m422.851562 130.253906 7.980469 49.207032 9.257813 57.09375 30.753906-114.867188c1.664062-2.945312 5.695312-3.449219 8.035156-1.003906l10.238282 10.71875c2.9375 3.082031 8.128906 1.359375 8.648437-2.863282l14.179687-115.179687c1.035157-11.082031-12.734374-16.078125-19.296874-8.316406-.511719.605469-.980469 1.308593-1.398438 2.082031zm0 0" fill="#ffc14f"/><path d="m422.851562 130.253906 7.980469 49.207032 23.296875-87.027344c1.660156-2.945313 5.695313-3.445313 8.035156-1l10.238282 10.71875c2.933594 3.082031 8.128906 1.355468 8.648437-2.863282l11.597657-94.246093c-.511719.605469-.980469 1.308593-1.398438 2.082031zm0 0" fill="#ffb52d"/><path d="m89.148438 130.253906-7.980469 49.207032-9.257813 57.09375-30.753906-114.867188c-1.664062-2.945312-5.695312-3.449219-8.035156-1.003906l-10.238282 10.71875c-2.9375 3.082031-8.128906 1.359375-8.652343-2.863282l-14.1757815-115.179687c-1.0351565-11.082031 12.7343745-16.078125 19.2968745-8.316406.511719.605469.980469 1.308593 1.398438 2.082031zm0 0" fill="#ffc14f"/><path d="m89.148438 130.253906-7.980469 49.207032-23.296875-87.027344c-1.664063-2.945313-5.695313-3.445313-8.035156-1l-10.238282 10.71875c-2.933594 3.082031-8.128906 1.355468-8.648437-2.863282l-11.597657-94.246093c.511719.605469.980469 1.308593 1.398438 2.082031zm0 0" fill="#ffb52d"/><path d="m443.027344 406.4375c-.011719 7.21875-3.226563 14.050781-8.785156 18.65625l-75.742188 54.691406c-11.484375 9.519532-25.953125 17.605469-40.851562 17.605469h-129.929688c-15.777344-.167969-30.925781-6.894531-42.511719-17.605469l-68.355469-58.742187c-4.972656-4.597657-7.792968-11.054688-7.792968-17.824219v-213.949219c0-31.027343 7.492187-60.394531 20.757812-86.335937 31.019532-60.601563 93.628906-102.390625 166.132813-102.433594 5.085937 0 10.132812.199219 15.117187.605469 66.339844 5.253906 122.921875 45.152343 151.683594 101.597656 12.964844 25.441406 20.277344 54.253906 20.277344 84.769531 0 148.707032.019531 200.421875 0 218.964844zm0 0" fill="#f44545"/><path d="m443.027344 406.4375c-.011719 7.21875-3.226563 14.050781-8.785156 18.65625l-75.742188 54.691406c-11.484375 9.519532-25.953125 17.605469-40.851562 17.605469h-99.988282c-15.773437-.167969-30.921875-6.894531-42.507812-17.605469l-68.347656-58.742187c-4.972657-4.597657-7.792969-11.054688-7.792969-17.824219v-213.949219c0-31.027343 7.488281-60.394531 20.757812-86.335937 28.875-56.425782 85.15625-96.542969 151.296875-101.828125 66.339844 5.253906 122.921875 45.152343 151.683594 101.597656 12.964844 25.441406 20.277344 54.253906 20.277344 84.769531 0 148.707032.019531 200.421875 0 218.964844zm0 0" fill="#fb5858"/><path d="m413.617188 220.621094c0 34.277344-31.164063 62.164062-69.460938 62.164062-10.949219 0-21.40625-2.214844-31.101562-6.574218-18.03125-8.117188-37.214844-12.234376-57.011719-12.234376s-38.976563 4.117188-57.011719 12.234376c-9.695312 4.359374-20.152344 6.574218-31.101562 6.574218-6.015626 0-11.867188-.691406-17.445313-1.988281-29.878906-6.933594-52.015625-31.289063-52.015625-60.175781 0-26.671875 18.867188-49.476563 45.289062-58.273438 7.53125-2.515625 15.679688-3.886718 24.171876-3.886718 10.949218 0 21.40625 2.214843 31.101562 6.570312 18.035156 8.121094 37.214844 12.234375 57.011719 12.234375s38.980469-4.113281 57.011719-12.234375c9.695312-4.355469 20.152343-6.570312 31.101562-6.570312 38.296875 0 69.460938 27.882812 69.460938 62.160156zm0 0" fill="#f2bb88"/><path d="m413.617188 220.621094c0 34.277344-31.164063 62.164062-69.460938 62.164062-10.949219 0-21.40625-2.214844-31.101562-6.574218-18.03125-8.117188-37.214844-12.234376-57.011719-12.234376s-38.976563 4.117188-57.011719 12.234376c-9.695312 4.359374-20.152344 6.574218-31.101562 6.574218-6.015626 0-11.867188-.691406-17.445313-1.988281-14.992187-15.210937-24.507813-37.871094-24.507813-63.132813 0-21.238281 6.726563-40.636718 17.78125-55.316406 7.53125-2.515625 15.679688-3.886718 24.171876-3.886718 10.949218 0 21.40625 2.214843 31.101562 6.570312 18.035156 8.121094 37.214844 12.234375 57.011719 12.234375s38.980469-4.113281 57.011719-12.234375c9.695312-4.355469 20.152343-6.570312 31.101562-6.570312 38.296875 0 69.460938 27.882812 69.460938 62.160156zm0 0" fill="#f2d1a5"/><path d="m369.425781 396.625-6.140625 10.636719-3.03125 5.253906c-3.351562 5.800781-9.539062 9.371094-16.222656 9.371094h-175.972656c-6.6875 0-12.871094-3.570313-16.226563-9.371094l-9.171875-15.890625c-3.34375-5.796875-3.34375-12.941406 0-18.742188l9.171875-15.886718c3.355469-5.800782 9.539063-9.375 16.226563-9.375h175.972656c6.683594 0 12.871094 3.574218 16.222656 9.375l9.171875 15.886718c3.34375 5.800782 3.34375 12.945313 0 18.742188zm0 0" fill="#ffa90b"/><path d="m369.425781 396.625-6.140625 10.636719h-171.199218c-6.6875 0-12.871094-3.574219-16.226563-9.371094l-9.171875-15.890625c-3.34375-5.796875-3.34375-12.945312 0-18.742188l6.144531-10.636718h171.199219c6.683594 0 12.871094 3.574218 16.222656 9.375l9.171875 15.886718c3.34375 5.800782 3.34375 12.945313 0 18.742188zm0 0" fill="#ffc14f"/><g fill="#ff7c48"><path d="m362.292969 218.707031c0 9.566407-7.753907 17.316407-17.316407 17.316407-9.566406 0-17.316406-7.75-17.316406-17.316407 0-9.5625 7.75-17.316406 17.316406-17.316406 9.5625 0 17.316407 7.753906 17.316407 17.316406zm0 0"/><path d="m184.425781 218.707031c0 9.566407-7.75 17.316407-17.316406 17.316407-9.5625 0-17.316406-7.75-17.316406-17.316407 0-9.5625 7.753906-17.316406 17.316406-17.316406 9.566406 0 17.316406 7.753906 17.316406 17.316406zm0 0"/></g></svg>