<svg height="512pt" viewBox="0 -8 512 512" width="512pt" xmlns="http://www.w3.org/2000/svg"><path d="m471.679688 233.820312c-14.703126 19.050782-23.445313 42.929688-23.445313 68.851563 0 4.828125.320313 9.574219.910156 14.242187.429688 3.375-2.492187 6.179688-5.847656 5.621094-5.992187-.992187-12.132813-1.515625-18.402344-1.515625-30.4375 0-58.0625 12.0625-78.347656 31.664063-8.574219 8.28125-15.835937 17.917968-21.453125 28.554687-1.363281 2.566407-4.648438 3.4375-7.101562 1.882813-19.472657-12.359375-42.558594-19.539063-67.332032-19.539063-21.535156 0-41.796875 5.425781-59.515625 14.964844-2.414062 1.300781-5.398437.457031-6.789062-1.90625-19.625-33.28125-55.824219-55.621094-97.25-55.621094-6.269531 0-12.410157.523438-18.398438 1.515625-3.355469.558594-6.28125-2.246094-5.851562-5.621094.589843-4.667968.914062-9.414062.914062-14.242187 0-25.921875-8.746093-49.800781-23.449219-68.851563-1.394531-1.804687-1.394531-4.328124 0-6.140624 14.703126-19.050782 23.449219-42.929688 23.449219-68.851563 0-4.820313-.324219-9.578125-.914062-14.234375-.429688-3.375 2.496093-6.179688 5.851562-5.628906 5.988281.992187 12.128907 1.523437 18.398438 1.523437 4.226562 0 8.394531-.230469 12.5-.691406 37.972656-4.175781 70.246093-27.214844 87.300781-59.527344 1.363281-2.574219 4.648438-3.445312 7.101562-1.882812 19.472657 12.359375 42.5625 19.53125 67.332032 19.53125 21.535156 0 41.796875-5.429688 59.515625-14.964844 2.414062-1.292969 5.398437-.449219 6.792969 1.914063 19.621093 33.285156 55.820312 55.621093 97.246093 55.621093 6.269531 0 12.410157-.53125 18.402344-1.523437 3.355469-.550782 6.277344 2.253906 5.847656 5.628906-.589843 4.65625-.910156 9.414062-.910156 14.234375 0 25.921875 8.742187 49.800781 23.445313 68.851563 1.394531 1.8125 1.394531 4.335937 0 6.140624zm0 0" fill="#f76937"/><path d="m471.679688 233.820312c-14.703126 19.050782-23.445313 42.929688-23.445313 68.851563 0 4.828125.320313 9.574219.910156 14.242187.429688 3.375-2.492187 6.179688-5.847656 5.621094-5.992187-.992187-12.132813-1.515625-18.402344-1.515625-30.4375 0-58.0625 12.0625-78.347656 31.664063-17.789063-9.65625-38.160156-15.144532-59.828125-15.144532-21.535156 0-41.796875 5.429688-59.515625 14.964844-2.414063 1.300782-5.398437.460938-6.789063-1.90625-19.625-33.28125-55.824218-55.617187-97.25-55.617187-6.269531 0-12.410156.519531-18.398437 1.511719-3.355469.558593-6.28125-2.246094-5.851563-5.621094.59375-4.667969.914063-9.414063.914063-14.242188 0-25.921875-8.746094-49.800781-23.449219-68.851562-1.394531-1.804688-1.394531-4.328125 0-6.140625 13.371094-17.316407 21.804688-38.632813 23.226563-61.839844 37.972656-4.175781 70.246093-27.214844 87.300781-59.527344 1.363281-2.574219 4.648438-3.445312 7.101562-1.882812 19.472657 12.359375 42.5625 19.53125 67.332032 19.53125 21.535156 0 41.796875-5.429688 59.515625-14.964844 2.414062-1.292969 5.398437-.449219 6.792969 1.914063 19.621093 33.285156 55.820312 55.621093 97.246093 55.621093 6.269531 0 12.410157-.53125 18.402344-1.523437 3.355469-.550782 6.277344 2.253906 5.847656 5.628906-.589843 4.65625-.910156 9.414062-.910156 14.234375 0 25.921875 8.742187 49.800781 23.445313 68.851563 1.394531 1.8125 1.394531 4.335937 0 6.140624zm0 0" fill="#ff7c48"/><path d="m80.382812 2.605469 9.480469 19.210937c.679688 1.378906 1.996094 2.332032 3.519531 2.554688l21.199219 3.078125c3.828125.558593 5.359375 5.265625 2.585938 7.96875l-15.339844 14.953125c-1.097656 1.074218-1.601563 2.621094-1.339844 4.132812l3.617188 21.117188c.65625 3.8125-3.347657 6.722656-6.777344 4.921875l-18.960937-9.96875c-1.359376-.714844-2.984376-.714844-4.347657 0l-18.960937 9.96875c-3.425782 1.804687-7.433594-1.109375-6.777344-4.921875l3.621094-21.117188c.257812-1.511718-.242188-3.058594-1.34375-4.132812l-15.339844-14.953125c-2.773438-2.703125-1.246094-7.410157 2.585938-7.96875l21.203124-3.078125c1.519532-.222656 2.835938-1.175782 3.515626-2.554688l9.480468-19.210937c1.714844-3.472657 6.664063-3.472657 8.378906 0zm0 0" fill="#ff7c48"/><path d="m412.386719 24.992188 9.480469 19.207031c.679687 1.382812 1.996093 2.335937 3.515624 2.558593l21.199219 3.078126c3.832031.558593 5.363281 5.265624 2.589844 7.96875l-15.339844 14.953124c-1.101562 1.074219-1.601562 2.617188-1.34375 4.132813l3.621094 21.113281c.65625 3.816406-3.351563 6.726563-6.777344 4.925782l-18.960937-9.96875c-1.359375-.714844-2.984375-.714844-4.347656 0l-18.960938 9.96875c-3.425781 1.804687-7.433594-1.109376-6.777344-4.925782l3.621094-21.113281c.257812-1.515625-.242188-3.058594-1.34375-4.132813l-15.339844-14.953124c-2.773437-2.703126-1.242187-7.410157 2.589844-7.96875l21.199219-3.078126c1.519531-.222656 2.835937-1.179687 3.515625-2.558593l9.480468-19.207031c1.714844-3.472657 6.664063-3.472657 8.378907 0zm0 0" fill="#ff7c48"/><path d="m76.53125 395.175781 9.480469 19.210938c.679687 1.378906 1.996093 2.335937 3.519531 2.554687l21.199219 3.082032c3.828125.554687 5.359375 5.265624 2.589843 7.96875l-15.34375 14.949218c-1.097656 1.074219-1.601562 2.621094-1.339843 4.136719l3.621093 21.113281c.652344 3.816406-3.351562 6.726563-6.78125 4.925782l-18.960937-9.96875c-1.359375-.714844-2.984375-.714844-4.347656 0l-18.960938 9.96875c-3.425781 1.800781-7.433593-1.109376-6.777343-4.925782l3.621093-21.113281c.261719-1.515625-.242187-3.0625-1.34375-4.136719l-15.339843-14.949218c-2.773438-2.703126-1.242188-7.414063 2.589843-7.96875l21.199219-3.082032c1.523438-.21875 2.835938-1.175781 3.519531-2.554687l9.480469-19.210938c1.710938-3.472656 6.660156-3.472656 8.375 0zm0 0" fill="#ff7c48"/><path d="m434.523438 417.316406 9.480468 19.210938c.679688 1.378906 1.996094 2.335937 3.515625 2.554687l21.199219 3.082031c3.832031.554688 5.363281 5.265626 2.589844 7.96875l-15.339844 14.949219c-1.101562 1.074219-1.601562 2.621094-1.34375 4.136719l3.621094 21.113281c.65625 3.816407-3.351563 6.726563-6.777344 4.925781l-18.960938-9.96875c-1.359374-.714843-2.984374-.714843-4.347656 0l-18.960937 9.96875c-3.425781 1.800782-7.433594-1.109374-6.777344-4.925781l3.621094-21.113281c.261719-1.515625-.242188-3.0625-1.34375-4.136719l-15.339844-14.949219c-2.773437-2.703124-1.242187-7.414062 2.589844-7.96875l21.199219-3.082031c1.519531-.21875 2.835937-1.175781 3.515624-2.554687l9.480469-19.210938c1.714844-3.46875 6.664063-3.46875 8.378907 0zm0 0" fill="#ff7c48"/><g fill="#ffc5ae"><path d="m48.996094 116.585938c3.421875-2.34375 4.292968-7.019532 1.949218-10.441407l-10.945312-15.964843c-2.347656-3.425782-7.023438-4.296876-10.445312-1.949219-3.421876 2.347656-4.292969 7.023437-1.949219 10.445312l10.945312 15.964844c2.347657 3.421875 7.023438 4.292969 10.445313 1.945313zm0 0"/><path d="m176.753906 46.410156c.71875 4.085938 4.609375 6.820313 8.695313 6.101563 4.085937-.714844 6.820312-4.605469 6.105469-8.691407l-6.210938-35.480468c-.714844-4.085938-4.609375-6.824219-8.691406-6.105469-4.089844.714844-6.820313 4.609375-6.105469 8.695313zm0 0"/><path d="m333.164062 57.0625c2.875 0 5.625-1.664062 6.867188-4.460938l17.738281-39.914062c1.6875-3.792969-.019531-8.230469-3.8125-9.917969-3.792969-1.683593-8.230469.023438-9.914062 3.816407l-17.742188 39.914062c-2.214843 4.984375 1.46875 10.5625 6.863281 10.5625zm0 0"/><path d="m461.773438 120.925781c2.28125 0 4.535156-1.035156 6.007812-3l10.949219-14.550781c2.492187-3.316406 1.828125-8.027344-1.488281-10.519531-3.316407-2.496094-8.027344-1.828125-10.519532 1.488281l-10.945312 14.550781c-3.738282 4.972657-.140625 12.03125 5.996094 12.03125zm0 0"/><path d="m467.972656 352.148438c-2.34375-3.425782-7.019531-4.296876-10.441406-1.949219-3.421875 2.347656-4.292969 7.023437-1.949219 10.445312l10.945313 15.964844c1.457031 2.121094 3.808594 3.265625 6.203125 3.265625 1.464843 0 2.945312-.429688 4.242187-1.320312 3.421875-2.34375 4.292969-7.019532 1.945313-10.441407zm0 0"/><path d="m335.246094 416.300781c-.714844-4.085937-4.609375-6.824219-8.695313-6.105469-4.085937.714844-6.820312 4.609376-6.105469 8.695313l6.210938 35.480469c.636719 3.648437 3.808594 6.21875 7.390625 6.21875.429687 0 .863281-.039063 1.300781-.117188 4.089844-.714844 6.820313-4.605468 6.105469-8.695312zm0 0"/><path d="m181.882812 406.296875c-3.792968-1.683594-8.230468.023437-9.914062 3.816406l-17.738281 39.910157c-1.6875 3.792968.019531 8.230468 3.8125 9.917968.992187.441406 2.027343.648438 3.046875.648438 2.878906 0 5.625-1.664063 6.867187-4.464844l17.742188-39.914062c1.683593-3.789063-.023438-8.230469-3.816407-9.914063zm0 0"/><path d="m54.734375 343.296875c-3.3125-2.496094-8.023437-1.828125-10.515625 1.484375l-10.949219 14.554688c-2.492187 3.316406-1.828125 8.023437 1.488281 10.519531 1.355469 1.015625 2.9375 1.507812 4.511719 1.507812 2.277344 0 4.53125-1.035156 6.007813-2.996093l10.945312-14.550782c2.496094-3.316406 1.828125-8.027344-1.488281-10.519531zm0 0"/><path d="m19.28125 223.238281h-11.769531c-4.148438 0-7.511719 3.363281-7.511719 7.511719s3.363281 7.515625 7.511719 7.515625h11.769531c4.148438 0 7.511719-3.367187 7.511719-7.515625s-3.363281-7.511719-7.511719-7.511719zm0 0"/><path d="m504.488281 223.238281h-11.769531c-4.148438 0-7.511719 3.363281-7.511719 7.511719s3.363281 7.515625 7.511719 7.515625h11.769531c4.148438 0 7.511719-3.367187 7.511719-7.515625s-3.363281-7.511719-7.511719-7.511719zm0 0"/><path d="m115.707031 176.304688c-19.855469 0-31.242187 11.632812-31.242187 31.921874v42.082032c0 20.371094 11.386718 32.054687 31.242187 32.054687s31.238281-11.683593 31.238281-32.054687v-42.082032c0-20.289062-11.382812-31.921874-31.238281-31.921874zm16.269531 74c0 11.957031-5.320312 17.765624-16.269531 17.765624s-16.273437-5.808593-16.273437-17.765624v-42.078126c0-11.863281 5.324218-17.632812 16.273437-17.632812s16.269531 5.769531 16.269531 17.632812zm0 0"/><path d="m213.558594 182.566406v67.738282c0 11.957031-5.410156 17.765624-16.542969 17.765624-11.128906 0-16.539063-5.808593-16.539063-17.765624v-67.738282c0-8.460937-14.972656-8.3125-14.972656 0v67.738282c0 20.371093 11.488282 32.058593 31.511719 32.058593 20.027344 0 31.515625-11.6875 31.515625-32.058593v-67.738282c0-8.3125-14.972656-8.457031-14.972656 0zm0 0"/><path d="m278.601562 190.59375c10.203126 0 15.585938 4.5625 16.007813 13.636719.214844 2.988281 2.292969 6.183593 7.476563 6.183593 6.710937 0 7.484374-4.8125 7.484374-8.433593 0-12.367188-9.691406-25.675781-30.96875-25.675781-19.730468 0-31.511718 11.933593-31.511718 31.921874v42.082032c0 20.371094 11.335937 32.054687 31.105468 32.054687 20.597657 0 31.375-13.054687 31.375-25.945312 0-3.679688-.773437-8.574219-7.484374-8.574219-4.1875 0-6.976563 2.304688-7.460938 6.164062-.78125 6.265626-1.757812 14.066407-15.480469 14.066407-11.816406 0-17.085937-5.480469-17.085937-17.765625v-42.082032c0-12.027343 5.257812-17.632812 16.542968-17.632812zm0 0"/><path d="m372.792969 182.566406v37.585938h-33.222657v-37.585938c0-8.3125-14.96875-8.457031-14.96875 0v92.445313c0 8.738281 14.96875 8.664062 14.96875 0v-41.113281h33.222657v41.113281c0 8.738281 14.96875 8.664062 14.96875 0v-92.445313c0-8.3125-14.96875-8.457031-14.96875 0zm0 0"/><path d="m417.898438 262.90625c-5.1875 0-9.25 4.121094-9.25 9.386719 0 5.097656 4.148437 9.246093 9.25 9.246093 4.9375 0 9.113281-4.234374 9.113281-9.246093 0-5.175781-4.089844-9.386719-9.113281-9.386719zm0 0"/><path d="m417.828125 253.996094c4.148437 0 7.511719-3.363282 7.511719-7.511719v-62.433594c0-4.148437-3.363282-7.511719-7.511719-7.511719s-7.511719 3.363282-7.511719 7.511719v62.433594c0 4.148437 3.363282 7.511719 7.511719 7.511719zm0 0"/></g></svg>