<svg height="512pt" viewBox="0 0 512.00089 512" width="512pt" xmlns="http://www.w3.org/2000/svg"><path d="m178.839844 415.84375h154.320312c9.492188 0 18.265625-5.066406 23.011719-13.285156l77.160156-133.644532c4.746094-8.21875 4.746094-18.347656 0-26.570312l-77.160156-133.644531c-4.746094-8.222657-13.519531-13.285157-23.011719-13.285157h-154.320312c-9.492188 0-18.265625 5.0625-23.011719 13.285157l-77.15625 133.644531c-4.75 8.21875-4.75 18.347656 0 26.570312l77.15625 133.644532c4.746094 8.21875 13.519531 13.285156 23.011719 13.285156zm0 0" fill="#ffc14f"/><path d="m406.433594 263.375-68.507813 118.664062c-2.769531 4.792969-7.882812 7.746094-13.417969 7.746094h-137.015624c-5.535157 0-10.648438-2.953125-13.417969-7.746094l-68.507813-118.664062c-2.769531-4.792969-2.769531-10.699219 0-15.492188l68.507813-118.664062c2.769531-4.792969 7.882812-7.746094 13.417969-7.746094h137.015624c5.535157 0 10.648438 2.953125 13.417969 7.746094l68.507813 118.664062c2.769531 4.792969 2.769531 10.699219 0 15.492188zm0 0" fill="#2e5aac"/><path d="m406.433594 263.375-68.507813 118.664062c-2.769531 4.792969-7.882812 7.746094-13.417969 7.746094h-101.898437c-5.539063 0-10.648437-2.953125-13.417969-7.746094l-68.507812-118.664062c-2.769532-4.792969-2.769532-10.699219 0-15.492188l68.507812-118.664062c2.769532-4.792969 7.878906-7.746094 13.417969-7.746094h101.898437c5.535157 0 10.648438 2.953125 13.417969 7.746094l68.507813 118.664062c2.769531 4.792969 2.769531 10.699219 0 15.492188zm0 0" fill="#4172cc"/><path d="m312.816406 245.539062-38.492187 50.296876-53.84375 70.367187c-6.082031 6.261719-16.152344-1.113281-12.03125-8.796875l36.714843-76.949219c1.964844-4.097656-1.03125-8.839843-5.574218-8.839843h-35.5c-4.886719 0-7.839844-5.390626-5.207032-9.511719l74.167969-115.925781c4.679688-7.222657 15.855469-2.222657 13.582031 6.070312l-23.597656 66.621094-3.007812 8.488281c-1.425782 4.027344 1.550781 8.253906 5.824218 8.253906h42.058594c5.125 0 8.015625 5.867188 4.90625 9.925781zm0 0" fill="#ffa90b"/><g fill="#ffc14f"><path d="m312.816406 245.539062-38.492187 50.296876 7.34375-15.378907c1.949219-4.097656-1.035157-8.839843-5.578125-8.839843h-35.511719c-4.875 0-7.828125-5.390626-5.203125-9.511719l27.660156-43.234375-3.007812 8.488281c-1.425782 4.027344 1.550781 8.253906 5.824218 8.253906h42.058594c5.125 0 8.015625 5.867188 4.90625 9.925781zm0 0"/><path d="m183.828125 67.394531c-11.121094 0-20.140625-9.019531-20.140625-20.140625v-27.113281c0-11.125 9.019531-20.140625 20.140625-20.140625 11.125 0 20.140625 9.015625 20.140625 20.140625v27.113281c0 11.121094-9.015625 20.140625-20.140625 20.140625zm0 0"/><path d="m328.171875 67.394531c-11.125 0-20.140625-9.019531-20.140625-20.140625v-27.113281c0-11.125 9.015625-20.140625 20.140625-20.140625s20.140625 9.015625 20.140625 20.140625v27.113281c0 11.121094-9.019531 20.140625-20.140625 20.140625zm0 0"/><path d="m256 67.394531c-11.125 0-20.140625-9.019531-20.140625-20.140625v-27.113281c0-11.125 9.015625-20.140625 20.140625-20.140625s20.140625 9.015625 20.140625 20.140625v27.113281c0 11.121094-9.015625 20.140625-20.140625 20.140625zm0 0"/><path d="m61.671875 222.203125c-5.304687 9.777344-17.53125 13.398437-27.308594 8.09375l-23.828125-12.933594c-9.773437-5.308593-13.398437-17.535156-8.089844-27.3125 5.304688-9.773437 17.53125-13.398437 27.308594-8.089843l23.828125 12.933593c9.773438 5.308594 13.398438 17.535157 8.089844 27.308594zm0 0"/><path d="m130.535156 95.347656c-5.304687 9.773438-17.53125 13.398438-27.308594 8.089844l-23.828124-12.933594c-9.773438-5.304687-13.398438-17.535156-8.089844-27.308594 5.304687-9.777343 17.53125-13.398437 27.308594-8.09375l23.828124 12.933594c9.773438 5.308594 13.398438 17.535156 8.089844 27.3125zm0 0"/><path d="m96.105469 158.773438c-5.308594 9.777343-17.535157 13.402343-27.3125 8.09375l-23.828125-12.933594c-9.773438-5.308594-13.398438-17.535156-8.089844-27.308594 5.304688-9.777344 17.53125-13.398438 27.308594-8.09375l23.828125 12.933594c9.777343 5.308594 13.398437 17.535156 8.09375 27.308594zm0 0"/><path d="m450.328125 222.203125c5.304687 9.777344 17.535156 13.398437 27.308594 8.09375l23.828125-12.933594c9.777344-5.308593 13.398437-17.535156 8.09375-27.3125-5.308594-9.773437-17.535156-13.398437-27.3125-8.089843l-23.824219 12.933593c-9.777344 5.308594-13.402344 17.535157-8.09375 27.308594zm0 0"/><path d="m381.464844 95.347656c5.304687 9.773438 17.53125 13.398438 27.308594 8.089844l23.828124-12.933594c9.777344-5.304687 13.398438-17.535156 8.09375-27.308594-5.308593-9.777343-17.535156-13.398437-27.3125-8.09375l-23.828124 12.933594c-9.773438 5.308594-13.398438 17.535156-8.089844 27.3125zm0 0"/><path d="m415.894531 158.773438c5.308594 9.777343 17.535157 13.402343 27.3125 8.09375l23.824219-12.933594c9.777344-5.308594 13.402344-17.535156 8.09375-27.308594-5.304688-9.777344-17.53125-13.398438-27.308594-8.09375l-23.828125 12.933594c-9.777343 5.308594-13.398437 17.535156-8.09375 27.308594zm0 0"/><path d="m450.328125 289.054688c5.304687-9.777344 17.535156-13.398438 27.308594-8.09375l23.828125 12.933593c9.777344 5.308594 13.398437 17.535157 8.09375 27.3125-5.308594 9.773438-17.535156 13.398438-27.3125 8.089844l-23.824219-12.933594c-9.777344-5.308593-13.402344-17.535156-8.09375-27.308593zm0 0"/><path d="m381.464844 415.910156c5.304687-9.773437 17.53125-13.398437 27.308594-8.089844l23.828124 12.933594c9.777344 5.304688 13.398438 17.53125 8.09375 27.308594-5.308593 9.777344-17.535156 13.398438-27.3125 8.09375l-23.828124-12.9375c-9.773438-5.304688-13.398438-17.53125-8.089844-27.308594zm0 0"/><path d="m415.894531 352.480469c5.308594-9.773438 17.535157-13.398438 27.3125-8.089844l23.824219 12.933594c9.777344 5.308593 13.402344 17.535156 8.09375 27.308593-5.304688 9.777344-17.53125 13.398438-27.308594 8.09375l-23.828125-12.933593c-9.777343-5.308594-13.398437-17.535157-8.09375-27.3125zm0 0"/><path d="m61.671875 289.054688c-5.304687-9.777344-17.53125-13.398438-27.308594-8.09375l-23.828125 12.933593c-9.773437 5.308594-13.398437 17.535157-8.089844 27.3125 5.304688 9.773438 17.53125 13.398438 27.308594 8.089844l23.828125-12.933594c9.773438-5.308593 13.398438-17.535156 8.089844-27.308593zm0 0"/><path d="m130.535156 415.910156c-5.304687-9.773437-17.53125-13.398437-27.308594-8.089844l-23.828124 12.933594c-9.777344 5.304688-13.398438 17.53125-8.09375 27.308594 5.308593 9.777344 17.535156 13.398438 27.3125 8.09375l23.824218-12.9375c9.777344-5.304688 13.402344-17.53125 8.09375-27.308594zm0 0"/><path d="m96.105469 352.480469c-5.308594-9.773438-17.535157-13.398438-27.3125-8.089844l-23.828125 12.933594c-9.773438 5.308593-13.398438 17.535156-8.089844 27.308593 5.304688 9.777344 17.53125 13.398438 27.308594 8.09375l23.828125-12.933593c9.777343-5.308594 13.398437-17.535157 8.09375-27.3125zm0 0"/><path d="m183.828125 511.257812c-11.121094 0-20.140625-9.019531-20.140625-20.140624v-27.113282c0-11.125 9.019531-20.140625 20.140625-20.140625 11.125 0 20.140625 9.015625 20.140625 20.140625v27.113282c0 11.121093-9.015625 20.140624-20.140625 20.140624zm0 0"/><path d="m328.171875 511.257812c-11.125 0-20.140625-9.019531-20.140625-20.140624v-27.113282c0-11.125 9.015625-20.140625 20.140625-20.140625s20.140625 9.015625 20.140625 20.140625v27.113282c0 11.121093-9.019531 20.140624-20.140625 20.140624zm0 0"/><path d="m256 511.257812c-11.125 0-20.140625-9.019531-20.140625-20.140624v-27.113282c0-11.125 9.015625-20.140625 20.140625-20.140625s20.140625 9.015625 20.140625 20.140625v27.113282c0 11.121093-9.015625 20.140624-20.140625 20.140624zm0 0"/></g></svg>