<svg height="512pt" viewBox="0 -31 512.00105 512" width="512pt" xmlns="http://www.w3.org/2000/svg"><path d="m141.46875 450.625h229.0625c9.625 0 18.519531-5.136719 23.332031-13.472656l114.527344-198.371094c4.8125-8.332031 4.8125-18.601562 0-26.9375l-114.53125-198.371094c-4.8125-8.335937-13.703125-13.472656-23.328125-13.472656h-229.0625c-9.625 0-18.515625 5.136719-23.328125 13.472656l-114.53125 198.371094c-4.8125 8.332031-4.8125 18.601562 0 26.9375l114.53125 198.371094c4.8125 8.335937 13.703125 13.472656 23.328125 13.472656zm0 0" fill="#91aee2"/><path d="m469.3125 233.164062-99.855469 172.957032c-2.808593 4.859375-7.988281 7.851562-13.601562 7.851562h-199.710938c-5.613281 0-10.792969-2.992187-13.601562-7.851562l-99.855469-172.957032c-2.804688-4.855468-2.804688-10.847656 0-15.707031l99.855469-172.953125c2.808593-4.859375 7.988281-7.851562 13.601562-7.851562h199.710938c5.613281 0 10.792969 2.992187 13.601562 7.851562l99.855469 172.953125c2.804688 4.859375 2.804688 10.851563 0 15.707031zm0 0" fill="#2e5aac"/><path d="m469.3125 233.164062-99.855469 172.957032c-2.808593 4.859375-7.988281 7.851562-13.601562 7.851562h-149.449219c-5.609375 0-10.792969-2.992187-13.601562-7.851562l-99.851563-172.957032c-2.808594-4.855468-2.808594-10.847656 0-15.707031l99.851563-172.953125c2.808593-4.859375 7.992187-7.851562 13.601562-7.851562h149.449219c5.613281 0 10.792969 2.992187 13.601562 7.851562l99.855469 172.953125c2.804688 4.859375 2.804688 10.851563 0 15.707031zm0 0" fill="#4172cc"/><path d="m376.734375 248.863281-88.253906 77.214844-24.09375 21.089844c-4.804688 4.199219-11.96875 4.199219-16.773438 0l-112.347656-98.304688c-17.003906-14.878906-24.890625-34.796875-24.890625-54.460937 0-26.324219 14.136719-52.230469 39.457031-65.089844 4.566407-2.324219 9.496094-4.222656 14.773438-5.613281 43.867187-11.582031 87.132812 19.246093 91.34375 63.296875 0 .074218.101562.074218.101562 0 4.210938-44.050782 47.476563-74.878906 91.34375-63.296875 56.386719 14.910156 73.226563 86.753906 29.339844 125.164062zm0 0" fill="#f44545"/><path d="m376.734375 248.863281-88.253906 77.214844-109.015625-95.394531c-22.953125-20.082032-33.601563-46.953125-33.601563-73.496094 0-9.4375 1.351563-18.839844 3.96875-27.875 4.566407-2.324219 9.496094-4.222656 14.773438-5.613281 43.867187-11.582031 87.132812 19.246093 91.34375 63.296875 0 .074218.101562.074218.101562 0 4.210938-44.050782 47.476563-74.878906 91.34375-63.296875 56.386719 14.910156 73.226563 86.753906 29.339844 125.164062zm0 0" fill="#fb5858"/></svg>