<svg height="512pt" viewBox="0 -89 512 512" width="512pt" xmlns="http://www.w3.org/2000/svg"><path d="m512 7.527344v126.625c0 44.484375-15.8125 86.507812-43.050781 119.253906-25.3125 30.445312-60.492188 52.863281-102.011719 61.769531-9.902344 2.105469-20.488281.941407-30.089844-3.464843-16.582031-7.601563-36.011718-5.320313-50.382812 5.910156l-12.277344 9.53125c-10.753906 8.34375-25.789062 8.324218-36.519531-.054688l-12.132813-9.476562c-14.070312-11-33.460937-13.65625-50.382812-5.910156-15.398438 7.050781-27.808594 4.222656-37.191406 1.792968-81.53125-20.828125-137.960938-95.195312-137.960938-179.351562v-126.625c.0429688-7.050782 8.90625-10.222656 13.367188-4.75 3.367187 4.136718 6.863281 8.171875 10.480468 12.082031 51.679688 55.90625 128.503906 88.1875 229.519532 88.714844 91.597656-.179688 181.285156-26.808594 240.789062-95.445313 0 0 2.191406-2.542968 4.476562-5.351562 4.492188-5.488282 13.324219-2.289063 13.367188 4.75zm0 0" fill="#4172cc"/><path d="m512 7.527344v126.625c0 44.484375-15.8125 86.507812-43.050781 119.253906-21.941407 18.230469-48.425781 31.542969-78.164063 37.917969-9.902344 2.105469-20.488281.945312-30.089844-3.460938-16.578124-7.601562-36.011718-5.320312-50.382812 5.910157l-12.277344 9.527343c-10.75 8.347657-25.785156 8.328125-36.519531-.050781l-12.132813-9.476562c-14.070312-11-33.457031-13.65625-50.382812-5.910157-15.394531 7.050781-27.808594 4.21875-37.191406 1.792969-81.53125-20.832031-137.960938-95.199219-137.960938-179.351562v-95.445313c51.679688 55.90625 128.503906 88.1875 229.519532 88.714844 93.472656-.183594 186-28.078125 245.265624-100.796875 4.492188-5.488282 13.324219-2.289063 13.367188 4.75zm0 0" fill="#6990d7"/><g fill="#274c91"><path d="m512 7.527344v29.996094c-54.632812 63.605468-143.878906 100.570312-258.777344 100.789062-114.050781-.570312-198.847656-37.484375-253.222656-100.789062v-29.996094c.0429688-7.050782 8.90625-10.222656 13.367188-4.75 51.53125 63.3125 131.914062 100.226562 240 100.796875 108.894531-.21875 193.484374-37.183594 245.265624-100.796875 4.460938-5.472656 13.324219-2.300782 13.367188 4.75zm0 0"/><path d="m231.808594 192.625c-2.601563 3.710938-5.910156 8.34375-9.851563 13.46875-35.625 46.410156-122.019531 132.734375-189.179687-68.382812-1.941406-5.789063 4.675781-10.671876 9.632812-7.105469 8.273438 5.972656 19.566406 12.527343 33.316406 18.902343 36.558594 16.964844 90.46875 32.726563 150.960938 33.234376 5.070312.042968 8.035156 5.722656 5.121094 9.882812zm0 0"/><path d="m477.917969 137.710938c-12.226563 36.621093-25.09375 63.714843-38.191407 83.25-66.691406 99.605468-138.972656 2.851562-160.84375-28.335938-2.914062-4.160156.042969-9.839844 5.125-9.882812 12.078126-.105469 23.898438-.808594 35.367188-2.023438 67.542969-7.101562 123.019531-31.40625 148.910156-50.113281 4.945313-3.566407 11.5625 1.316406 9.632813 7.105469zm0 0"/></g><path d="m231.808594 192.625c-2.601563 3.710938-5.910156 8.34375-9.851563 13.46875-38.375 35.554688-95.902343 57.742188-146.230469-56.585938 36.558594 16.964844 90.46875 32.726563 150.960938 33.234376 5.070312.042968 8.035156 5.722656 5.121094 9.882812zm0 0" fill="#2e5aac"/><path d="m477.917969 137.710938c-12.226563 36.621093-25.09375 63.714843-38.191407 83.25-47.820312 36.8125-94.667968-8.078126-120.351562-40.242188 67.542969-7.101562 123.019531-31.40625 148.910156-50.113281 4.945313-3.566407 11.5625 1.316406 9.632813 7.105469zm0 0" fill="#2e5aac"/></svg>