<svg height="511pt" viewBox="-77 0 511 511.99949" width="511pt" xmlns="http://www.w3.org/2000/svg"><path d="m358.09375 277.019531-7.667969 81.351563c-8.210937 87.074218-81.308593 153.605468-168.769531 153.605468-14.660156 0-35.839844.875-63.902344-8.234374-25.757812-8.34375-48.835937-22.699219-67.546875-41.410157-30.675781-30.679687-49.652343-73.0625-49.652343-119.875-1.261719-42.636719 19.925781-122.15625 32.179687-163.15625.773437-2.554687 4.511719-2.132812 4.699219.53125 2.898437 44.300781 61.296875 49.871094 74.332031 10.917969 30.734375-91.75-.75-163.230469-6.253906-187.820312-.453125-2.011719 1.65625-3.617188 3.46875-2.632813 105.125 56.589844 135.808593 113.417969 144.257812 166.636719 2.398438 15.109375 23.90625 15.859375 27.320313.949218 3.578125-15.679687 2.484375-29.769531 1.246094-37.804687-.339844-2.257813 2.378906-3.671875 4.023437-2.089844 53.964844 51.554688 39.753906 122.308594 23.441406 165.144531-4.242187 11.136719 9.425781 20.464844 18.269531 12.464844 9.84375-8.90625 18.652344-18.953125 26.167969-29.882812 1.328125-1.933594 4.355469-1.027344 4.386719 1.304687zm0 0" fill="#d63030"/><path d="m358.09375 277.019531-7.667969 81.351563c-8.210937 87.074218-81.308593 153.605468-168.769531 153.605468-14.660156 0-35.839844.875-63.902344-8.234374-28.886718-31.496094-46.460937-73.117188-46.460937-118.769532-1.359375-44.726562 21.847656-108.328125 34.988281-151.34375.816406-2.683594 4.828125-2.242187 5.027344.542969.054687.71875.109375 1.425781.167968 2.121094 3.613282 43.289062 64.917969 30.710937 79.011719-10.464844 24.53125-71.691406 12.066407-131.601563 1.667969-168.164063 39 36.175782 55.269531 72.644532 61.082031 109.269532 2.398438 15.105468 23.90625 15.859375 27.320313.949218 3.582031-15.683593 2.484375-29.773437 1.25-37.808593-.34375-2.253907 2.375-3.667969 4.023437-2.089844 53.964844 51.558594 39.75 122.308594 23.4375 165.144531-4.242187 11.140625 9.429688 20.46875 18.269531 12.46875 9.847657-8.910156 18.65625-18.953125 26.167969-29.882812 1.328125-1.933594 4.355469-1.027344 4.386719 1.304687zm0 0" fill="#f44545"/><path d="m196.050781 218.957031c-5.695312-1.304687-11.371093-2.246093-17.003906-2.84375-71.113281-7.480469-135.488281 40.375-134.839844 104.394531.335938 32.074219 17.203125 66.324219 43.53125 90.707032 2.28125 2.101562 3.554688 5.089844 3.554688 8.195312v37.835938c0 6.207031 5.015625 11.253906 11.226562 11.277344 137.375.488281 129.585938.496093 130.65625.355468 5.570313-.699218 9.875-5.457031 9.84375-11.226562l-.15625-37.667969c-.011719-3.09375 1.234375-6.082031 3.5-8.195313 25.804688-24.195312 41.976563-58.328124 41.652344-90.382812-.828125-81.578125-91.789063-102.332031-91.964844-102.449219zm0 0" fill="#4b5055"/><path d="m196.050781 218.957031c-5.695312-1.304687-11.371093-2.246093-17.003906-2.84375-58.574219 6.210938-106.128906 49.324219-105.574219 104.394531.335938 32.074219 17.203125 66.324219 43.53125 90.707032 2.277344 2.101562 3.554688 5.089844 3.554688 8.195312v37.835938c0 6.207031 5.015625 11.253906 11.222656 11.277344.003906 0 101.394531.355468 101.394531.355468 5.570313-.699218 9.875-5.457031 9.84375-11.226562l-.15625-37.667969c-.011719-3.09375 1.234375-6.082031 3.5-8.195313 25.804688-24.195312 41.976563-58.328124 41.652344-90.382812-.828125-81.578125-91.789063-102.332031-91.964844-102.449219zm0 0" fill="#5a5f64"/><path d="m147.472656 417.90625v50.773438l-15.679687-.050782v-50.722656c0-4.328125 3.511719-7.839844 7.839843-7.839844 4.335938 0 7.839844 3.511719 7.839844 7.839844zm0 0" fill="#d2d2d7"/><path d="m200.429688 417.90625v50.960938l-15.679688-.0625v-50.898438c0-4.328125 3.515625-7.839844 7.839844-7.839844 4.328125 0 7.839844 3.511719 7.839844 7.839844zm0 0" fill="#d2d2d7"/><g fill="#ffa90b"><path d="m79.117188 286.402344c11.871093 14.363281 39.523437 43.136718 72.230468 45.5625 3.820313.28125 5.171875 5.1875 2.0625 7.421875-25.550781 18.371093-90.449218 55.347656-81.558594-50.695313.308594-3.679687 4.910157-5.136718 7.265626-2.289062zm0 0"/><path d="m253.113281 286.402344c-11.871093 14.363281-39.523437 43.136718-72.234375 45.5625-3.816406.28125-5.171875 5.1875-2.0625 7.421875 25.554688 18.371093 90.453125 55.347656 81.5625-50.695313-.3125-3.679687-4.914062-5.136718-7.265625-2.289062zm0 0"/></g></svg>