<svg height="512pt" viewBox="-182 0 512 512.00052" width="512pt" xmlns="http://www.w3.org/2000/svg"><path d="m38.207031 350.890625h72.125v150.738281h-72.125zm0 0" fill="#ea552d"/><path d="m71.398438 350.890625h38.933593v150.738281h-38.933593zm0 0" fill="#f76937"/><path d="m125.140625 85.914062v264.976563h-101.742187v-264.976563c0-.945312.238281-1.867187.703124-2.6875l45.417969-80.449218c2.085938-3.703125 7.414063-3.703125 9.5 0l15.816407 28.011718 29.601562 52.4375c.464844.820313.703125 1.746094.703125 2.6875zm0 0" fill="#d2d2d7"/><path d="m125.140625 85.914062v263.421876h-59.738281v-264.976563c0-.945313.238281-1.867187.703125-2.6875l28.730469-50.882813 29.601562 52.4375c.464844.820313.703125 1.746094.703125 2.6875zm0 0" fill="#ebebf0"/><path d="m135.460938 491.777344v3.109375c0 9.449219-7.664063 17.113281-17.113282 17.113281h-88.15625c-9.449218 0-17.113281-7.664062-17.113281-17.113281v-3.109375c0-9.449219 7.664063-17.113282 17.113281-17.113282h88.15625c9.449219 0 17.113282 7.664063 17.113282 17.113282zm0 0" fill="#ff8251"/><path d="m148.539062 338.011719v25.75c0 8.226562-6.667968 14.894531-14.894531 14.894531h-118.75c-8.226562 0-14.894531-6.667969-14.894531-14.894531v-25.75c0-8.226563 6.667969-14.894531 14.894531-14.894531h118.75c8.226563 0 14.894531 6.667968 14.894531 14.894531zm0 0" fill="#ff8251"/><g fill="#ffad8c"><path d="m135.460938 491.777344v2.59375h-71.042969c-9.449219 0-17.113281-7.667969-17.113281-17.113282v-2.59375h71.042968c9.449219 0 17.113282 7.664063 17.113282 17.113282zm0 0"/><path d="m148.539062 338.011719v23.011719h-99.421874c-8.222657 0-14.890626-6.667969-14.890626-14.890626v-23.015624h99.417969c8.226563 0 14.894531 6.667968 14.894531 14.894531zm0 0"/></g></svg>