<svg height="511pt" viewBox="-37 0 511 511.99986" width="511pt" xmlns="http://www.w3.org/2000/svg"><path d="m373.914062 199.5625-16.257812-43.660156-21.605469-58.035156s58.605469-27.582032 76.023438-92.554688c1.625-6.074219 10.050781-6.574219 12.28125-.695312 14.40625 37.886718 34.375 125.429687-50.441407 194.945312zm0 0" fill="#fb5858"/><path d="m102.707031 98.070312-21.796875 57.851563-16.5625 43.957031c-84.816406-69.515625-65.613281-157.851562-51.210937-195.746094 2.238281-5.875 10.636719-5.347656 12.28125.707032 17.417969 64.972656 77.289062 93.230468 77.289062 93.230468zm0 0" fill="#fb5858"/><path d="m357.65625 155.902344-21.605469-58.035156s58.605469-27.582032 76.023438-92.554688c.472656-1.769531 1.527343-3.066406 2.847656-3.878906 7.359375 43 2.632813 103.296875-57.265625 154.46875zm0 0" fill="#fc7979"/><path d="m102.707031 98.070312-21.796875 57.851563c-59.414062-50.96875-64.664062-111.332031-57.632812-154.445313.980468.800782 1.75 1.929688 2.140625 3.363282 17.417969 64.972656 77.289062 93.230468 77.289062 93.230468zm0 0" fill="#fc7979"/><path d="m374.855469 199.089844v290.175781c0 12.558594-10.175781 22.734375-22.734375 22.734375h-265.484375c-12.566407 0-22.742188-10.175781-22.742188-22.734375v-290.175781c0-93.988282 82.824219-166.550782 176.039063-154.132813 34.710937 4.589844 65.816406 20.613281 89.382812 44.191407 28.128906 28.140624 45.539063 67.007812 45.539063 109.941406zm0 0" fill="#c42d2d"/><path d="m374.855469 199.089844v290.175781c0 12.558594-10.175781 22.734375-22.734375 22.734375h-224.363282c-12.566406 0-22.742187-10.175781-22.742187-22.734375v-290.175781c0-78.898438 58.769531-144.070313 134.917969-154.132813 34.710937 4.589844 65.816406 20.613281 89.382812 44.191407 28.128906 28.140624 45.539063 67.007812 45.539063 109.941406zm0 0" fill="#d63030"/><path d="m203.347656 209.539062c-31.136718 22.382813-109.023437 66.890626-102.507812-53.910156.15625-3.027344.367187-6.167968.644531-9.40625.386719-4.597656 6.132813-6.421875 9.066406-2.859375 12.578125 15.207031 39.308594 43.347657 72.046875 53.40625 5.882813 1.8125 11.957032 3.035157 18.175782 3.5 4.765624.347657 6.464843 6.484375 2.574218 9.269531zm0 0" fill="#ffb52d"/><path d="m235.085938 209.539062c-3.894532-2.785156-2.195313-8.921874 2.570312-9.269531 6.222656-.464843 12.292969-1.6875 18.179688-3.5 32.738281-10.058593 59.464843-38.199219 72.042968-53.40625 2.933594-3.5625 8.679688-1.738281 9.070313 2.859375.273437 3.238282.484375 6.378906.640625 9.40625 6.519531 120.800782-71.371094 76.292969-102.503906 53.910156zm0 0" fill="#ffb52d"/><path d="m182.597656 196.769531c-32.328125 17.902344-77.191406 29.34375-81.757812-41.140625.15625-3.027344.367187-6.167968.644531-9.40625.386719-4.597656 6.132813-6.421875 9.066406-2.859375 12.578125 15.207031 39.308594 43.347657 72.046875 53.40625zm0 0" fill="#ffca68"/><path d="m337.589844 155.628906c-4.5625 70.484375-49.429688 59.042969-81.753906 41.140625 32.738281-10.058593 59.464843-38.199219 72.042968-53.40625 2.933594-3.5625 8.679688-1.738281 9.070313 2.859375.273437 3.238282.484375 6.378906.640625 9.40625zm0 0" fill="#ffca68"/><path d="m299.285156 281.816406v103.574219c0 36.585937-29.660156 66.246094-66.234375 66.246094h-27.667969c-36.578124 0-66.238281-29.660157-66.238281-66.246094v-103.574219c0-2.214844 1.792969-4.015625 4.007813-4.015625h152.125c2.214844 0 4.007812 1.800781 4.007812 4.015625zm0 0" fill="#af2727"/><g fill="#ffb52d"><path d="m198.632812 277.800781-17.355468 56.554688c-.789063 2.5625-4.183594 2.5625-4.964844 0l-17.367188-56.554688zm0 0"/><path d="m279.484375 277.800781-17.367187 56.554688c-.78125 2.5625-4.175782 2.5625-4.964844 0l-17.355469-56.554688zm0 0"/></g></svg>