<svg height="511pt" viewBox="-53 0 511 511.99956" width="511pt" xmlns="http://www.w3.org/2000/svg"><path d="m49.703125 51.332031c-2.582031-3.472656-7.488281-4.195312-10.957031-1.613281-3.472656 2.578125-4.195313 7.484375-1.613282 10.957031l77.898438 104.980469c1.539062 2.066406 3.898438 3.160156 6.292969 3.160156 1.625 0 3.261719-.503906 4.664062-1.546875 3.472657-2.582031 4.195313-7.484375 1.613281-10.957031zm0 0" fill="#bacbec"/><path d="m366.828125 49.71875c-3.46875-2.582031-8.378906-1.859375-10.957031 1.613281l-77.941406 105.382813c-2.578126 3.472656-1.855469 8.378906 1.613281 10.957031 1.40625 1.042969 3.042969 1.546875 4.667969 1.546875 2.390624 0 4.753906-1.089844 6.289062-3.160156l77.941406-105.382813c2.582032-3.472656 1.859375-8.378906-1.613281-10.957031zm0 0" fill="#bacbec"/><path d="m382.675781 308.28125v100.234375c0 56.910156-46.5625 103.484375-103.484375 103.484375h-152.089844c-56.921874 0-103.484374-46.574219-103.484374-103.484375v-100.234375c0-95.640625 79.164062-183.734375 197.808593-174.417969 89.886719 7.050781 161.25 82.808594 161.25 174.417969zm0 0" fill="#2e5aac"/><path d="m382.675781 308.28125v100.234375c0 56.910156-46.5625 103.484375-103.484375 103.484375h-115.542968c-56.917969 0-103.480469-46.574219-103.480469-103.484375v-100.234375c0-91.609375 71.359375-167.367188 161.257812-174.417969 89.886719 7.050781 161.25 82.808594 161.25 174.417969zm0 0" fill="#4172cc"/><path d="m265.011719 434.808594v1.757812c0 17.9375-14.292969 32.703125-32.058594 33.464844-.480469.023438-.960937.03125-1.441406.03125h-58.601563c-.480468 0-.96875-.007812-1.441406-.03125-17.761719-.761719-32.054688-15.527344-32.054688-33.464844v-1.757812c0-17.949219 14.292969-32.703125 32.054688-33.464844.472656-.023438.960938-.03125 1.441406-.03125h58.601563c.480469 0 .960937.007812 1.441406.03125 17.765625.761719 32.058594 15.515625 32.058594 33.464844zm0 0" fill="#91aee2"/><path d="m187.132812 401.3125v68.75h-14.222656c-.480468 0-.96875-.007812-1.441406-.03125v-68.6875c.472656-.023438.960938-.03125 1.441406-.03125zm0 0" fill="#bacbec"/><path d="m232.953125 401.34375v68.6875c-.480469.023438-.960937.03125-1.441406.03125h-14.21875v-68.75h14.21875c.480469 0 .960937.007812 1.441406.03125zm0 0" fill="#bacbec"/><path d="m331.894531 309.222656c0 6.296875-1.117187 12.351563-3.152343 17.949219-1.621094 4.457031-3.824219 8.644531-6.539063 12.445313-1.710937 2.425781-3.621094 4.679687-5.710937 6.769531-9.503907 9.511719-22.648438 15.390625-37.152344 15.390625h-152.382813c-22.722656 0-42.074219-14.421875-49.402343-34.605469-2.039063-5.597656-3.15625-11.652344-3.15625-17.949219 0-6.308594 1.117187-12.355468 3.15625-17.953125 2.640624-7.296875 6.871093-13.835937 12.246093-19.210937 6.902344-6.914063 15.738281-11.914063 25.617188-14.128906 3.714843-.835938 7.578125-1.273438 11.539062-1.273438h152.382813c22.722656 0 42.070312 14.429688 49.402344 34.613281 2.035156 5.597657 3.152343 11.644531 3.152343 17.953125zm0 0" fill="#6990d7"/><path d="m331.894531 309.222656c0 6.296875-1.117187 12.351563-3.152343 17.949219-1.621094 4.457031-3.824219 8.644531-6.539063 12.445313-3.714844.835937-7.570313 1.277343-11.539063 1.277343h-152.382812c-22.722656 0-42.070312-14.421875-49.402344-34.605469-2.035156-5.597656-3.152344-11.65625-3.152344-17.953124 0-6.304688 1.117188-12.351563 3.152344-17.949219 1.621094-4.46875 3.832032-8.65625 6.539063-12.457031 3.714843-.835938 7.578125-1.273438 11.539062-1.273438h152.382813c22.722656 0 42.070312 14.429688 49.402344 34.613281 2.035156 5.597657 3.152343 11.644531 3.152343 17.953125zm0 0" fill="#91aee2"/><path d="m331.894531 309.21875c0 6.300781-1.113281 12.355469-3.148437 17.949219h-251.195313c-2.035156-5.59375-3.148437-11.648438-3.148437-17.949219s1.113281-12.355469 3.148437-17.949219h251.195313c2.035156 5.59375 3.148437 11.648438 3.148437 17.949219zm0 0" fill="#dd3f95"/><path d="m59.65625 29.609375c0 9.910156-4.878906 18.679687-12.355469 24.039063-19.363281 13.90625-46.800781.144531-46.800781-24.039063 0-19.929687 19.355469-34.214844 38.46875-28.226563 11.988281 3.78125 20.6875 14.984376 20.6875 28.226563zm0 0" fill="#2e5aac"/><path d="m405.074219 29.609375c0 9.910156-4.875 18.679687-12.351563 24.039063-19.257812 13.859374-46.804687.238281-46.804687-24.039063 0-20.042969 19.515625-34.210937 38.460937-28.226563 11.996094 3.769532 20.695313 14.976563 20.695313 28.226563zm0 0" fill="#2e5aac"/><path d="m59.65625 29.609375c0 9.910156-4.878906 18.679687-12.355469 24.039063-23.265625-7.308594-28.097656-38.121094-8.332031-52.265626 11.988281 3.78125 20.6875 14.984376 20.6875 28.226563zm0 0" fill="#4172cc"/><path d="m405.074219 29.609375c0 9.910156-4.875 18.679687-12.351563 24.039063-12-3.769532-20.699218-14.976563-20.699218-28.214844 0-9.910156 4.878906-18.691406 12.355468-24.050782 11.996094 3.769532 20.695313 14.976563 20.695313 28.226563zm0 0" fill="#4172cc"/><path d="m108.878906 306.289062c-1.722656-4.722656-2.777344-9.777343-3.070312-15.019531h-28.253906c-2.039063 5.597657-3.15625 11.644531-3.15625 17.953125 0 6.296875 1.117187 12.351563 3.15625 17.949219h45.328124c-6.222656-5.671875-11.070312-12.8125-14.003906-20.882813zm0 0" fill="#a91e6a"/></svg>