<svg height="512pt" viewBox="0 -9 512.0004 512" width="512pt" xmlns="http://www.w3.org/2000/svg"><path d="m476.976562 179.585938c-122.953124 107.550781-106.128906 92.839843-158.082031 138.316406-6.757812 5.910156-16.835937 5.910156-23.601562 0-152.855469-133.746094-35.574219-31.128906-158.074219-138.316406-48.503906-42.449219-44.347656-114.109376-1.550781-153.027344 62.09375-56.433594 163.371093-17.546875 171.351562 65.976562 0 .105469.148438.105469.148438 0 4.410156-46.261718 39.441406-82.15625 82.597656-90.613281 14.660156-2.878906 30.269531-2.585937 45.921875 1.554687 79.339844 20.980469 103.03125 122.0625 41.289062 176.109376zm0 0" fill="#4172cc"/><g fill="#1ab975"><path d="m476.976562 179.585938-77.585937 67.867187-5.160156-2.511719c-3.28125-1.066406-5.785157-3.644531-8.148438-6.113281-26.40625-27.664063-18.144531-36.730469-15.070312-50.4375 2.796875-12.464844-.234375-26.070313-8.066407-36.234375-4.800781-6.226562-9.707031-10.535156 1.542969-26.039062 8.90625-12.273438 17.785157-26.753907 14.480469-41.488282-3.3125-14.820312-18.535156-27.292968-15.03125-42.070312 1.308594-5.488282 3.019531-7.21875 25.121094-39.96875l.707031-.667969c14.660156-2.878906 30.269531-2.585937 45.921875 1.554687 79.339844 20.980469 103.03125 122.0625 41.289062 176.109376zm0 0"/><path d="m197.410156 232.242188v.011718l-60.191406-52.667968c-48.503906-42.449219-44.347656-114.109376-1.550781-153.027344l2.394531-.128906c12.5625 2.703124 20.847656 15.390624 23.0625 28.042968 4.316406 24.71875-9.59375 53.324219 4.167969 75.804688 7.261719 11.863281 21.679687 19.734375 24.054687 33.433594 1.371094 7.960937-1.792968 15.917968-2.945312 23.917968-1.792969 12.539063 3.355468 34.511719 11.007812 44.613282zm0 0"/><path d="m346.671875 293.585938-27.777344 24.316406c-6.757812 5.910156-16.835937 5.910156-23.601562 0l-85.34375-74.671875 1.902343-2.628907c16.484376-11.167968 34.710938-22.828124 54.554688-21.160156 17.222656 1.445313 8.378906 17.59375 14.734375 26.214844 6.574219 8.941406 20.800781 3.292969 29.5 8.390625 7.914063 4.644531 26.480469 36.71875 34.40625 35.0625zm0 0"/><path d="m246.902344 68.886719c.492187 4.628906-.539063 9.523437 1.222656 13.832031 3.792969 9.289062 18.003906 10.613281 21.785156 19.902344 1.707032 4.191406.710938 9.148437-1.792968 12.917968-5.523438 8.304688-21.945313 15.617188-30.007813 8.152344-4.570313-4.234375-4-11.082031-8.390625-15.277344-5.910156-5.65625-21-7.589843-26.558594-13.332031-3.507812-3.628906-4.039062-9.363281-2.621094-14.207031 2.457032-8.386719 11.804688-20.933594 18.34375-26.867188 10.402344-9.394531 26.550782 1.050782 28.019532 14.878907zm0 0"/></g><path d="m445.835938 390.25-181.347657 91.949219c-24.367187 15.503906-55.363281 15.234375-79.339843-.207031-11.253907-7.257813-14.789063-7.960938-73.980469-37.222657-23.738281-11.613281-63.375-19.480469-99.589844-23.78125-6.605469-.78125-11.578125-6.382812-11.578125-13.035156v-85.425781c0-7.25 5.878906-13.128906 13.128906-13.128906h138.242188c8.03125 0 15.738281 3.191406 21.417968 8.871093l58.273438 58.257813c5.324219 5.324218 7.960938 12.429687 7.765625 19.460937l1.246094-.855469 190.085937-47.855468c25.1875-3.183594 36.46875 29.773437 15.675782 42.972656zm0 0" fill="#f2bb88"/><path d="m231.789062 412.941406c-10 10.335938-26.441406 10.492188-36.640624.320313l-48.4375-48.449219c-2.585938-2.585938-6.089844-4.039062-9.75-4.039062h-136.960938v-38.242188c0-7.253906 5.878906-13.128906 13.128906-13.128906h138.242188c8.039062 0 15.75 3.191406 21.433594 8.875l58.257812 58.25c9.886719 9.882812 10.59375 26.203125.726562 36.414062zm0 0" fill="#f2d1a5"/><path d="m329.226562 300.835938c-170.527343-149.207032-39.6875-34.734376-176.34375-154.316407-28.476562-24.910156-40.675781-58.851562-38.894531-91.738281-20.546875 39.453125-15.113281 91.253906 23.230469 124.804688 122.507812 107.191406 5.214844 4.570312 158.074219 138.316406 6.765625 5.910156 16.84375 5.910156 23.601562 0 6.035157-5.289063 11.15625-9.761719 15.660157-13.710938-1.898438-.8125-3.703126-1.929687-5.328126-3.355468zm0 0" fill="#2e5aac"/><path d="m186.402344 187.628906c.476562-3.34375 1.308594-6.679687 2.015625-10.015625-9.214844-8.0625-20.824219-18.226562-35.535157-31.09375-28.476562-24.910156-40.675781-58.851562-38.894531-91.738281-20.546875 39.453125-15.113281 91.253906 23.230469 124.804688l60.191406 52.667968v-.011718c-7.652344-10.101563-12.800781-32.074219-11.007812-44.613282zm0 0" fill="#169b62"/><path d="m329.226562 300.835938c-51.972656-45.480469-75.949218-66.460938-88.046874-77.035157-10.3125 4.136719-20.09375 10.542969-29.328126 16.800781l-1.902343 2.628907 85.34375 74.671875c6.765625 5.910156 16.84375 5.910156 23.601562 0l15.660157-13.710938c-1.898438-.8125-3.703126-1.929687-5.328126-3.355468zm0 0" fill="#169b62"/></svg>