<svg height="511pt" viewBox="-27 0 511 511.99999" width="511pt" xmlns="http://www.w3.org/2000/svg"><path d="m434.425781 189.382812-5.25 55.621094c-5.367187 56.917969-51.300781 101.007813-107.609375 104.742188-2.5625.179687-5.152344.261718-7.769531.261718h-7.914063c-32 0-60.976562-12.964843-81.941406-33.941406-20.976562-20.972656-33.953125-49.941406-33.953125-81.949218-.863281-29.144532 13.621094-83.503907 22.011719-111.53125.515625-1.75 3.078125-1.464844 3.203125.347656 2.074219 30.449218 41.945313 33.984375 50.816406 7.472656 21.015625-62.726562-.515625-111.589844-4.28125-128.402344-.304687-1.382812 1.140625-2.46875 2.382813-1.804687 29.894531 16.085937 51.175781 32.285156 66.183594 48.5625 20.015624 21.660156 28.957031 43.46875 32.433593 65.359375 1.632813 10.332031 16.335938 10.847656 18.667969.65625 2.457031-10.722656 1.707031-20.355469.863281-25.847656-.242187-1.546876 1.625-2.519532 2.75-1.433594 36.894531 35.25 27.175781 83.617187 16.023438 112.898437-2.910157 7.621094 6.441406 14 12.488281 8.527344 6.726562-6.089844 12.753906-12.953125 17.890625-20.4375.90625-1.316406 2.980469-.695313 3.003906.898437zm0 0" fill="#d63030"/><path d="m434.425781 189.382812-5.25 55.621094c-5.367187 56.917969-51.300781 101.007813-107.609375 104.742188-14.777344-5.871094-28.070312-14.707032-39.125-25.773438-20.976562-20.976562-33.953125-49.941406-33.953125-81.953125-.863281-29.144531 13.621094-83.5 22-111.527343.527344-1.75 3.085938-1.464844 3.214844.347656 2.066406 30.363281 41.914063 34.039062 50.816406 7.472656 11.835938-35.332031 10.171875-66.269531 5.785157-89.550781 20.015624 21.660156 28.957031 43.46875 32.433593 65.359375 1.632813 10.332031 16.335938 10.847656 18.667969.65625 2.457031-10.722656 1.707031-20.355469.863281-25.847656-.242187-1.546876 1.625-2.519532 2.75-1.433594 36.894531 35.25 27.175781 83.617187 16.023438 112.898437-2.910157 7.621094 6.441406 14 12.488281 8.527344 6.726562-6.089844 12.753906-12.953125 17.890625-20.4375.90625-1.316406 2.980469-.695313 3.003906.898437zm0 0" fill="#f44545"/><path d="m445.746094 408.683594-181.105469 91.828125c-24.335937 15.484375-55.289063 15.214843-79.234375-.207031-11.242188-7.246094-14.773438-7.949219-73.882812-37.171876-23.707032-11.601562-63.296876-19.457031-99.460938-23.75-6.597656-.78125-11.5625-6.375-11.5625-13.019531v-85.3125c0-7.242187 5.871094-13.113281 13.113281-13.113281h138.054688c8.023437 0 15.722656 3.1875 21.394531 8.863281l58.195312 58.179688c5.316407 5.316406 7.949219 12.414062 7.753907 19.433593l1.242187-.851562 189.839844-47.792969c25.15625-3.179687 36.421875 29.734375 15.652344 42.914063zm0 0" fill="#f2bb88"/><path d="m231.984375 431.34375c-9.984375 10.324219-26.410156 10.480469-36.59375.320312l-48.371094-48.382812c-2.582031-2.582031-6.085937-4.035156-9.738281-4.035156h-136.78125v-38.191406c0-7.242188 5.871094-13.113282 13.113281-13.113282h138.058594c8.027344 0 15.726563 3.1875 21.402344 8.863282l58.183593 58.171874c9.871094 9.871094 10.578126 26.171876.726563 36.367188zm0 0" fill="#f2d1a5"/></svg>