<svg height="512pt" viewBox="0 -31 512.00005 512" width="512pt" xmlns="http://www.w3.org/2000/svg"><path d="m387.730469 290.390625c-20.027344 47.808594-63.015625 78.992187-110.78125 86.113281-24.933594 3.738282-51.167969.90625-76.113281-9.550781-72.753907-30.476563-107.035157-114.152344-76.5625-186.894531 25.796874-61.570313 89.695312-95.59375 152.8125-86.113282 11.472656 1.710938 22.902343 4.867188 34.082031 9.550782 72.753906 30.480468 107.03125 114.152344 76.5625 186.894531zm0 0" fill="#f76937"/><path d="m387.730469 290.390625c-20.027344 47.808594-63.015625 78.992187-110.78125 86.113281-11.460938-1.710937-22.898438-4.867187-34.082031-9.550781-72.742188-30.476563-107.019532-114.152344-76.550782-186.894531 20.015625-47.796875 63.003906-78.980469 110.769532-86.113282 11.472656 1.710938 22.902343 4.867188 34.082031 9.550782 72.753906 30.480468 107.03125 114.152344 76.5625 186.894531zm0 0" fill="#ff7c48"/><path d="m511.878906 266.664062c-9.890625-33.738281-32.417968-63.839843-65.503906-82.558593-18.386719-10.402344-38.058594-16.230469-57.726562-17.84375-5.984376-.492188-9.671876-6.742188-7.25-12.238281 7.609374-17.269532 11.839843-36.367188 11.839843-56.449219 0-37.503907-14.730469-71.570313-38.722656-96.722657-2.199219-2.308593-5.878906.53125-4.183594 3.230469 11.066407 17.640625 17.464844 38.511719 17.464844 60.875 0 63.914063-52.257813 115.621094-116.378906 114.71875-62.578125-.878906-113.300781-52.554687-113.078125-115.136719.082031-22.1875 6.457031-42.890624 17.441406-60.414062 1.707031-2.726562-1.949219-5.59375-4.171875-3.265625-24.25 25.433594-39.035156 59.972656-38.703125 97.964844.183594 21.128906 4.972656 41.074219 13.40625 58.914062 2.566406 5.425781-1 11.75-6.96875 12.398438-18.761719 2.042969-37.414062 7.929687-54.808594 17.96875-32.484375 18.757812-54.621094 48.554687-64.410156 81.910156-.894531 3.050781 3.410156 4.804687 4.898438 1.996094 9.746093-18.40625 24.617187-34.382813 43.988281-45.566407 55.351562-31.957031 126.257812-12.550781 157.539062 43.433594 30.523438 54.632813 11.136719 124.394532-43.175781 155.492188-19.269531 11.03125-40.402344 15.859375-61.082031 15.105468-3.199219-.121093-3.867188 4.472657-.757813 5.230469 34.164063 8.304688 71.496094 3.84375 104.25-15.449219 18.203125-10.722656 33.085938-24.84375 44.320313-41.070312 3.414062-4.933594 10.671875-5.007812 14.21875-.160156 11.152343 15.226562 25.574219 28.4375 42.96875 38.480468 32.484375 18.753907 69.359375 23.027344 103.140625 14.824219 3.089844-.75 2.457031-5.355469-.71875-5.238281-20.8125.761719-42.085938-4.128906-61.457032-15.3125-55.351562-31.957031-73.996093-103.066406-41.15625-158.144531 31.8125-53.359375 99.441407-71.703125 153.847657-41.71875 20.363281 11.21875 35.9375 27.664062 46.023437 46.707031 1.496094 2.828125 5.804688 1.113281 4.90625-1.960938zm0 0" fill="#5a5f64"/><path d="m286.753906 235.226562c0 16.984376-13.769531 30.753907-30.753906 30.753907s-30.753906-13.769531-30.753906-30.753907c0-16.984374 13.769531-30.753906 30.753906-30.753906s30.753906 13.769532 30.753906 30.753906zm0 0" fill="#ff7c48"/><g fill="#4b5055"><path d="m155.789062 222.257812c1.289063-14.167968 4.746094-28.382812 10.527344-42.199218 3.945313-9.425782 8.78125-18.199219 14.378906-26.277344-25.921874-21.1875-42.480468-53.429688-42.355468-89.246094.082031-22.1875 6.457031-42.886718 17.4375-60.410156 1.714844-2.730469-1.949219-5.59375-4.171875-3.269531-24.238281 25.433593-39.035157 59.972656-38.703125 97.96875.1875 21.125 4.972656 41.070312 13.414062 58.914062 2.566406 5.429688-1.007812 11.742188-6.976562 12.394531-18.757813 2.046876-37.414063 7.933594-54.800782 17.972657-32.496093 18.757812-54.628906 48.550781-64.417968 81.90625-.894532 3.054687 3.414062 4.808593 4.898437 1.996093 9.75-18.40625 24.617188-34.382812 43.988281-45.566406 33.988282-19.621094 73.839844-19.878906 106.78125-4.183594zm0 0"/><path d="m409.707031 437.089844c-20.8125.769531-42.085937-4.128906-61.445312-15.3125-21.3125-12.300782-37.1875-30.414063-46.769531-51.179688-7.972657 2.679688-16.183594 4.664063-24.542969 5.90625-11.460938-1.710937-22.898438-4.867187-34.082031-9.550781-9.03125-3.789063-17.460938-8.386719-25.257813-13.703125-7.285156 29.441406-26.054687 55.988281-54.242187 72.121094-19.265626 11.035156-40.394532 15.863281-61.074219 15.105468-3.207031-.125-3.871094 4.472657-.757813 5.230469 34.167969 8.304688 71.488282 3.84375 104.25-15.445312 18.199219-10.726563 33.085938-24.855469 44.320313-41.070313 3.414062-4.941406 10.671875-5.015625 14.222656-.164062 11.148437 15.226562 25.566406 28.433594 42.96875 38.480468 32.480469 18.75 69.355469 23.027344 103.136719 14.828126 3.085937-.757813 2.453125-5.359376-.726563-5.246094zm0 0"/></g></svg>