<svg height="512pt" viewBox="-58 0 512 512" width="512pt" xmlns="http://www.w3.org/2000/svg"><path d="m257.101562 28.578125v40.105469h-118.925781v-40.105469c0-14.613281 10.949219-26.640625 25.09375-28.359375 1.144531-.1445312 2.308594-.21875 3.484375-.21875h61.773438c15.785156 0 28.574218 12.789062 28.574218 28.578125zm0 0" fill="#ffa90b"/><path d="m336.515625 502.65625c-6.089844 6.023438-14.339844 9.34375-22.90625 9.34375h-231.949219c-8.523437 0-16.746094-3.277344-22.8125-9.25-36.328125-35.839844-58.847656-85.65625-58.847656-140.71875 0-85.253906 53.988281-157.890625 129.625-185.609375 7.675781-2.8125 12.820312-10.066406 12.820312-18.238281v-62.871094h110.390626v62.964844c0 8.117187 5.054687 15.378906 12.671874 18.179687 73.582032 27.074219 127.207032 96.792969 129.679688 179.527344 1.714844 57.414063-21.074219 109.53125-58.671875 146.671875zm0 0" fill="#169b62"/><path d="m336.515625 502.65625c-6.089844 6.023438-14.339844 9.34375-22.90625 9.34375h-177.835937c-8.523438 0-16.742188-3.277344-22.8125-9.25-36.328126-35.839844-58.847657-85.65625-58.847657-140.71875 0-85.253906 53.988281-157.890625 129.628907-185.609375 7.671874-2.8125 12.816406-10.066406 12.816406-18.238281v-62.871094h56.277344v62.964844c0 8.117187 5.054687 15.378906 12.671874 18.179687 73.582032 27.074219 127.207032 96.792969 129.679688 179.527344 1.714844 57.414063-21.074219 109.53125-58.671875 146.671875zm0 0" fill="#1ab975"/><path d="m227.492188 219.015625c-5.671876-1.300781-11.320313-2.238281-16.929688-2.832031-70.804688-7.449219-134.898438 40.203125-134.253906 103.941406.332031 31.9375 17.128906 66.039062 43.34375 90.316406 2.265625 2.09375 3.535156 5.070313 3.535156 8.160156v37.671876c0 6.179687 4.996094 11.207031 11.179688 11.226562 137.6875.492188 129.050781.492188 130.089843.355469 5.546875-.695313 9.835938-5.433594 9.804688-11.175781l-.15625-37.503907c-.011719-3.082031 1.226562-6.058593 3.484375-8.160156 25.695312-24.089844 41.792968-58.078125 41.46875-89.996094-.820313-81.222656-91.386719-101.890625-91.566406-102.003906zm0 0" fill="#4b5055"/><path d="m227.492188 219.015625c-5.671876-1.300781-11.320313-2.238281-16.929688-2.832031-58.320312 6.183594-105.667969 49.109375-105.117188 103.941406.332032 31.9375 17.128907 66.039062 43.34375 90.316406 2.269532 2.09375 3.539063 5.070313 3.539063 8.160156v37.671876c0 6.179687 4.996094 11.207031 11.175781 11.226562.003906 0 100.953125.355469 100.953125.355469 5.546875-.695313 9.835938-5.433594 9.804688-11.175781l-.15625-37.503907c-.011719-3.082031 1.226562-6.058593 3.484375-8.160156 25.695312-24.089844 41.792968-58.078125 41.46875-89.996094-.820313-81.222656-91.386719-101.890625-91.566406-102.003906zm0 0" fill="#5a5f64"/><path d="m179.125 417.101562v50.554688l-15.609375-.050781v-50.503907c0-4.308593 3.496094-7.804687 7.804687-7.804687 4.316407 0 7.804688 3.496094 7.804688 7.804687zm0 0" fill="#d2d2d7"/><path d="m231.855469 417.101562v50.742188l-15.613281-.0625v-50.679688c0-4.308593 3.5-7.804687 7.808593-7.804687 4.304688 0 7.804688 3.496094 7.804688 7.804687zm0 0" fill="#d2d2d7"/><path d="m111.066406 286.167969c11.816406 14.300781 39.351563 42.953125 71.917969 45.363281 3.800781.285156 5.148437 5.167969 2.054687 7.394531-25.441406 18.289063-90.0625 55.105469-81.207031-50.476562.308594-3.664063 4.890625-5.117188 7.234375-2.28125zm0 0" fill="#ffa90b"/><path d="m284.308594 286.167969c-11.820313 14.300781-39.351563 42.953125-71.921875 45.363281-3.800781.285156-5.148438 5.167969-2.050781 7.394531 25.441406 18.289063 90.058593 55.105469 81.207031-50.476562-.308594-3.664063-4.890625-5.117188-7.234375-2.28125zm0 0" fill="#ffa90b"/><path d="m275.34375 56.796875v58.277344c0 2.882812-2.320312 5.203125-5.203125 5.203125h-145.003906c-2.882813 0-5.203125-2.320313-5.203125-5.203125v-58.277344c0-2.871094 2.320312-5.203125 5.203125-5.203125h145.003906c2.882813 0 5.203125 2.332031 5.203125 5.203125zm0 0" fill="#4b5055"/><path d="m257.101562 28.578125v19.8125h-94.988281v-40.105469c0-2.800781.40625-5.507812 1.15625-8.066406 1.144531-.1445312 2.308594-.21875 3.484375-.21875h61.773438c15.785156 0 28.574218 12.789062 28.574218 28.578125zm0 0" fill="#ffb52d"/><path d="m275.34375 56.796875v43.1875h-126.269531c-2.882813 0-5.203125-2.320313-5.203125-5.203125v-43.1875h126.269531c2.882813 0 5.203125 2.332031 5.203125 5.203125zm0 0" fill="#5a5f64"/></svg>