<svg height="512pt" viewBox="0 -16 512.00029 512" width="512pt" xmlns="http://www.w3.org/2000/svg"><path d="m281.699219 181.113281c1.726562.910157 2.3125 3.117188 1.265625 4.765625-8.300782 13.082032-13.117188 28.585938-13.117188 45.222656 0 14.460938 3.644532 28.070313 10.046875 39.972657.875 1.625.308594 3.625-1.28125 4.5625-22.351562 13.175781-37.355469 37.488281-37.355469 65.3125 0 4.210937.351563 8.335937 1.019532 12.355469.375 2.253906-1.511719 4.222656-3.777344 3.933593-19.898438-2.542969-39.90625 2.863281-55.804688 15.132813-1.21875.9375-2.910156.9375-4.128906 0-12.792968-9.871094-28.828125-15.746094-46.242187-15.746094-3.238281 0-6.429688.210938-9.558594.613281-2.269531.289063-4.15625-1.679687-3.78125-3.933593.667969-4.019532 1.023437-8.144532 1.023437-12.355469 0-29.085938-16.398437-54.332031-40.445312-67.03125-1.726562-.914063-2.3125-3.121094-1.265625-4.769531 16.085937-25.347657 17.707031-57.988282 3.070313-85.195313-.871094-1.621094-.304688-3.625 1.28125-4.5625 22.355468-13.175781 37.359374-37.488281 37.359374-65.3125 0-4.207031-.355468-8.335937-1.023437-12.355469-.371094-2.253906 1.511719-4.21875 3.78125-3.929687 3.128906.398437 6.320313.609375 9.558594.609375 17.414062 0 33.449219-5.871094 46.242187-15.742188 1.21875-.941406 2.910156-.941406 4.128906 0 15.882813 12.253906 35.886719 17.675782 55.804688 15.132813 2.265625-.289063 4.152344 1.675781 3.777344 3.929687-5.421875 32.695313 10.96875 64.363282 39.421875 79.390625zm0 0" fill="#91aee2"/><path d="m185.191406 298.800781-.902344 1.382813-28.828124 43.742187-19.902344-13.113281-16.847656-11.097656 29.71875-45.121094zm0 0" fill="#7d8287"/><path d="m184.289062 300.183594-28.828124 43.742187-19.902344-13.113281 28.824218-43.742188zm0 0" fill="#a0a0a5"/><path d="m318.359375 192.324219h177.519531c8.867188 0 16.121094 7.253906 16.121094 16.121093v95.441407c0 8.871093-7.253906 16.113281-16.121094 16.113281h-177.519531c-8.871094 0-16.121094-7.246094-16.121094-16.113281v-95.441407c0-8.867187 7.25-16.121093 16.121094-16.121093zm0 0" fill="#f2bb88"/><path d="m318.359375 192.320312h177.515625c8.871094 0 16.121094 7.253907 16.121094 16.121094v70.824219c0 8.867187-7.25 16.121094-16.121094 16.121094h-177.515625c-8.871094 0-16.121094-7.253907-16.121094-16.121094v-70.824219c0-8.867187 7.253907-16.121094 16.121094-16.121094zm0 0" fill="#f2d1a5"/><path d="m282.847656 202.960938h68.601563c34.050781 0 61.914062 27.859374 61.914062 61.914062v18.511719c0 40.148437-32.851562 73-73.003906 73h-57.511719zm0 0" fill="#f2d1a5"/><g fill="#f2bb88"><path d="m300.023438 202.960938h51.433593c34.046875 0 61.90625 27.859374 61.90625 61.90625 0 .320312-.007812 18.121093-.007812 17.804687 0 5.316406-4.8125 9.332031-10.042969 8.382813l-49.363281-8.972657c-9.203125-1.667969-17.960938-5.351562-25.378907-11.050781-24.117187-18.511719-25.914062-49.4375-25.914062-49.4375s-1.21875-7.65625-2.632812-18.632812zm0 0"/><path d="m253.136719 316.089844h33.234375c9.019531 0 16.398437 7.378906 16.398437 16.398437v7.507813c0 9.019531-7.378906 16.398437-16.398437 16.398437h-33.234375c-6.289063 0-11.785157-3.59375-14.523438-8.828125-2.296875-4.347656-1.875-7.335937-1.875-15.078125 0-9.019531 7.378907-16.398437 16.398438-16.398437zm0 0"/><path d="m241.472656 275.695312h45.382813c10.042969 0 18.257812 8.21875 18.257812 18.261719v3.78125c0 10.042969-8.214843 18.257813-18.257812 18.257813h-45.382813c-6.59375 0-12.40625-3.542969-15.613281-8.824219-2.996094-4.929687-2.644531-8.925781-2.644531-13.214844 0-10.042969 8.214844-18.261719 18.257812-18.261719zm0 0"/><path d="m233.117188 235.378906h52.71875c10.605468 0 19.277343 8.675782 19.277343 19.28125v1.746094c0 10.601562-8.671875 19.277344-19.277343 19.277344h-52.71875c-10.628907 0-19.277344-8.707032-19.277344-19.277344v-1.746094c0-10.601562 8.675781-19.28125 19.277344-19.28125zm0 0"/><path d="m227.910156 195.074219h57.324219c10.9375 0 19.878906 8.949219 19.878906 19.886719v.53125c0 10.9375-8.941406 19.886718-19.878906 19.886718h-57.324219c-10.304687 0-19.886718-8.125-19.886718-20.417968 0-10.9375 8.949218-19.886719 19.886718-19.886719zm0 0"/></g><path d="m253.136719 316.089844h25.386719c1.195312 2.265625 1.875 4.84375 1.875 7.570312v7.503906c0 9.019532-7.378907 16.402344-16.394532 16.402344h-25.390625c-2.296875-4.351562-1.875-7.335937-1.875-15.078125 0-9.019531 7.378907-16.398437 16.398438-16.398437zm0 0" fill="#f2d1a5"/><path d="m241.472656 275.695312h38.621094c1.679688 2.761719 2.644531 5.988282 2.644531 9.4375v3.773438c0 10.042969-8.214843 18.265625-18.257812 18.265625h-38.621094c-2.996094-4.929687-2.644531-8.925781-2.644531-13.214844 0-10.042969 8.214844-18.261719 18.257812-18.261719zm0 0" fill="#f2d1a5"/><path d="m233.117188 235.378906h46.527343c1.957031 3.019532 3.09375 6.609375 3.09375 10.449219v1.746094c0 10.601562-8.667969 19.28125-19.277343 19.28125h-46.519532c-7.726562-11.867188-.851562-31.476563 16.175782-31.476563zm0 0" fill="#f2d1a5"/><path d="m227.910156 195.074219h51.449219c2.132813 3.164062 3.378906 6.976562 3.378906 11.058593v.535157c0 10.933593-8.941406 19.882812-19.878906 19.882812h-51.457031c-8.558594-12.695312-.097656-31.476562 16.507812-31.476562zm0 0" fill="#f2d1a5"/><path d="m249.492188 195.074219h29.867187c2.132813 3.164062 3.378906 6.976562 3.378906 11.058593v.535157c0 10.933593-8.941406 19.882812-19.878906 19.882812h-19.210937c-3.269532-2.53125-5.023438-6.386719-5.023438-10.292969 0-2.554687.746094-5.125 2.304688-7.371093l3.898437-5.609375zm0 0" fill="#f2bb88"/><path d="m295.546875 156.019531c-11.882813 0-23.015625 5.820313-29.796875 15.578125l-15.804688 22.75-3.601562 5.179688c-1.4375 2.074218-2.125 4.453125-2.125 6.8125 0 3.800781 1.789062 7.546875 5.132812 9.875 11.285157 7.839844 26.941407 5.023437 34.78125-6.265625l5.390626-7.699219c.125-.175781.261718-.347656.398437-.507812 3.003906-3.460938 8.734375-1.953126 10.011719 2.445312 2.078125 7.167969 9.152344 26.507812 27.972656 41.277344 7.578125 5.949218 16.566406 9.847656 26.042969 11.570312l37.679687 6.847656c11.3125 2.054688 21.726563-6.636718 21.726563-18.132812 0-49.359375-40.394531-89.75-89.757813-89.75-18.675781 0-28.050781.019531-28.050781.019531zm0 0" fill="#f2d1a5"/><path d="m413.363281 272.3125v11.074219c0 40.152343-32.851562 73.003906-73.003906 73.003906h-46.4375c-6.117187 0-11.074219-4.960937-11.074219-11.078125s4.957032-11.074219 11.074219-11.074219h57.507813c34.066406-.003906 61.933593-27.871093 61.933593-61.925781zm0 0" fill="#f2bb88"/><path d="m202.945312 305.726562-2.683593 4.089844-2.402344 3.648438c-3.609375 5.46875-10.960937 6.976562-16.429687 3.378906l-48.085938-31.683594c-5.460938-3.601562-6.980469-10.953125-3.371094-16.421875l5.085938-7.726562c3.609375-5.46875 10.960937-6.988281 16.417968-3.378907l7.519532 4.949219 40.578125 26.726563c5.460937 3.609375 6.980469 10.960937 3.371093 16.417968zm0 0" fill="#4b5055"/><path d="m170.34375 342.34375-51.371094 77.972656c-18.6875 28.382813-42.367187 46.371094-53.765625 53.996094-4.203125 2.816406-6.738281 4.21875-6.738281 4.21875-5.074219 3.214844-12.292969 2.789062-18.125-1.046875-5.160156-3.402344-8.28125-8.863281-8.28125-14.164063 0-3.976562 5.632812-41.632812 29.347656-77.640624l52.882813-80.261719c1.070312-1.632813 3.273437-2.09375 4.90625-1.011719l14.457031 9.527344 35.679688 23.503906c1.628906 1.078125 2.089843 3.273438 1.007812 4.90625zm0 0" fill="#4b5055"/><path d="m202.945312 305.726562-2.683593 4.089844-40.566407-26.738281c-5.472656-3.597656-6.988281-10.949219-3.382812-16.421875l2.683594-4.074219 40.578125 26.726563c5.460937 3.609375 6.980469 10.960937 3.371093 16.417968zm0 0" fill="#5a5f64"/><path d="m170.34375 342.34375-51.371094 77.972656c-18.6875 28.382813-42.367187 46.371094-53.765625 53.996094-4.835937-3.847656-7.628906-9.804688-6.582031-15.484375.871094-3.121094 4.648438-38.0625 29.136719-75.230469l45.894531-69.664062 35.679688 23.503906c1.628906 1.078125 2.089843 3.273438 1.007812 4.90625zm0 0" fill="#5a5f64"/><path d="m43.128906 19.710938 1.382813.90625 43.742187 28.824218-13.113281 19.90625-11.097656 16.847656-45.121094-29.722656zm0 0" fill="#7d8287"/><path d="m44.511719 20.617188 43.742187 28.824218-13.113281 19.90625-43.742187-28.828125zm0 0" fill="#a0a0a5"/><path d="m50.054688 1.960938 4.089843 2.683593 3.648438 2.402344c5.46875 3.605469 6.976562 10.960937 3.378906 16.429687l-31.683594 48.085938c-3.601562 5.460938-10.953125 6.976562-16.421875 3.371094l-7.726562-5.085938c-5.46875-3.609375-6.988282-10.960937-3.378906-16.421875l4.949218-7.519531 26.726563-40.578125c3.609375-5.457031 10.960937-6.976563 16.417969-3.367187zm0 0" fill="#4b5055"/><path d="m86.671875 34.5625 77.972656 51.371094c28.382813 18.6875 46.371094 42.367187 53.996094 53.765625 2.816406 4.199219 4.21875 6.738281 4.21875 6.738281 3.214844 5.074219 2.789063 12.292969-1.046875 18.125-3.824219 5.800781-10.40625 9.199219-16.578125 8.058594-3.121094-.871094-38.0625-4.648438-75.230469-29.125l-80.257812-52.882813c-1.632813-1.070312-2.09375-3.273437-1.011719-4.90625l9.527344-14.457031 23.5-35.679688c1.082031-1.632812 3.277343-2.089843 4.910156-1.007812zm0 0" fill="#4b5055"/><path d="m50.054688 1.960938 4.089843 2.683593-26.738281 40.566407c-3.597656 5.46875-10.949219 6.988281-16.421875 3.378906l-4.074219-2.683594 26.726563-40.578125c3.609375-5.457031 10.960937-6.976563 16.417969-3.367187zm0 0" fill="#5a5f64"/><path d="m86.671875 34.5625 77.972656 51.371094c28.382813 18.6875 46.371094 42.367187 53.996094 53.765625-3.847656 4.832031-9.804687 7.628906-15.488281 6.582031-3.117188-.875-38.058594-4.648438-75.226563-29.140625l-69.664062-45.890625 23.5-35.679688c1.082031-1.632812 3.277343-2.089843 4.910156-1.007812zm0 0" fill="#5a5f64"/></svg>