<svg height="512pt" viewBox="-1 0 512 512" width="512pt" xmlns="http://www.w3.org/2000/svg"><path d="m456.382812 167.902344c-3.921874 0-7.730468.4375-11.402343 1.242187-6.667969-43.996093-44.640625-77.714843-90.503907-77.714843-2.804687 0-5.589843.136718-8.335937.386718 0-.09375.011719-.1875.011719-.28125 0-42.4375-28.886719-78.128906-68.074219-88.488281-7.488281-1.992187-15.355469-3.046875-23.472656-3.046875-50.554688 0-91.546875 40.980469-91.546875 91.535156 0 .09375.011718.1875.011718.28125-2.742187-.25-5.527343-.386718-8.335937-.386718-45.859375 0-83.835937 33.71875-90.5 77.714843-3.675781-.804687-7.480469-1.242187-11.40625-1.242187-29.867187 0-53.957031 24.796875-52.7890625 54.925781 1.0664065 27.4375 23.4648435 49.742187 50.9023435 50.703125 9.148438.3125 17.796875-1.6875 25.402344-5.476562 7.40625-3.691407 13.824219-9.066407 18.757812-15.628907 16.015626 13.773438 36.847657 22.085938 59.632813 22.085938 10.601563 0 20.773437-1.804688 30.246094-5.109375 5.855469-2.054688 11.964843 2.308594 11.964843 8.492187v73.476563c0 50.085937-29.546874 95.46875-75.34375 115.738281l-81.207031 27.40625c-9.628906 3.253906-7.292969 17.484375 2.867188 17.484375h422.6875c10.160156 0 12.5-14.230469 2.871093-17.484375l-81.207031-27.40625c-45.800781-20.269531-75.347656-65.652344-75.347656-115.738281v-73.476563c0-6.199219 6.113281-10.550781 11.96875-8.492187 29.957031 10.457031 64.421875 4.921875 89.875-16.976563 30.082031 40.03125 93.175781 19.375 95.0625-29.597656 1.167969-30.128906-22.921875-54.925781-52.789063-54.925781zm0 0" fill="#d2d2d7"/><path d="m456.382812 167.902344c-3.921874 0-7.730468.4375-11.402343 1.242187-6.667969-43.996093-44.640625-77.714843-90.503907-77.714843-2.804687 0-5.589843.136718-8.335937.386718 0-.09375.011719-.1875.011719-.28125 0-42.4375-28.886719-78.128906-68.074219-88.488281-39.183594 10.359375-68.070313 46.050781-68.070313 88.488281 0 .09375.007813.1875.007813.28125-2.753906-.25-5.527344-.386718-8.34375-.386718-45.851563 0-83.835937 33.71875-90.503906 77.714843-3.660157-.804687-7.480469-1.242187-11.390625-1.242187-29.871094 0-53.957032 24.796875-52.789063 54.925781.761719 19.75 12.570313 36.828125 29.355469 45.226563 7.40625-3.691407 13.824219-9.066407 18.757812-15.628907 16.015626 13.773438 36.847657 22.085938 59.632813 22.085938 10.601563 0 20.773437-1.804688 30.246094-5.109375 5.058593-1.773438 10.316406 1.238281 11.640625 6.089844 6.097656-2.226563 15.855468.703124 35.292968-6.089844 5.855469-2.058594 11.976563 2.292968 11.976563 8.492187v73.476563c0 50.085937-29.542969 95.46875-75.351563 115.738281l-81.199218 27.40625c-9.640625 3.253906-7.292969 17.484375 2.871094 17.484375h375.738281c10.160156 0 12.5-14.230469 2.871093-17.484375l-81.207031-27.40625c-45.800781-20.269531-75.347656-65.652344-75.347656-115.738281v-73.476563c0-6.199219 6.113281-10.550781 11.96875-8.492187 29.957031 10.457031 64.421875 4.921875 89.875-16.976563 30.246094 40.246094 93.191406 18.964844 95.0625-29.597656 1.167969-30.128906-22.921875-54.925781-52.789063-54.925781zm0 0" fill="#ebebf0"/><g fill="#a0a0a5"><path d="m233.511719 341.132812c-4.320313 0-7.824219 3.5-7.824219 7.824219v97.015625c0 4.324219 3.503906 7.824219 7.824219 7.824219 4.320312 0 7.824219-3.5 7.824219-7.824219v-97.015625c0-4.324219-3.503907-7.824219-7.824219-7.824219zm0 0"/><path d="m275.699219 341.132812c-4.320313 0-7.824219 3.5-7.824219 7.824219v48.507813c0 4.320312 3.503906 7.824218 7.824219 7.824218 4.320312 0 7.824219-3.503906 7.824219-7.824218v-48.507813c0-4.324219-3.503907-7.824219-7.824219-7.824219zm0 0"/><path d="m275.699219 120.492188c-4.320313 0-7.824219 3.503906-7.824219 7.824218v72.765625c0 4.320313 3.503906 7.824219 7.824219 7.824219 4.320312 0 7.824219-3.503906 7.824219-7.824219v-72.765625c0-4.320312-3.503907-7.824218-7.824219-7.824218zm0 0"/><path d="m353.859375 169.003906c-4.320313 0-7.824219 3.5-7.824219 7.824219v48.507813c0 4.320312 3.503906 7.824218 7.824219 7.824218 4.324219 0 7.824219-3.503906 7.824219-7.824218v-48.507813c0-4.324219-3.5-7.824219-7.824219-7.824219zm0 0"/><path d="m392.980469 123.621094c-4.320313 0-7.824219 3.503906-7.824219 7.828125v24.253906c0 4.320313 3.503906 7.824219 7.824219 7.824219 4.320312 0 7.824219-3.503906 7.824219-7.824219v-24.253906c0-4.324219-3.503907-7.828125-7.824219-7.828125zm0 0"/><path d="m51.851562 205.382812c-4.320312 0-7.824218 3.503907-7.824218 7.824219v24.257813c0 4.320312 3.503906 7.824218 7.824218 7.824218 4.320313 0 7.824219-3.503906 7.824219-7.824218v-24.257813c0-4.320312-3.503906-7.824219-7.824219-7.824219zm0 0"/><path d="m455.933594 205.382812c-4.324219 0-7.824219 3.503907-7.824219 7.824219v24.257813c0 4.320312 3.5 7.824218 7.824219 7.824218 4.320312 0 7.824218-3.503906 7.824218-7.824218v-24.257813c0-4.320312-3.503906-7.824219-7.824218-7.824219zm0 0"/><path d="m139.480469 120.492188c-4.320313 0-7.824219 3.503906-7.824219 7.824218v54.769532c0 4.320312 3.503906 7.824218 7.824219 7.824218 4.324219 0 7.824219-3.503906 7.824219-7.824218v-54.769532c0-4.320312-3.5-7.824218-7.824219-7.824218zm0 0"/><path d="m233.511719 169.003906c-4.320313 0-7.824219 3.5-7.824219 7.824219v48.507813c0 4.320312 3.503906 7.824218 7.824219 7.824218 4.320312 0 7.824219-3.503906 7.824219-7.824218v-48.507813c0-4.324219-3.503907-7.824219-7.824219-7.824219zm0 0"/></g></svg>