<svg height="512pt" viewBox="0 -85 512 512" width="512pt" xmlns="http://www.w3.org/2000/svg"><path d="m283.242188 197.019531c25.269531 0 44.3125-14.371093 53.621093-40.472656 1.445313-4.058594-.671875-8.519531-4.726562-9.964844-4.058594-1.449219-8.519531.667969-9.964844 4.726563-4.898437 13.738281-15.628906 30.113281-38.929687 30.113281-4.308594 0-7.800782 3.492187-7.800782 7.800781s3.492188 7.796875 7.800782 7.796875zm0 0" fill="#274c91"/><path d="m355.722656 220.390625h-68.203125c-23.15625 0-43.585937-15.597656-49.6875-37.9375l-12.0625-44.15625c-1.132812-4.15625-5.421875-6.605469-9.578125-5.46875-4.15625 1.132813-6.605468 5.421875-5.46875 9.578125l12.058594 44.15625c7.949219 29.105469 34.570312 49.429688 64.738281 49.429688h68.203125c4.304688 0 7.796875-3.492188 7.796875-7.800782s-3.492187-7.800781-7.796875-7.800781zm0 0" fill="#274c91"/><path d="m72.136719 40.558594h-40.039063v-33.277344c0-4.023438 3.257813-7.28125 7.28125-7.28125h25.480469c4.019531 0 7.277344 3.257812 7.277344 7.28125zm0 0" fill="#274c91"/><path d="m428.308594 40.558594h-44.714844v-18.199219c0-12.347656 10.007812-22.359375 22.355469-22.359375 12.347656 0 22.359375 10.011719 22.359375 22.359375zm0 0" fill="#274c91"/><path d="m512 46.214844v81.421875c0 3.515625-1.425781 6.6875-3.722656 8.988281-2.296875 2.296875-5.46875 3.722656-8.984375 3.722656-31.3125 0-54.199219 29.5625-46.339844 59.875 5.324219 20.5625 13.601563 52.359375 26.996094 104.054688 1.582031 6.085937 1.1875 12.125-.726563 17.523437-4.054687 11.492188-14.984375 20.101563-28.378906 20.101563h-42.378906c-13.695313 0-25.664063-9.253906-29.105469-22.523438l-37.230469-143.613281c-5.40625-20.851563-24.226562-35.417969-45.765625-35.417969h-272.851562c-12.988281 0-23.511719-10.523437-23.511719-23.515625v-70.617187c0-6.574219 5.324219-11.898438 11.886719-11.898438h488.226562c6.5625 0 11.886719 5.324219 11.886719 11.898438zm0 0" fill="#4172cc"/><path d="m512 46.214844v81.421875c0 3.515625-1.425781 6.6875-3.722656 8.988281-2.296875 2.296875-5.46875 3.722656-8.984375 3.722656-31.3125 0-54.199219 29.5625-46.339844 59.875 5.324219 20.5625 13.601563 52.359375 26.996094 104.054688 1.582031 6.085937 1.1875 12.125-.726563 17.523437h-36.085937c-13.707031 0-25.675781-9.265625-29.105469-22.523437l-37.242188-143.613282c-5.40625-20.859374-24.21875-35.417968-45.765624-35.417968h-272.851563c-12.976563 0-23.511719-10.523438-23.511719-23.511719v-62.417969h465.453125c6.5625 0 11.886719 5.324219 11.886719 11.898438zm0 0" fill="#6990d7"/><g fill="#274c91"><path d="m470.652344 56.15625c-4.308594 0-7.800782 3.488281-7.800782 7.796875v45.507813c0 4.308593 3.492188 7.796874 7.800782 7.796874s7.800781-3.488281 7.800781-7.796874v-45.507813c0-4.308594-3.492187-7.796875-7.800781-7.796875zm0 0"/><path d="m434.84375 56.15625c-4.308594 0-7.800781 3.488281-7.800781 7.796875v45.507813c0 4.308593 3.492187 7.796874 7.800781 7.796874s7.800781-3.488281 7.800781-7.796874v-45.507813c0-4.308594-3.492187-7.796875-7.800781-7.796875zm0 0"/><path d="m399.035156 56.15625c-4.308594 0-7.800781 3.488281-7.800781 7.796875v45.507813c0 4.308593 3.492187 7.796874 7.800781 7.796874s7.796875-3.488281 7.796875-7.796874v-45.507813c0-4.308594-3.488281-7.796875-7.796875-7.796875zm0 0"/><path d="m363.226562 56.15625c-4.308593 0-7.800781 3.488281-7.800781 7.796875v45.507813c0 4.308593 3.492188 7.796874 7.800781 7.796874 4.308594 0 7.800782-3.488281 7.800782-7.796874v-45.507813c0-4.308594-3.492188-7.796875-7.800782-7.796875zm0 0"/><path d="m327.417969 56.15625c-4.308594 0-7.800781 3.488281-7.800781 7.796875v45.507813c0 4.308593 3.492187 7.796874 7.800781 7.796874 4.304687 0 7.796875-3.488281 7.796875-7.796874v-45.507813c0-4.308594-3.488282-7.796875-7.796875-7.796875zm0 0"/><path d="m291.609375 56.15625c-4.308594 0-7.800781 3.488281-7.800781 7.796875v45.507813c0 4.308593 3.492187 7.796874 7.800781 7.796874 4.304687 0 7.796875-3.488281 7.796875-7.796874v-45.507813c0-4.308594-3.492188-7.796875-7.796875-7.796875zm0 0"/><path d="m255.800781 56.15625c-4.308593 0-7.800781 3.488281-7.800781 7.796875v45.507813c0 4.308593 3.492188 7.796874 7.800781 7.796874 4.308594 0 7.800781-3.488281 7.800781-7.796874v-45.507813c0-4.308594-3.492187-7.796875-7.800781-7.796875zm0 0"/><path d="m219.992188 56.15625c-4.308594 0-7.800782 3.488281-7.800782 7.796875v45.507813c0 4.308593 3.492188 7.796874 7.800782 7.796874 4.304687 0 7.796874-3.488281 7.796874-7.796874v-45.507813c0-4.308594-3.492187-7.796875-7.796874-7.796875zm0 0"/></g></svg>