<svg height="512pt" viewBox="0 0 512 511" width="512pt" xmlns="http://www.w3.org/2000/svg"><path d="m381.097656 150.3125c-1.363281-3.582031-6.496094-3.273438-7.488281.429688-10.625 39.613281-46.355469 56.433593-46.355469 56.433593l23.089844 62.011719c51.71875-42.390625 39.539062-95.773438 30.753906-118.875zm0 0" fill="#d63030"/><path d="m137.824219 150.457031c-.992188-3.703125-6.125-4.011719-7.488281-.433593-8.78125 23.109374-19.855469 77.347656 31.863281 119.738281l22.539062-62.585938s-36.289062-17.105469-46.914062-56.71875zm0 0" fill="#d63030"/><path d="m350.90625 268.902344v52.378906c0 42.265625-34.265625 76.535156-76.53125 76.535156h-36.550781c-42.277344 0-76.535157-34.269531-76.535157-76.535156v-52.378906c0-52.363282 42.441407-94.816406 94.804688-94.816406 5.640625 0 11.160156.496093 16.535156 1.4375 19.550782 3.441406 37.046875 12.875 50.511719 26.332031 17.152344 17.164062 27.765625 40.859375 27.765625 67.046875zm0 0" fill="#d63030"/><path d="m350.90625 268.902344v52.378906c0 42.265625-34.265625 76.535156-76.53125 76.535156h-3.484375c-42.273437 0-76.53125-34.269531-76.53125-76.535156v-52.378906c0-46.722656 33.789063-85.554688 78.269531-93.378906 19.550782 3.441406 37.046875 12.875 50.511719 26.332031 17.152344 17.164062 27.765625 40.859375 27.765625 67.046875zm0 0" fill="#f44545"/><path d="m300.816406 247.714844h-37.066406v-37.066406c0-4.28125-3.46875-7.75-7.75-7.75s-7.75 3.46875-7.75 7.75v37.066406h-37.066406c-4.28125 0-7.75 3.46875-7.75 7.75s3.46875 7.753906 7.75 7.753906h37.066406v37.066406c0 4.28125 3.46875 7.75 7.75 7.75s7.75-3.46875 7.75-7.75v-37.066406h37.066406c4.28125 0 7.75-3.472656 7.75-7.753906s-3.46875-7.75-7.75-7.75zm0 0" fill="#ffb52d"/><path d="m256 486.425781c-61.691406 0-119.691406-24.023437-163.3125-67.644531-43.621094-43.625-67.648438-101.625-67.648438-163.316406 0-61.6875 24.027344-119.6875 67.648438-163.3125 43.621094-43.621094 101.621094-67.644532 163.3125-67.644532s119.691406 24.023438 163.3125 67.644532c43.621094 43.625 67.648438 101.625 67.648438 163.3125 0 61.691406-24.027344 119.691406-67.648438 163.316406-43.621094 43.621094-101.621094 67.644531-163.3125 67.644531zm-138.808594-92.152343c76.539063 76.539062 201.078125 76.539062 277.617188 0 76.539062-76.539063 76.539062-201.074219 0-277.613282-76.539063-76.542968-201.074219-76.539062-277.617188 0-76.539062 76.535156-76.539062 201.074219 0 277.613282zm0 0" fill="#ff956a"/><g fill="#d63030"><path d="m276.296875 20.796875v41.3125c0 11.160156-9.136719 20.285156-20.296875 20.285156s-20.296875-9.125-20.296875-20.285156v-41.3125c0-11.160156 9.136719-20.296875 20.296875-20.296875 5.582031 0 10.652344 2.285156 14.332031 5.960938 3.679688 3.679687 5.964844 8.753906 5.964844 14.335937zm0 0"/><path d="m81.894531 252.367188c0 11.160156-9.125 20.296874-20.285156 20.296874h-41.3125c-11.160156 0-20.296875-9.136718-20.296875-20.296874 0-5.582032 2.285156-10.65625 5.960938-14.332032 3.679687-3.679687 8.753906-5.964844 14.335937-5.964844h41.3125c9.921875 0 18.238281 7.222657 19.957031 16.679688.214844 1.167969.328125 2.375.328125 3.617188zm0 0"/><path d="m276.296875 449.855469v41.316406c0 11.160156-9.136719 20.292969-20.296875 20.292969-5.582031 0-10.652344-2.28125-14.332031-5.960938-3.679688-3.679687-5.964844-8.753906-5.964844-14.332031v-41.316406c0-11.160157 9.136719-20.285157 20.296875-20.285157s20.296875 9.125 20.296875 20.285157zm0 0"/><path d="m512 252.367188c0 5.578124-2.285156 10.652343-5.960938 14.332031-3.679687 3.679687-8.753906 5.964843-14.335937 5.964843h-41.3125c-11.160156 0-20.285156-9.136718-20.285156-20.296874 0-11.160157 9.125-20.296876 20.285156-20.296876h41.3125c9.921875 0 18.25 7.222657 19.964844 16.679688.21875 1.167969.332031 2.375.332031 3.617188zm0 0"/></g><path d="m276.296875 20.796875v37.6875c-11.160156 0-20.296875-9.125-20.296875-20.285156v-37.699219c5.582031 0 10.652344 2.285156 14.332031 5.960938 3.679688 3.679687 5.964844 8.753906 5.964844 14.335937zm0 0" fill="#de4c4c"/><path d="m81.566406 248.75h-40.976562c-9.917969 0-18.25-7.222656-19.964844-16.679688h40.984375c9.921875 0 18.238281 7.222657 19.957031 16.679688zm0 0" fill="#de4c4c"/><path d="m276.296875 449.855469v37.699219c-5.582031 0-10.65625-2.285157-14.335937-5.964844-3.675782-3.675782-5.960938-8.75-5.960938-14.332032v-37.6875c11.160156 0 20.296875 9.125 20.296875 20.285157zm0 0" fill="#de4c4c"/><path d="m511.667969 248.75h-40.984375c-9.917969 0-18.246094-7.222656-19.964844-16.679688h40.984375c9.921875 0 18.25 7.222657 19.964844 16.679688zm0 0" fill="#de4c4c"/></svg>