<svg height="512pt" viewBox="-32 0 512 512.00043" width="512pt" xmlns="http://www.w3.org/2000/svg"><path d="m429.40625 466.300781c0 .71875-.023438 1.441407-.066406 2.148438-1.125 21.851562-17.722656 39.949219-39.625 42.800781-41.972656 1.085938-22.085938 1.511719-89.5625-2.410156 0 0 .011718 0 .011718-.011719l-16.871093 2.421875c-93.757813 5.46875-160.984375-25.21875-211.359375-58.40625-44.886719-29.5625-71.933594-79.667969-71.933594-133.40625v-94.414062c0-17.277344 14.738281-31.535157 32.964844-29.824219 83.75 9.21875 116.527344 73.640625 130.683594 86.796875l3.097656 1.710937c15.71875 0 64.253906 3.859375 90.234375 19.636719 5.457031 3.308594 27.398437 15.238281 35.59375 38.914062 1.136719 3.269532 5.710937 3.121094 6.484375.261719 8.339844-33.851562 48.695312-89.40625 60.730468-171.308593.355469-.785157 2.359376-11.191407.105469-23.550782-1.097656-6.878906-4.644531-17.910156-6.390625-26.617187-48.871094-8.757813-50.6875-11.265625-62.234375-19.875-2.273437-1.703125-5.292969-2.066407-7.890625-.949219-41.753906 17.953125-48.132812-2.632812-48.132812-2.632812-12.746094-42.921876-12.546875-35.335938-11.453125-60.085938.054687-.949219.148437-1.886719.324219-2.796875 1.347656-7.746094 6.878906-14.207031 14.5-16.667969 19.46875-6.316406 52.464843-14.886718 63.039062-17.601562 2.535156-.648438 5.199219-.574219 7.683594.242187 25.648437 8.453125 91.578125 56.535157 91.578125 56.535157 15.21875 12.359374 25.355469 30.28125 26.972656 54.332031 6.859375 102.257812 18.632813 115.617187 19.730469 177.855469 1.25 71.546874-18.050782 140.648437-18.214844 176.902343zm0 0" fill="#f2bb88"/><path d="m429.40625 466.300781c0 .71875-.023438 1.441407-.066406 2.148438-41.917969 1.085937-22.066406 1.515625-89.519532-2.410157 0 0 .011719 0 .011719-.011718l-16.871093 2.421875c-93.757813 5.472656-160.984376-25.21875-211.359376-58.402344-44.886718-29.5625-71.933593-79.667969-71.933593-133.40625v-80.554687c79.03125 11.964843 110.054687 72.96875 123.980469 85.910156l3.097656 1.710937c15.71875 0 64.253906 3.859375 90.234375 19.636719 5.457031 3.308594 27.398437 15.238281 35.59375 38.914062 1.136719 3.269532 5.710937 3.121094 6.484375.261719 8.339844-33.851562 48.695312-89.40625 60.730468-171.308593.355469-.785157 2.359376-11.191407.105469-23.550782-1.097656-6.878906-4.644531-17.910156-6.390625-26.617187-48.871094-8.757813-50.6875-11.265625-62.234375-19.875-2.273437-1.703125-5.292969-2.066407-7.890625-.949219-41.753906 17.953125-48.132812-2.632812-48.132812-2.632812-12.746094-42.921876-12.546875-35.335938-11.453125-60.085938.054687-.949219.148437-1.886719.324219-2.796875 1.347656-7.746094 6.878906-14.207031 14.5-16.667969 19.46875-6.316406 52.464843-14.886718 63.039062-17.601562 2.535156-.648438 5.199219-.574219 7.683594.242187 25.648437 8.453125 91.578125 56.535157 91.578125 56.535157 15.21875 12.359374 25.355469 30.28125 26.972656 54.332031 6.859375 102.257812 18.632813 115.617187 19.730469 177.855469 1.25 71.546874-18.050782 140.648437-18.214844 176.902343zm0 0" fill="#f2d1a5"/></svg>