<svg height="512pt" viewBox="0 0 512 512" width="512pt" xmlns="http://www.w3.org/2000/svg"><path d="m397.53125 1.039062c-41.390625 0-75.066406 33.675782-75.066406 75.066407v325.992187c0 32.792969-26.679688 59.472656-59.472656 59.472656h-12.042969c-32.792969 0-59.46875-26.679687-59.46875-59.472656v-327.03125c0-41.390625-33.675781-75.066406-75.066407-75.066406h-1.648437c-41.390625 0-75.0625 33.675781-75.0625 75.066406v254.996094c0 4.308594 3.488281 7.796875 7.796875 7.796875 4.304688 0 7.792969-3.488281 7.792969-7.796875v-254.996094c0-32.792968 26.679687-59.472656 59.472656-59.472656h1.648437c32.792969 0 59.472657 26.679688 59.472657 59.472656v327.03125c0 41.390625 33.671875 75.066406 75.0625 75.066406h12.042969c41.390624 0 75.066406-33.675781 75.066406-75.066406v-325.992187c0-32.792969 26.679687-59.472657 59.472656-59.472657s59.472656 26.679688 59.472656 59.472657v235.246093c0 4.308594 3.488282 7.796876 7.796875 7.796876 4.304688 0 7.796875-3.488282 7.796875-7.796876v-235.246093c0-41.390625-33.675781-75.066407-75.066406-75.066407zm0 0" fill="#a0a0a5"/><path d="m511.949219 292.222656v172.621094c0 21.21875-14.015625 39.160156-33.289063 45.078125-4.375 1.351563-9.03125 2.078125-13.855468 2.078125-26.042969 0-47.15625-21.113281-47.15625-47.15625v-172.621094c0-4.613281 3.753906-8.367187 8.367187-8.367187h77.5625c4.628906 0 8.371094 3.753906 8.371094 8.367187zm0 0" fill="#4b5055"/><path d="m94.300781 292.222656v172.621094c0 21.207031-14.015625 39.152344-33.277343 45.078125-4.378907 1.351563-9.042969 2.078125-13.867188 2.078125-26.042969 0-47.15625-21.113281-47.15625-47.15625v-172.621094c0-4.613281 3.753906-8.367187 8.367188-8.367187h77.5625c4.628906 0 8.371093 3.753906 8.371093 8.367187zm0 0" fill="#4b5055"/><path d="m511.949219 292.222656v172.621094c0 21.21875-14.015625 39.160156-33.289063 45.078125-19.273437-5.917969-33.285156-23.859375-33.285156-45.078125v-172.621094c0-4.613281 3.75-8.367187 8.367188-8.367187h49.835937c4.628906 0 8.371094 3.753906 8.371094 8.367187zm0 0" fill="#5a5f64"/><path d="m94.300781 292.222656v172.621094c0 21.207031-14.015625 39.152344-33.277343 45.078125-19.285157-5.917969-33.296876-23.859375-33.296876-45.078125v-172.621094c0-4.613281 3.75-8.367187 8.367188-8.367187h49.835938c4.628906 0 8.371093 3.753906 8.371093 8.367187zm0 0" fill="#5a5f64"/><g fill="#b5b5ba"><path d="m511.949219 315.59375v15.59375h-41.585938c-4.300781 0-7.796875-3.492188-7.796875-7.796875 0-4.316406 3.496094-7.796875 7.796875-7.796875zm0 0"/><path d="m446.976562 323.390625c0 4.304687-3.496093 7.796875-7.796874 7.796875h-21.53125v-15.59375h21.53125c4.300781 0 7.796874 3.480469 7.796874 7.796875zm0 0"/><path d="m417.648438 352.25h94.300781v15.59375h-94.300781zm0 0"/><path d="m0 315.59375h94.300781v15.59375h-94.300781zm0 0"/><path d="m0 352.25h94.300781v15.59375h-94.300781zm0 0"/></g><path d="m439.179688 315.59375h-21.53125v15.59375h21.53125c2.523437 0 4.769531-1.207031 6.195312-3.078125v-9.449219c-1.425781-1.859375-3.671875-3.066406-6.195312-3.066406zm0 0" fill="#a0a0a5"/><path d="m417.648438 352.25h27.726562v15.59375h-27.726562zm0 0" fill="#a0a0a5"/><path d="m0 315.59375h27.726562v15.59375h-27.726562zm0 0" fill="#a0a0a5"/><path d="m0 352.25h27.726562v15.59375h-27.726562zm0 0" fill="#a0a0a5"/></svg>