<svg height="512pt" viewBox="0 -51 512 511" width="512pt" xmlns="http://www.w3.org/2000/svg"><path d="m512 320.808594v25.8125c0 10.308594-8.351562 18.648437-18.644531 18.648437h-201.640625c-22.15625 0-43.390625-8.792969-59.066406-24.445312-27.335938-27.328125-82.089844-82.0625-191.746094-191.71875-10.964844-10.960938-14.707032-30.679688-4.855469-40.53125l10.109375-10.097657 93.847656-93.859374c9.242188-9.238282 25.425782-1.933594 23.6875 12.035156l-.925781 7.300781c-3.878906 30.667969 17.371094 61.585937 48.378906 70.367187l62.683594 10.695313c5.894531 1.015625 11.070313 4.121094 14.644531 8.394531 6.101563 7.28125 16.28125 19.835938 27.511719 35.355469 4.949219 6.832031 10.089844 14.234375 15.179687 22.019531 15.945313 24.378906 22.472657 38.804688 24.140626 41.664063 5.996093 10.296875 16.980468 16.742187 28.992187 16.742187h36.085937c50.601563 0 91.617188 41.015625 91.617188 91.617188zm0 0" fill="#91aee2"/><path d="m512 325.613281v21.007813c0 10.308594-8.351562 18.648437-18.644531 18.648437h-201.640625c-22.15625 0-43.390625-8.792969-59.066406-24.445312-27.335938-27.328125-82.089844-82.0625-191.746094-191.71875-10.964844-10.960938-14.707032-30.679688-4.855469-40.53125l10.109375-10.097657c153.273438 153.28125 171.136719 171.09375 220.742188 220.695313 6.078124 6.101563 11.527343 6.449219 17.214843 6.449219 2.003907 0 226.117188-.007813 227.886719-.007813zm0 0" fill="#6990d7"/><path d="m315.984375 148.765625-37.425781 21.609375-1.53125.882812c-11.519532 6.65625-26.238282 2.707032-32.890625-8.8125-6.644531-11.507812-2.703125-26.234374 8.8125-32.878906l32.777343-18.925781c3.890626 3.285156 21.152344 25.542969 30.257813 38.125zm0 0" fill="#2e5aac"/><path d="m355.304688 212.449219-28.066407 16.210937-1.535156.882813c-11.507813 6.644531-26.234375 2.703125-32.890625-8.8125-6.640625-11.519531-2.691406-26.238281 8.816406-32.890625l29.535156-17.054688c2.285157 3.5 4.558594 7.066406 6.800782 10.699219 11.3125 18.332031 15.785156 28.300781 17.339844 30.964844zm0 0" fill="#2e5aac"/><path d="m315.984375 148.765625-37.425781 21.609375c-3.289063-2.027344-6.128906-4.863281-8.195313-8.445312-6.644531-11.507813-2.707031-26.234376 8.8125-32.878907l15.035157-8.679687c5.90625 7.269531 13.558593 17.042968 21.773437 28.394531zm0 0" fill="#4172cc"/><path d="m355.304688 212.449219-28.066407 16.210937c-3.292969-2.027344-6.132812-4.867187-8.199219-8.445312-6.644531-11.519532-2.695312-26.238282 8.816407-32.890625l10.109375-5.839844c11.3125 18.332031 15.785156 28.300781 17.339844 30.964844zm0 0" fill="#4172cc"/><g fill="#91aee2"><path d="m27.769531 277.910156c0 4.261719 3.453125 7.714844 7.710938 7.714844h67.878906c4.261719 0 7.714844-3.453125 7.714844-7.714844 0-4.257812-3.453125-7.710937-7.714844-7.710937h-67.878906c-4.257813 0-7.710938 3.453125-7.710938 7.710937zm0 0"/><path d="m148.613281 357.617188h-92.5625c-4.257812 0-7.714843 3.453124-7.714843 7.714843 0 4.257813 3.457031 7.710938 7.714843 7.710938h92.5625c4.257813 0 7.714844-3.453125 7.714844-7.710938 0-4.261719-3.457031-7.714843-7.714844-7.714843zm0 0"/><path d="m208.777344 365.332031c0-4.261719-3.453125-7.714843-7.710938-7.714843h-21.597656c-4.261719 0-7.714844 3.453124-7.714844 7.714843 0 4.257813 3.453125 7.710938 7.714844 7.710938h21.597656c4.257813 0 7.710938-3.453125 7.710938-7.710938zm0 0"/><path d="m66.851562 314.9375c0-4.261719-3.453124-7.714844-7.714843-7.714844h-51.421875c-4.261719 0-7.714844 3.453125-7.714844 7.714844 0 4.257812 3.453125 7.710938 7.714844 7.710938h51.421875c4.261719 0 7.714843-3.453126 7.714843-7.710938zm0 0"/><path d="m259.6875 394.640625h-51.421875c-4.261719 0-7.714844 3.453125-7.714844 7.714844s3.453125 7.714843 7.714844 7.714843h51.421875c4.257812 0 7.714844-3.453124 7.714844-7.714843s-3.457032-7.714844-7.714844-7.714844zm0 0"/><path d="m21.082031 224.945312h37.027344c4.257813 0 7.710937-3.453124 7.710937-7.714843 0-4.257813-3.453124-7.710938-7.710937-7.710938h-37.027344c-4.257812 0-7.710937 3.453125-7.710937 7.710938 0 4.261719 3.453125 7.714843 7.710937 7.714843zm0 0"/></g></svg>