<svg height="511pt" viewBox="-4 0 511 511.99957" width="511pt" xmlns="http://www.w3.org/2000/svg"><g fill="#f44545"><path d="m403.964844 53.628906c0-4.226562-3.425782-7.65625-7.65625-7.65625h-187.378906c-23.109376 0-41.914063 18.804688-41.914063 41.914063v50.613281c0 4.226562 3.429687 7.65625 7.65625 7.65625 4.230469 0 7.65625-3.429688 7.65625-7.65625v-50.613281c0-14.664063 11.933594-26.597657 26.601563-26.597657h187.378906c4.230468 0 7.65625-3.429687 7.65625-7.660156zm0 0"/><path d="m409.074219 38.320312c1.800781 0 3.609375-.632812 5.066406-1.921874l26.03125-23.003907c3.167969-2.800781 3.46875-7.640625.667969-10.808593-2.800782-3.167969-7.640625-3.464844-10.808594-.667969l-26.03125 23.007812c-3.167969 2.800781-3.464844 7.636719-.667969 10.808594 1.515625 1.710937 3.621094 2.585937 5.742188 2.585937zm0 0"/><path d="m440.171875 95.875-26.03125-23.003906c-3.167969-2.800782-8.007813-2.5-10.808594.664062-2.796875 3.171875-2.5 8.007813.667969 10.808594l26.03125 23.007812c1.457031 1.285157 3.265625 1.917969 5.066406 1.917969 2.121094 0 4.230469-.875 5.742188-2.585937 2.800781-3.167969 2.5-8.007813-.667969-10.808594zm0 0"/><path d="m496.417969 45.96875h-47.136719c-4.226562 0-7.65625 3.429688-7.65625 7.65625 0 4.230469 3.429688 7.65625 7.65625 7.65625h47.136719c4.230469 0 7.65625-3.425781 7.65625-7.65625 0-4.226562-3.425781-7.65625-7.65625-7.65625zm0 0"/></g><path d="m345.707031 370.554688c-14.679687 76.757812-77.6875 132.039062-151.476562 140.347656-17.007813 1.929687-34.589844 1.347656-52.289063-2.039063-94.460937-18.082031-156.378906-109.304687-138.308594-203.765625 17.210938-89.949218 100.769532-150.40625 190.28125-140.347656 4.480469.5 8.984376 1.183594 13.496094 2.039062 94.460938 18.082032 156.375 109.304688 138.296875 203.765626zm0 0" fill="#4b5055"/><path d="m345.707031 370.554688c-14.679687 76.757812-77.6875 132.039062-151.476562 140.347656-4.484375-.5-8.984375-1.183594-13.496094-2.039063-94.460937-18.082031-156.378906-109.304687-138.308594-203.765625 14.691407-76.757812 77.699219-132.039062 151.488281-140.347656 4.480469.5 8.984376 1.183594 13.496094 2.039062 94.460938 18.082032 156.375 109.304688 138.296875 203.765626zm0 0" fill="#5a5f64"/><path d="m286.433594 136.625v36.441406c0 10.28125-8.410156 18.695313-18.679688 18.695313h-186.15625c-10.28125 0-18.683594-8.414063-18.683594-18.695313v-36.441406c0-10.273438 8.402344-18.683594 18.683594-18.683594h186.15625c10.269532 0 18.679688 8.410156 18.679688 18.683594zm0 0" fill="#5a5f64"/><path d="m286.433594 136.625v30.632812h-166.042969c-10.28125 0-18.683594-8.410156-18.683594-18.691406v-30.625h166.046875c10.269532 0 18.679688 8.410156 18.679688 18.683594zm0 0" fill="#7d8287"/><path d="m203.140625 224.550781c-5.5625-1.277343-11.105469-2.195312-16.609375-2.777343-69.460938-7.308594-132.335938 39.4375-131.703125 101.964843.328125 31.332031 16.804687 64.785157 42.519531 88.601563 2.226563 2.050781 3.472656 4.972656 3.472656 8.003906v36.953125c0 6.066406 4.898438 10.996094 10.964844 11.015625l28.59375.101562 15.3125.050782 36.414063.125 15.3125.058594 30.554687.105468c.480469 0 .960938-.03125 1.429688-.09375 5.441406-.683594 9.648437-5.328125 9.617187-10.964844l-.152343-36.789062c-.011719-3.023438 1.203124-5.945312 3.417968-8.003906 25.207032-23.632813 41-56.976563 40.683594-88.285156-.808594-79.679688-89.652344-99.953126-89.828125-100.066407zm0 0" fill="#d63030"/><path d="m203.140625 224.550781c-5.5625-1.277343-11.105469-2.195312-16.609375-2.777343-57.207031 6.0625-103.65625 48.175781-103.117188 101.964843.328126 31.332031 16.804688 64.785157 42.519532 88.601563 2.226562 2.050781 3.472656 4.972656 3.472656 8.003906v36.953125c0 6.066406 4.898438 10.996094 10.960938 11.015625l28.597656.101562 15.3125.050782 36.414062.125 15.3125.058594 3.398438.011718c5.441406-.683594 9.648437-5.328125 9.617187-10.964844l-.152343-36.789062c-.011719-3.023438 1.203124-5.945312 3.417968-8.003906 25.207032-23.632813 41-56.976563 40.683594-88.285156-.808594-79.679688-89.652344-99.953126-89.828125-100.066407zm0 0" fill="#f44545"/><path d="m155.691406 418.871094v49.59375l-15.3125-.050782v-49.542968c0-4.226563 3.429688-7.65625 7.65625-7.65625 4.238282 0 7.65625 3.429687 7.65625 7.65625zm0 0" fill="#af2727"/><path d="m207.417969 418.871094v49.777344l-15.3125-.058594v-49.71875c0-4.226563 3.429687-7.65625 7.65625-7.65625 4.226562 0 7.65625 3.429687 7.65625 7.65625zm0 0" fill="#af2727"/><path d="m88.925781 290.425781c11.59375 14.03125 38.605469 42.136719 70.554688 44.503907 3.726562.277343 5.050781 5.070312 2.015625 7.25-24.960938 17.945312-88.351563 54.0625-79.667969-49.515626.304687-3.59375 4.796875-5.019531 7.097656-2.238281zm0 0" fill="#ffa90b"/><path d="m258.875 290.425781c-11.59375 14.03125-38.605469 42.136719-70.550781 44.503907-3.730469.277343-5.054688 5.070312-2.015625 7.25 24.957031 17.945312 88.347656 54.0625 79.664062-49.515626-.300781-3.59375-4.796875-5.019531-7.097656-2.238281zm0 0" fill="#ffa90b"/></svg>