<svg height="512pt" viewBox="-115 0 512 512" width="512pt" xmlns="http://www.w3.org/2000/svg"><path d="m246.851562 110.871094v294.960937c0 28.410157-11.164062 54.230469-29.34375 73.285157-19.335937 20.257812-46.601562 32.882812-76.824218 32.882812-58.628906 0-106.164063-47.535156-106.164063-106.167969v-294.960937zm0 0" fill="#d2d2d7"/><path d="m246.851562 110.871094v294.960937c0 28.410157-11.164062 54.230469-29.34375 73.285157-11.3125 4.109374-23.507812 6.347656-36.238281 6.347656-58.628906 0-106.164062-47.539063-106.164062-106.167969v-268.425781zm0 0" fill="#ebebf0"/><g fill="#dd3f95"><path d="m246.851562 278.988281v126.84375c0 58.632813-47.535156 106.167969-106.167968 106.167969-58.628906 0-106.164063-47.535156-106.164063-106.167969v-187.472656h58.992188c8.335937 0 15.871093 3.382813 21.335937 8.847656 5.460938 5.460938 8.84375 12.996094 8.84375 21.332031 0 16.671876 13.507813 30.179688 30.179688 30.179688h90.535156zm0 0"/><path d="m208.328125 223.738281c0 10.058594-8.152344 18.214844-18.210937 18.214844-10.058594 0-18.210938-8.15625-18.210938-18.214844 0-10.054687 8.152344-18.210937 18.210938-18.210937 10.058593 0 18.210937 8.15625 18.210937 18.210937zm0 0"/><path d="m127.675781 180.8125c0 8.476562-6.871093 15.351562-15.347656 15.351562s-15.351563-6.875-15.351563-15.351562 6.875-15.347656 15.351563-15.347656 15.347656 6.871094 15.347656 15.347656zm0 0"/></g><path d="m229.589844 18.304688v98.839843h-177.808594v-98.839843c0-10.105469 8.191406-18.304688 18.304688-18.304688h141.199218c10.113282 0 18.304688 8.199219 18.304688 18.304688zm0 0" fill="#c6237c"/><path d="m229.589844 18.304688v86.355468h-135.671875v-98.84375c0-2.027344.332031-3.984375.949219-5.816406h116.417968c10.113282 0 18.304688 8.199219 18.304688 18.304688zm0 0" fill="#dd3f95"/><path d="m281.371094 85.769531v47.070313c0 6.929687-5.621094 12.550781-12.550782 12.550781h-256.269531c-6.929687 0-12.550781-5.621094-12.550781-12.550781v-47.070313c0-6.929687 5.621094-12.550781 12.550781-12.550781h256.269531c6.929688 0 12.550782 5.621094 12.550782 12.550781zm0 0" fill="#7d8287"/><path d="m281.371094 85.769531v30.480469h-227.195313c-6.929687 0-12.550781-5.617188-12.550781-12.550781v-30.480469h227.195312c6.929688 0 12.550782 5.621094 12.550782 12.550781zm0 0" fill="#919196"/><path d="m181.269531 485.464844c-58.628906 0-106.164062-47.539063-106.164062-106.167969v-160.9375h-40.585938v187.472656c0 58.632813 47.535157 106.167969 106.164063 106.167969 30.222656 0 57.488281-12.625 76.824218-32.882812-11.3125 4.109374-23.507812 6.347656-36.238281 6.347656zm0 0" fill="#c6237c"/></svg>