<svg height="512pt" viewBox="-95 0 512 512" width="512pt" xmlns="http://www.w3.org/2000/svg"><g fill="#169b62"><path d="m16.128906 50.972656h290.34375v38.503906h-290.34375zm0 0"/><path d="m16.128906 141.894531h290.34375v38.503907h-290.34375zm0 0"/><path d="m16.128906 331.601562h290.34375v38.503907h-290.34375zm0 0"/><path d="m16.128906 422.523438h290.34375v38.503906h-290.34375zm0 0"/></g><path d="m124.878906 50.972656h181.59375v38.503906h-181.59375zm0 0" fill="#1ab975"/><path d="m124.878906 141.894531h181.59375v38.503907h-181.59375zm0 0" fill="#1ab975"/><path d="m124.878906 331.601562h181.59375v38.503907h-181.59375zm0 0" fill="#1ab975"/><path d="m124.878906 422.523438h181.59375v38.503906h-181.59375zm0 0" fill="#1ab975"/><path d="m274.730469 488.066406v-102.679687c0-62.621094-50.746094-113.453125-113.371094-113.429688-88.96875.03125-161.359375-72.339843-161.359375-161.300781v-86.722656c0-13.21875 10.714844-23.933594 23.933594-23.933594 13.222656 0 23.9375 10.714844 23.9375 23.933594v86.722656c0 62.621094 50.746094 113.453125 113.371094 113.429688 88.96875-.03125 161.359374 72.339843 161.359374 161.300781v102.679687c0 13.21875-10.714843 23.933594-23.933593 23.933594s-23.9375-10.714844-23.9375-23.933594zm0 0" fill="#6990d7"/><path d="m47.871094 488.066406v-102.679687c0-62.621094 50.746094-113.453125 113.371094-113.429688 88.96875.03125 161.359374-72.339843 161.359374-161.300781v-86.722656c0-13.21875-10.714843-23.933594-23.933593-23.933594s-23.9375 10.714844-23.9375 23.933594v86.722656c0 62.621094-50.746094 113.453125-113.371094 113.429688-88.96875-.03125-161.359375 72.339843-161.359375 161.300781v102.679687c0 13.21875 10.714844 23.933594 23.933594 23.933594 13.222656 0 23.9375-10.714844 23.9375-23.933594zm0 0" fill="#4172cc"/></svg>