<svg height="512pt" viewBox="-87 0 512 512.0003" width="512pt" xmlns="http://www.w3.org/2000/svg"><path d="m338.25 212.855469v109.933593c0 7.886719-8.660156 12.710938-15.367188 8.570313l-18.574218-11.464844-54.558594-33.683593v-133.621094l34.394531 21.230468 49.320313 30.453126c2.976562 1.84375 4.785156 5.082031 4.785156 8.582031zm0 0" fill="#91aee2"/><path d="m305.394531 313.8125c.089844 2.15625-.296875 4.222656-1.085937 6.082031l-54.558594-33.683593v-133.621094l34.394531 21.230468c10.789063 41.90625 17.9375 85.085938 20.617188 128.179688.253906 3.9375.457031 7.875.632812 11.8125zm0 0" fill="#6990d7"/><path d="m88.5 152.589844v133.621094l-52.480469 32.40625-20.648437 12.742187c-6.710938 4.140625-15.371094-.683594-15.371094-8.570313v-109.933593c0-3.5 1.808594-6.738281 4.785156-8.582031l50.058594-30.902344zm0 0" fill="#91aee2"/><path d="m88.5 152.589844v133.621094l-52.480469 32.40625c-1.25-2.21875-1.925781-4.804688-1.800781-7.546876 2.003906-46.355468 9.183594-92.773437 20.625-137.699218zm0 0" fill="#6990d7"/><path d="m204.152344 388.023438-18.757813 36.652343-9.632812 18.816407c-2.738281 5.390624-10.5 5.429687-13.28125 0l-28.390625-55.46875c-15.371094-25.65625 1.535156-58.679688 30.957031-61.5 1.328125-.132813 2.699219-.195313 4.078125-.195313 31.835938 0 51.132812 34.8125 35.027344 61.695313zm0 0" fill="#ea552d"/><path d="m204.152344 388.023438-18.757813 36.652343-25.390625-49.597656c-9.859375-16.453125-6.441406-35.957031 5.042969-48.554687 1.328125-.132813 2.699219-.195313 4.078125-.195313 31.835938 0 51.132812 34.8125 35.027344 61.695313zm0 0" fill="#ff7c48"/><path d="m256.050781 322.105469-13.632812 45.34375-1.0625 3.546875c-1.5625 5.214844-5.910157 8.722656-10.800781 8.722656h-122.746094c-4.878906 0-9.214844-3.496094-10.789063-8.691406l-14.820312-48.921875zm0 0" fill="#6990d7"/><path d="m256.050781 322.105469-13.632812 45.34375h-108.019531c-4.878907 0-9.214844-3.496094-10.789063-8.691407l-11.109375-36.652343zm0 0" fill="#91aee2"/><path d="m277.445312 313.8125c.347657 8.046875-6.085937 14.777344-14.152343 14.777344h-188.332031c-8.070313 0-14.5-6.730469-14.152344-14.789063 4.539062-105.210937 35.75-210.695312 83.007812-298.472656 6.535156-12.15625 19.519532-17.066406 31.292969-14.785156 8.160156 1.5625 15.726563 6.574219 20.175781 14.992187 44.578125 84.417969 75.238282 185.652344 81.527344 286.464844.253906 3.9375.457031 7.875.632812 11.8125zm0 0" fill="#169b62"/><path d="m276.8125 302h-164.363281c-8.058594 0-14.488281-6.730469-14.140625-14.789062 4.324218-100.535157 33.03125-201.328126 76.800781-286.667969 8.160156 1.5625 15.726563 6.574219 20.175781 14.992187 44.578125 84.417969 75.238282 185.652344 81.527344 286.464844zm0 0" fill="#1ab975"/><g fill="#6990d7"><path d="m108.570312 409.203125c-4.238281 0-7.671874 3.433594-7.671874 7.671875v27.117188c0 4.238281 3.433593 7.671874 7.671874 7.671874 4.234376 0 7.667969-3.433593 7.667969-7.671874v-27.117188c0-4.238281-3.433593-7.671875-7.667969-7.671875zm0 0"/><path d="m77.75 465.941406c-4.238281 0-7.667969 3.433594-7.667969 7.667969v27.121094c0 4.238281 3.429688 7.671875 7.667969 7.671875s7.671875-3.433594 7.671875-7.671875v-27.121094c0-4.234375-3.433594-7.667969-7.671875-7.667969zm0 0"/><path d="m229.683594 409.203125c-4.238282 0-7.671875 3.433594-7.671875 7.671875v27.117188c0 4.238281 3.433593 7.671874 7.671875 7.671874 4.238281 0 7.667968-3.433593 7.667968-7.671874v-27.117188c0-4.238281-3.433593-7.671875-7.667968-7.671875zm0 0"/><path d="m169.125 469.539062c-4.234375 0-7.667969 3.433594-7.667969 7.671876v27.121093c0 4.234375 3.433594 7.667969 7.667969 7.667969 4.238281 0 7.671875-3.433594 7.671875-7.667969v-27.121093c0-4.238282-3.433594-7.671876-7.671875-7.671876zm0 0"/><path d="m260.5 465.941406c-4.234375 0-7.667969 3.433594-7.667969 7.667969v27.121094c0 4.238281 3.433594 7.671875 7.667969 7.671875 4.238281 0 7.671875-3.433594 7.671875-7.671875v-27.121094c0-4.234375-3.433594-7.667969-7.671875-7.667969zm0 0"/></g><path d="m226.355469 221.515625c0 24.789063-15.75 45.886719-37.800781 53.84375-6.0625 2.1875-12.609376 3.382813-19.429688 3.382813-31.609375 0-57.226562-25.617188-57.226562-57.226563 0-31.597656 25.617187-57.226563 57.226562-57.226563 6.820312 0 13.367188 1.195313 19.429688 3.386719 22.050781 7.953125 37.800781 29.0625 37.800781 53.839844zm0 0" fill="#2e5aac"/><path d="m226.355469 221.515625c0 24.789063-15.75 45.886719-37.800781 53.84375-22.046876-7.957031-37.796876-29.054687-37.796876-53.84375 0-24.777344 15.75-45.886719 37.796876-53.839844 22.050781 7.953125 37.800781 29.0625 37.800781 53.839844zm0 0" fill="#4172cc"/></svg>