<svg height="511pt" viewBox="-68 0 511 511.99968" width="511pt" xmlns="http://www.w3.org/2000/svg"><path d="m374.546875 262.984375-87.003906 150.683594c-2.496094 4.320312-7.101563 6.972656-12.089844 6.972656h-173.996094c-4.988281 0-9.589843-2.652344-12.085937-6.972656l-87.007813-150.683594c-2.484375-4.320313-2.484375-9.644531 0-13.96875l87.007813-150.683594c2.496094-4.320312 7.097656-6.972656 12.085937-6.972656h173.996094c4.988281 0 9.59375 2.652344 12.089844 6.972656l87.003906 150.683594c2.488281 4.324219 2.488281 9.648437 0 13.96875zm0 0" fill="#ea552d"/><path d="m374.546875 262.984375-87.003906 150.683594c-2.496094 4.320312-7.101563 6.972656-12.089844 6.972656h-111.371094c-4.980469 0-9.59375-2.652344-12.089843-6.972656l-86.996094-150.683594c-2.496094-4.320313-2.496094-9.644531 0-13.96875l86.996094-150.683594c2.496093-4.320312 7.109374-6.972656 12.089843-6.972656h111.371094c4.988281 0 9.59375 2.652344 12.089844 6.972656l87.003906 150.683594c2.488281 4.324219 2.488281 9.648437 0 13.96875zm0 0" fill="#f76937"/><path d="m317.25 233.140625-144.859375 189.308594-64.449219 84.21875c-13.789062 14.1875-36.628906-2.515625-27.285156-19.960938l83.246094-174.421875c4.4375-9.300781-2.347656-20.042968-12.640625-20.042968h-80.484375c-11.0625 0-17.765625-12.234376-11.792969-21.554688l168.125-262.796875c10.597656-16.378906 35.941406-5.042969 30.796875 13.769531l-26.640625 75.179688-33.6875 95.085937c-3.234375 9.113281 3.53125 18.6875 13.207031 18.6875h95.347656c11.609376 0 18.175782 13.308594 11.117188 22.527344zm0 0" fill="#ffc04b"/><path d="m317.25 233.140625-144.859375 189.308594 52.570313-110.164063c4.4375-9.300781-2.339844-20.042968-12.640626-20.042968h-80.472656c-11.078125 0-17.769531-12.234376-11.808594-21.554688l111.226563-173.847656-33.6875 95.085937c-3.234375 9.113281 3.53125 18.6875 13.207031 18.6875h95.347656c11.609376 0 18.175782 13.308594 11.117188 22.527344zm0 0" fill="#ffd993"/></svg>