<svg height="512pt" viewBox="-42 0 512 512.00078" width="512pt" xmlns="http://www.w3.org/2000/svg"><path d="m324.726562 394.953125c-2.003906 1.992187-2.003906 5.234375 0 7.238281l47.363282 47.367188c13.980468 13.964844 14.835937 36.738281 1.242187 51.089844-3.722656 3.933593-8.082031 6.84375-12.777343 8.730468h-.011719c-13.078125 5.265625-28.609375 2.597656-39.207031-8l-47.910157-47.898437c-30.324219-30.324219-30.324219-79.496094 0-109.828125l67.164063-67.152344c9.273437-9.273438 9.273437-24.292969 0-33.566406-9.269532-9.269532-24.273438-9.285156-33.554688 0l-5.925781 5.921875c-30.324219 30.324219-79.492187 30.324219-109.828125 0l-77.355469-77.363281c-11.460937-11.464844-14.101562-28.851563-7.175781-42.644532 1.511719-3.023437 3.484375-5.871094 5.925781-8.445312.4375-.472656.886719-.917969 1.34375-1.359375 14.21875-13.539063 36.707031-13.328125 50.664063.628906l77.898437 77.886719c1.992188 2.003906 5.234375 2.003906 7.238281 0l19.078126-19.078125c30.324218-30.332031 79.492187-30.332031 109.828124 0l26.316407 26.316406c30.332031 30.332031 30.332031 79.503906 0 109.828125zm0 0" fill="#f2bb88"/><path d="m324.726562 394.953125c-2.003906 1.992187-2.003906 5.234375 0 7.238281l47.363282 47.367188c13.980468 13.964844 14.835937 36.738281 1.242187 51.089844-3.722656 3.933593-8.082031 6.84375-12.777343 8.730468-4.882813-1.742187-9.460938-4.578125-13.363282-8.480468l-47.90625-47.898438c-30.324218-30.324219-30.324218-79.492188 0-109.828125l67.164063-67.152344c9.273437-9.273437 9.273437-24.292969 0-33.566406-4.632813-4.632813-35.519531-36.726563-41.597657-36.726563-11.121093 0-16.179687 6.363282-22.699218 12.878907-30.324219 30.324219-79.492188 30.324219-109.828125 0l-77.355469-77.363281c-3.640625-3.640626-6.382812-7.867188-8.21875-12.394532 1.511719-3.023437 3.484375-5.871094 5.925781-8.445312.4375-.472656.886719-.917969 1.34375-1.359375 14.21875-13.539063 36.707031-13.328125 50.664063.628906l77.898437 77.886719c1.992188 2.003906 5.234375 2.003906 7.238281 0l19.078126-19.078125c30.324218-30.332031 79.492187-30.332031 109.828124 0l26.316407 26.316406c30.332031 30.332031 30.332031 79.503906 0 109.828125zm0 0" fill="#f2d1a5"/><path d="m119.636719 44.761719 43.21875 43.21875c21.453125 21.453125 21.453125 56.558593 0 78.007812l-11.664063 11.664063c-25.292968 25.296875-66.683594 25.296875-91.980468 0l-36.230469-36.234375zm0 0" fill="#f2d1a5"/><g fill="#f2bb88"><path d="m130.457031 55.585938 32.402344 32.398437c21.449219 21.453125 21.449219 56.550781 0 78l-3.675781 3.675781c-.042969.035156-.0625.058594-.0625.058594l-7.480469 7.480469c-3.351563 3.347656-8.914063 2.847656-11.609375-1.046875l-25.445312-36.75c-4.746094-6.851563-7.945313-14.691406-9.027344-22.949219-3.527344-26.855469 14.820312-47.46875 14.820312-47.46875s4.054688-5.597656 10.078125-13.398437zm0 0"/><path d="m29.648438 97.316406 20.9375 20.9375c5.683593 5.683594 5.683593 14.980469 0 20.664063l-4.726563 4.726562c-5.683594 5.683594-14.980469 5.683594-20.664063 0l-20.9375-20.9375c-3.964843-3.960937-5.160156-9.6875-3.589843-14.714843 1.292969-4.183594 3.441406-5.796876 8.320312-10.675782 5.679688-5.683594 14.980469-5.683594 20.660157 0zm0 0"/><path d="m47.75 64.519531 28.585938 28.589844c6.328124 6.328125 6.328124 16.679687 0 23.007813l-2.378907 2.378906c-6.328125 6.328125-16.679687 6.328125-23.007812 0l-28.585938-28.589844c-4.15625-4.152344-5.585937-10.046875-4.28125-15.394531 1.21875-4.992188 3.957031-7.289063 6.660157-9.992188 6.328124-6.328125 16.679687-6.328125 23.007812 0zm0 0"/><path d="m67.886719 33.855469 33.210937 33.210937c6.679688 6.683594 6.675782 17.613282 0 24.292969l-1.101562 1.101563c-6.679688 6.675781-17.609375 6.679687-24.292969 0l-33.210937-33.210938c-6.695313-6.695312-6.660157-17.632812 0-24.292969 8.902343-8.898437 19.492187-7 25.394531-1.101562zm0 0"/><path d="m89.996094 5.183594 36.113281 36.113281c6.890625 6.890625 6.886719 18.164063-.003906 25.054687l-.335938.335938c-6.890625 6.890625-18.164062 6.890625-25.054687.003906l-36.113282-36.117187c-6.492187-6.488281-7.410156-17.644531.335938-25.390625 6.890625-6.890625 18.167969-6.890625 25.058594 0zm0 0"/></g><path d="m29.648438 97.316406 15.996093 15.992188c-.675781 2.183594-1.871093 4.230468-3.589843 5.949218l-4.730469 4.730469c-5.679688 5.679688-14.980469 5.679688-20.65625.003907l-15.996094-15.996094c1.292969-4.1875 3.4375-5.800782 8.316406-10.679688 5.679688-5.683594 14.980469-5.683594 20.660157 0zm0 0" fill="#f2d1a5"/><path d="m47.75 64.519531 24.328125 24.332031c-.679687 2.796876-2.105469 5.4375-4.277344 7.609376l-2.375 2.378906c-6.328125 6.328125-16.683593 6.332031-23.011719.003906l-24.332031-24.332031c1.21875-4.992188 3.957031-7.289063 6.660157-9.992188 6.328124-6.328125 16.679687-6.328125 23.007812 0zm0 0" fill="#f2d1a5"/><path d="m67.886719 33.855469 29.308593 29.3125c-.667968 3.132812-2.214843 6.113281-4.632812 8.53125l-1.101562 1.101562c-6.679688 6.679688-17.605469 6.683594-24.289063 0l-29.308594-29.304687c2.605469-12.34375 19.292969-20.367188 30.023438-9.640625zm0 0" fill="#f2d1a5"/><path d="m89.996094 5.183594 32.410156 32.414062c-.648438 3.335938-2.261719 6.523438-4.835938 9.09375l-.339843.339844c-6.886719 6.886719-18.15625 6.890625-25.046875 0l-32.417969-32.417969c2.609375-13.390625 19.769531-19.890625 30.230469-9.429687zm0 0" fill="#f2d1a5"/><path d="m103.589844 18.78125 18.816406 18.816406c-.648438 3.335938-2.261719 6.523438-4.835938 9.09375l-.339843.339844c-6.886719 6.886719-18.15625 6.890625-25.046875 0l-12.101563-12.101562c-.46875-3.65625.855469-7.191407 3.316407-9.652344 1.609374-1.609375 3.699218-2.757813 6.097656-3.191406l5.988281-1.078126zm0 0" fill="#f2bb88"/><path d="m157.210938 23.191406c-7.488282-7.488281-18.167969-10.832031-28.585938-8.957031-32.757812 5.898437-32.398438 5.265625-35.457031 8.320313-2.390625 2.394531-3.625 5.882812-2.984375 9.453124 2.171875 12.050782 13.808594 20.136719 25.859375 17.964844 2.421875-.277344 10.023437-1.15625 10.023437-1.15625 4.175782-.296875 6.65625 4.671875 4.15625 8.03125-4.886718 6.5625-13.019531 24.503906-8.238281 47.632813 1.421875 6.882812 4.378906 13.363281 8.382813 19.140625l19.421874 28.050781c5.832032 8.421875 17.867188 9.507813 25.105469 2.265625 31.097657-31.097656 31.09375-81.992188-.003906-113.085938-11.761719-11.765624-17.679687-17.660156-17.679687-17.660156zm0 0" fill="#f2d1a5"/><path d="m158.171875 170.675781-6.980469 6.976563c-25.292968 25.296875-66.683594 25.296875-91.980468 0l-29.253907-29.253906c-3.855469-3.855469-3.855469-10.101563 0-13.957032 3.851563-3.851562 10.101563-3.851562 13.953125 0l36.230469 36.230469c21.460937 21.457031 56.574219 21.457031 78.03125.003906zm0 0" fill="#f2bb88"/></svg>