<svg height="512pt" viewBox="0 -86 512.00054 512" width="512pt" xmlns="http://www.w3.org/2000/svg"><g fill="#6990d7"><path d="m402.375 252.546875c-10.632812 0-282.097656 0-292.746094 0-4.3125 0-6.746094 4.941406-4.121094 8.363281l33.96875 44.214844c.984376 1.28125 2.507813 2.03125 4.121094 2.03125h224.804688c1.617187 0 3.136718-.753906 4.121094-2.03125l33.972656-44.214844c2.625-3.417968.1875-8.363281-4.121094-8.363281zm0 0"/><path d="m454.582031 172.070312c-7.636719 0-352.832031 0-397.164062 0-4.3125 0-6.75 4.945313-4.121094 8.363282l33.96875 44.214844c.984375 1.28125 2.503906 2.03125 4.121094 2.03125h329.226562c1.613281 0 3.136719-.75 4.121094-2.03125l33.96875-44.214844c2.628906-3.417969.191406-8.363282-4.121094-8.363282zm0 0"/><path d="m506.792969 91.597656c-6.164063 0-495.421875 0-501.585938 0-4.3125 0-6.746093 4.941406-4.121093 8.363282l33.96875 44.214843c.984374 1.28125 2.507812 2.03125 4.121093 2.03125h433.648438c1.613281 0 3.136719-.753906 4.121093-2.03125l33.96875-44.214843c2.625-3.421876.191407-8.363282-4.121093-8.363282zm0 0"/></g><path d="m350.488281 295.546875c-18.757812 21.417969-41.722656 35.695313-66.414062 41.617187-8.558594 2.058594-17.316407 3.113282-26.191407 3.113282h-.011718c-35.257813-.011719-69.082032-16.476563-95.277344-46.371094-42.28125-48.265625-60.417969-125.015625-51.828125-217.652344.160156-1.734375 1.492187-3.121094 3.21875-3.394531 59.546875-9.359375 109.460937-45.320313 139.304687-71.902344 1.449219-1.292969 3.617188-1.261719 5.046876.019531 7.714843 6.917969 15.644531 13.417969 23.742187 19.472657 37.042969 27.707031 77.421875 46.058593 115.769531 52.324219 1.714844.285156 3.027344 1.660156 3.195313 3.386718 8.960937 94.265625-8.738281 171.636719-50.554688 219.386719zm0 0" fill="#1ab975"/><path d="m350.488281 295.546875c-18.757812 21.417969-41.722656 35.695313-66.414062 41.617187-25.507813-6.089843-49.335938-20.925781-68.902344-43.257812-42.28125-48.265625-60.421875-125.015625-51.832031-217.652344.160156-1.734375 1.496094-3.121094 3.21875-3.394531 45.78125-7.195313 85.867187-30.117187 115.519531-52.410156 37.042969 27.707031 77.421875 46.058593 115.769531 52.324219 1.714844.285156 3.027344 1.660156 3.195313 3.386718 8.960937 94.265625-8.738281 171.636719-50.554688 219.386719zm0 0" fill="#1ed688"/><path d="m276.027344 48.851562-87.109375 136.160157c-3.09375 4.828125.375 11.167969 6.113281 11.167969h41.695312c5.339844 0 8.851563 5.566406 6.550782 10.382812l-43.128906 90.375c-4.839844 9.03125 6.988281 17.6875 14.132812 10.339844l108.453125-141.722656c3.652344-4.777344.246094-11.667969-5.765625-11.667969h-49.402344c-5.011718 0-8.511718-4.960938-6.839844-9.683594l31.257813-88.214844c2.664063-9.75-10.464844-15.625-15.957031-7.136719zm0 0" fill="#4172cc"/></svg>