<svg height="512pt" viewBox="0 -17 512.0004 512" width="512pt" xmlns="http://www.w3.org/2000/svg"><path d="m510.308594 430.457031c3.472656 3.152344 1.246094 8.921875-3.445313 8.921875h-501.726562c-4.691407 0-6.917969-5.769531-3.441407-8.921875l25.609376-23.25c2.484374-2.265625 2.484374-6.175781 0-8.441406l-25.609376-23.253906c-3.476562-3.148438-1.25-8.921875 3.441407-8.921875h501.726562c4.691407 0 6.917969 5.773437 3.445313 8.921875l-25.613282 23.253906c-2.484374 2.265625-2.484374 6.175781 0 8.441406zm0 0" fill="#ff7c48"/><path d="m459.75 366.589844c-19.488281 30.65625-44.039062 54.90625-71.59375 72.789062h-259.640625c-28.089844-17.9375-53.230469-42.214844-73.3125-72.789062zm0 0" fill="#ea552d"/><path d="m454.722656 105.960938c-.460937-3.464844-3.347656-6.074219-6.84375-6.203126-69.9375-2.523437-141.195312-48.519531-188.425781-97.566406-2.804687-2.914062-7.4375-2.921875-10.25-.023437-48.410156 49.902343-118.667969 95.105469-188.40625 97.59375-3.496094.125-6.386719 2.738281-6.847656 6.207031-65.070313 490.285156 467.351562 500.117188 400.773437-.007812zm0 0" fill="#1ab975"/><path d="m364.902344 391.277344c-24.019532 27.421875-53.945313 44.828125-85.941406 50.371094-7.34375 1.265624-14.789063 1.914062-22.296876 1.914062-.007812 0-.007812 0-.019531 0-41.199219-.011719-80.753906-19.261719-111.359375-54.199219-49.421875-56.421875-70.625-146.128906-60.578125-254.398437.183594-2.027344 1.746094-3.652344 3.753907-3.972656 69.605468-10.949219 127.941406-52.972657 162.828124-84.050782 1.683594-1.5 4.222657-1.476562 5.898438.03125 6.339844 5.6875 12.796875 11.125 19.359375 16.3125 45.546875 35.992188 95.96875 59.8125 143.71875 67.601563 1.996094.332031 3.535156 1.945312 3.734375 3.960937 10.46875 110.183594-10.222656 200.621094-59.097656 256.429688zm0 0" fill="#1ed688"/><path d="m364.902344 391.277344c-24.019532 27.421875-53.945313 44.828125-85.941406 50.371094-32.972657-5.667969-63.953126-23.742188-88.960938-52.285157-49.421875-56.421875-70.625-146.128906-60.582031-254.398437.1875-2.027344 1.746093-3.652344 3.753906-3.972656 57.941406-9.121094 108.074219-39.765626 143.375-67.707032 45.546875 35.992188 95.96875 59.8125 143.71875 67.601563 1.996094.332031 3.535156 1.945312 3.734375 3.960937 10.46875 110.183594-10.222656 200.621094-59.097656 256.429688zm0 0" fill="#35e298"/><path d="m326.835938 264.914062c-3.566407 3.472657-5.191407 8.484376-4.347657 13.382813l9.214844 53.75c2.121094 12.351563-10.847656 21.773437-21.941406 15.941406l-48.261719-25.371093c-4.40625-2.320313-9.667969-2.320313-14.078125 0l-22.597656 11.875-25.664063 13.496093c-11.09375 5.832031-24.0625-3.589843-21.9375-15.941406l9.210938-53.75c.84375-4.898437-.78125-9.910156-4.347656-13.382813l-39.046876-38.058593c-8.972656-8.746094-4.023437-23.988281 8.382813-25.789063l53.957031-7.851562c4.929688-.707032 9.183594-3.804688 11.386719-8.265625l24.136719-48.90625c5.542968-11.230469 21.574218-11.230469 27.117187 0l10.359375 20.984375 13.777344 27.921875c2.203125 4.460937 6.457031 7.558593 11.386719 8.265625l53.957031 7.851562c12.40625 1.800782 17.355469 17.042969 8.382812 25.789063zm0 0" fill="#ff7c48"/><path d="m326.835938 264.914062c-3.566407 3.472657-5.191407 8.484376-4.347657 13.382813l9.214844 53.75c2.121094 12.351563-10.847656 21.773437-21.941406 15.941406l-48.261719-25.371093c-4.40625-2.320313-9.667969-2.320313-14.078125 0l-22.597656 11.875c.011719-.792969.085937-1.613282.230469-2.445313l9.210937-53.75c.84375-4.898437-.777344-9.910156-4.34375-13.382813l-39.046875-38.058593c-8.976562-8.746094-4.023438-23.988281 8.378906-25.789063l53.960938-7.851562c4.925781-.707032 9.179687-3.804688 11.386718-8.265625l13.777344-27.921875 13.777344 27.921875c2.203125 4.460937 6.457031 7.558593 11.386719 8.265625l53.957031 7.851562c12.40625 1.800782 17.355469 17.042969 8.382812 25.789063zm0 0" fill="#ff956a"/></svg>