<svg height="512pt" viewBox="0 -121 512 512" width="512pt" xmlns="http://www.w3.org/2000/svg"><path d="m512 149.621094v118.15625c0 1.671875-1.316406 3.019531-2.9375 3.019531h-506.125c-1.621094 0-2.9375-1.347656-2.9375-3.019531v-118.15625c0-6.902344 4.699219-12.847656 11.269531-14.308594 6.617188-1.464844 15.769531-4.785156 26.4375-9.847656 24.941407-11.828125 58.183594-33.160156 86.65625-62.523438 3.226563-3.320312 7.769531-4.910156 12.285157-4.160156 23.355468 3.878906 97.054687-8.789062 116.621093-56.902344.054688-.132812.125-.269531.1875-.394531.695313-1.214844 2.015625-1.679687 3.195313-1.4101562.871094.1953122 1.671875.7968752 2.078125 1.8046872 19.566406 48.113282 93.265625 60.78125 116.621093 56.902344 4.515626-.75 9.058594.839844 12.285157 4.160156 40.640625 41.917969 91.003906 67.472656 113.09375 72.371094 6.570312 1.460938 11.269531 7.40625 11.269531 14.308594zm0 0" fill="#dd3f95"/><path d="m512 149.621094v89.011718h-471.171875c-1.722656 0-3.121094-1.433593-3.121094-3.195312v-109.972656c24.941407-11.828125 58.183594-33.160156 86.65625-62.523438 3.226563-3.320312 7.769531-4.910156 12.285157-4.160156 23.355468 3.878906 97.054687-8.789062 116.621093-56.902344.054688-.132812.125-.269531.1875-.394531 1.070313-.457031 2.136719-.921875 3.195313-1.4101562.871094.1953122 1.671875.7968752 2.078125 1.8046872 19.566406 48.113282 93.265625 60.78125 116.621093 56.902344 4.515626-.75 9.058594.839844 12.285157 4.160156 40.640625 41.917969 91.003906 67.472656 113.09375 72.371094 6.570312 1.460938 11.269531 7.40625 11.269531 14.308594zm0 0" fill="#e25ca5"/><path d="m270.554688 54.414062-63.304688 102.074219c-2.246094 3.621094.273438 8.375 4.441406 8.375h30.300782c3.878906 0 6.429687 4.171875 4.761718 7.785157l-31.34375 67.75c-3.515625 6.769531 5.078125 13.257812 10.273438 7.75l78.808594-106.246094c2.65625-3.578125.183593-8.746094-4.1875-8.746094h-35.898438c-3.644531 0-6.1875-3.714844-4.972656-7.257812l22.714844-66.132813c1.9375-7.308594-7.605469-11.710937-11.59375-5.351563zm0 0" fill="#ff956a"/></svg>