<svg height="512pt" viewBox="0 -136 512 512" width="512pt" xmlns="http://www.w3.org/2000/svg"><path d="m510.953125 122.25c-63.0625 61.953125-160.875 117.269531-254.953125 117.269531-129.992188 0-237.480469-100.101562-254.953125-117.269531-1.394531-1.367188-1.394531-3.613281 0-4.980469 17.472656-17.167969 124.960937-117.269531 254.953125-117.269531 94.402344 0 192.535156 55.949219 254.953125 117.269531 1.394531 1.367188 1.394531 3.613281 0 4.980469zm0 0" fill="#d2d2d7"/><path d="m510.953125 122.25c-16.148437 15.863281-109.179687 102.558594-225.796875 115.617188-116.621094-13.058594-209.652344-99.753907-225.808594-115.617188-1.386718-1.367188-1.386718-3.613281 0-4.980469 16.15625-15.863281 109.1875-102.5625 225.808594-115.621093 116.617188 13.058593 209.648438 99.757812 225.796875 115.621093 1.394531 1.367188 1.394531 3.613281 0 4.980469zm0 0" fill="#ebebf0"/><path d="m375.757812 119.757812c0 58.984376-42.621093 107.992188-98.746093 117.921876-73.492188 13.023437-140.769531-43.464844-140.769531-117.921876 0-66.144531 53.609374-119.757812 119.757812-119.757812 66.152344 0 119.757812 53.617188 119.757812 119.757812zm0 0" fill="#f76937"/><path d="m375.757812 119.757812c0 58.984376-42.621093 107.992188-98.746093 117.921876-56.125-9.929688-98.746094-58.9375-98.746094-117.921876 0-58.980468 42.621094-107.992187 98.746094-117.917968 56.125 9.925781 98.746093 58.9375 98.746093 117.917968zm0 0" fill="#ff7c48"/><g fill="#d63030"><path d="m279.113281 197.15625c0 12.761719-10.347656 23.113281-23.113281 23.113281s-23.113281-10.351562-23.113281-23.113281c0-12.765625 10.347656-23.113281 23.113281-23.113281s23.113281 10.347656 23.113281 23.113281zm0 0"/><path d="m256 154.429688c10.789062 0 19.613281-8.824219 19.613281-19.613282v-97.355468c0-10.78125-8.820312-19.613282-19.613281-19.613282-10.785156 0-19.609375 8.828125-19.609375 19.613282v97.355468c0 10.785156 8.820313 19.613282 19.609375 19.613282zm0 0"/></g></svg>