<svg height="512pt" viewBox="0 0 512.0001 512" width="512pt" xmlns="http://www.w3.org/2000/svg"><path d="m398.351562 255.996094c38.007813-44.605469 93.832032-117.675782 109.488282-173.878906 16.617187-59.625-18.230469-94.597657-77.957032-77.957032-55.347656 15.421875-134.492187 74.449219-173.882812 109.484375-56.726562-48.320312-188.65625-151.78125-241.394531-99.042969-52.636719 52.636719 50.332031 184.246094 99.050781 241.394532-48.089844 56.4375-151.855469 188.597656-99.050781 241.402344 52.628906 52.628906 184.191406-50.308594 241.398437-99.054688 56.699219 48.320312 188.644532 151.796875 241.394532 99.050781 52.734374-52.734375-50.695313-184.636719-99.046876-241.398437zm47.597657-189.945313c-9.078125 41.160157-62.503907 110.402344-89.78125 143-1.066407-1.160156-24.402344-25.992187-53.402344-53.367187 32.988281-26.40625 101.109375-80.355469 143.183594-89.632813zm-379.886719.003907c41.167969 9.089843 110.535156 62.601562 142.996094 89.785156-17.800782 16.820312-35.53125 34.503906-53.214844 53.210937-26.433594-30.207031-81.132812-103.65625-89.78125-142.996093zm-.007812 379.890624c9.082031-41.171874 62.546874-110.453124 89.785156-143.003906.707031 1.0625 27.464844 28.898438 53.226562 53.207032.796875 1.0625-95.707031 79.363281-143.011718 89.796874zm189.949218-131.390624c-19.40625-18.144532-39.226562-37.882813-58.558594-58.558594 18.664063-19.953125 38.175782-39.492188 58.558594-58.558594 20.03125 18.730469 39.789063 38.488281 58.558594 58.558594-18.664062 19.953125-38.175781 39.492187-58.558594 58.558594zm46.945313 41.601562c17.679687-16.707031 35.414062-34.382812 53.214843-53.214844 3.535157 3.859375 78.867188 93.679688 89.792969 143.007813-41.183593-9.082031-110.675781-62.71875-143.007812-89.792969zm0 0" fill="#6990d7"/><path d="m429.882812 4.160156c59.625-16.613281 94.601563 18.234375 77.957032 77.957032-35.96875 129.101562-296.597656 389.742187-425.71875 425.71875-59.625 16.613281-94.59375-18.234376-77.957032-77.957032 35.964844-129.089844 296.554688-389.734375 425.71875-425.71875zm16.066407 61.890625c-11.34375 2.503907-34.574219 11.453125-72.324219 36.449219-135.367188 89.644531-291.640625 271.222656-307.570312 343.445312 72.449218-15.984374 253.988281-172.484374 343.445312-307.570312 25-37.75 33.949219-60.980469 36.449219-72.324219zm0 0" fill="#4172cc"/><path d="m507.84375 429.882812c-15.660156-56.195312-71.496094-129.285156-109.492188-173.886718-30.160156-35.390625-63.347656-69.894532-95.410156-100.152344-14.683594 12.273438-30.765625 26.460938-46.9375 41.59375 101.039063 94.480469 179.246094 200.1875 189.953125 248.511719-41.179687-9.082031-110.667969-62.710938-143.015625-89.800781-15.675781 14.824218-31.382812 28.941406-46.9375 42.195312 44.273438 37.730469 117.558594 93.789062 173.875 109.496094 59.730469 16.632812 94.570313-18.34375 77.964844-77.957032zm-352.003906-220.832031c-27.226563-32.519531-80.746094-101.902343-89.777344-142.996093 41.171875 9.089843 110.546875 62.609374 143.003906 89.789062 12.996094-12.351562 30.441406-28.140625 46.9375-42.195312-44.597656-37.992188-117.691406-93.832032-173.886718-109.492188-59.710938-16.632812-94.558594 18.335938-77.957032 77.964844 15.664063 56.175781 71.476563 129.273437 109.496094 173.875 13.253906 15.558594 27.371094 31.273437 42.183594 46.949218 8.527344 9.011719 17.277344 18.027344 26.238281 26.976563s17.964844 17.710937 26.988281 26.226563c15.503906-12.96875 31.253906-26.914063 46.9375-41.59375-34.625-32.375-69.382812-68.707032-100.164062-105.503907zm0 0" fill="#6990d7"/><path d="m328.644531 257.617188c0 31.761718-20.382812 58.761718-48.78125 68.625-46.835937 16.367187-96.503906-18.4375-96.503906-68.625 0-50.28125 49.746094-84.960938 96.503906-68.621094 28.398438 9.863281 48.78125 36.863281 48.78125 68.621094zm0 0" fill="#f76937"/><path d="m328.644531 257.617188c0 31.761718-20.382812 58.761718-48.78125 68.625-28.398437-9.863282-48.78125-36.863282-48.78125-68.625 0-31.757813 20.382813-58.757813 48.78125-68.621094 28.398438 9.863281 48.78125 36.863281 48.78125 68.621094zm0 0" fill="#ff7c48"/></svg>