<svg height="511pt" viewBox="0 -15 511.9999 511" width="511pt" xmlns="http://www.w3.org/2000/svg"><path d="m281.199219 285.15625c-12.992188 12.992188-103.332031 103.449219-157.175781 157.34375-19.476563 19.496094-34.183594 34.214844-38.722657 38.75-3.390625 3.390625-11.679687-1.671875-12.816406-7.832031l-8.375-45.410157c-.816406-4.425781-5.351563-8.960937-9.765625-9.777343l-45.421875-8.375c-6.160156-1.136719-11.222656-9.425781-7.832031-12.816407 16.972656-16.972656 175.898437-176.105468 195.886718-196.097656l19.660157 19.652344zm0 0" fill="#6990d7"/><path d="m281.199219 285.15625c-12.992188 12.992188-103.332031 103.449219-157.175781 157.34375l-5.46875-29.65625c-.816407-4.425781-5.355469-8.953125-9.78125-9.769531l-45.40625-8.382813c-6.160157-1.136718-11.226563-9.425781-7.835938-12.816406 12.878906-12.878906 107.480469-107.605469 161.105469-161.28125zm0 0" fill="#91aee2"/><path d="m503.078125 409.855469-45.421875 8.375c-4.414062.816406-8.949219 5.351562-9.765625 9.777343l-8.375 45.410157c-1.136719 6.160156-9.425781 11.222656-12.816406 7.832031-17.097657-17.085938-178.203125-178.398438-195.898438-196.09375l21.695313-21.699219 62.527344-62.515625c15.285156 15.289063 111.871093 112 164.03125 164.21875 16.03125 16.042969 27.867187 27.890625 31.855468 31.878906 3.390625 3.390626-1.671875 11.679688-7.832031 12.816407zm0 0" fill="#6990d7"/><path d="m479.054688 365.160156-26.214844 4.839844c-4.421875.816406-8.960938 5.34375-9.777344 9.765625l-8.375 45.417969c-1.136719 6.152344-9.425781 11.21875-12.816406 7.828125-13.582032-13.582031-118.15625-118.285157-169.375-169.554688l62.527344-62.515625c15.285156 15.289063 111.871093 112 164.03125 164.21875zm0 0" fill="#91aee2"/><path d="m372.78125 222.050781c-5.746094 5.601563-8.371094 13.675781-7.015625 21.59375l14.875 86.722657c.566406 3.320312.464844 6.503906-.1875 9.457031-3.265625 14.84375-20.289063 24.105469-35.21875 16.261719l-56.15625-29.523438-21.730469-11.421875c-7.097656-3.742187-15.597656-3.742187-22.699218 0l-46.945313 24.683594-30.9375 16.261719c-17.90625 9.414062-38.824219-5.789063-35.40625-25.71875l14.875-86.722657c1.355469-7.917969-1.269531-15.992187-7.019531-21.59375l-63.011719-61.421875c-14.480469-14.117187-6.488281-38.710937 13.523437-41.613281l87.085938-12.664063c7.949219-1.148437 14.8125-6.140624 18.367188-13.34375l38.9375-78.910156c8.953124-18.128906 34.8125-18.128906 43.765624 0l11.195313 22.6875 27.742187 56.222656c3.554688 7.203126 10.417969 12.195313 18.367188 13.34375l87.085938 12.664063c20.011718 2.902344 28.003906 27.496094 13.523437 41.613281zm0 0" fill="#f76937"/><path d="m372.78125 222.050781c-5.746094 5.601563-8.371094 13.675781-7.015625 21.59375l14.875 86.722657c.566406 3.320312.464844 6.503906-.1875 9.457031-3.265625 14.84375-20.289063 24.105469-35.21875 16.261719l-56.15625-29.523438-21.730469-11.421875c-7.097656-3.742187-15.597656-3.742187-22.699218 0l-46.945313 24.683594c-.652344-2.953125-.757813-6.136719-.1875-9.457031l14.875-86.722657c1.351563-7.917969-1.273437-15.992187-7.019531-21.59375l-63.011719-61.421875c-14.480469-14.117187-6.492187-38.710937 13.519531-41.613281l87.085938-12.664063c7.949218-1.148437 14.8125-6.140624 18.367187-13.34375l27.746094-56.222656 27.742187 56.222656c3.554688 7.203126 10.417969 12.195313 18.367188 13.34375l87.085938 12.664063c20.011718 2.902344 28.003906 27.496094 13.523437 41.613281zm0 0" fill="#ff7c48"/></svg>