<svg height="512pt" viewBox="0 0 512 512" width="512pt" xmlns="http://www.w3.org/2000/svg"><path d="m512 256c0 132.78125-101.09375 241.945312-230.507812 254.746094-8.378907.828125-16.886719 1.253906-25.492188 1.253906-141.382812 0-256-114.617188-256-256s114.617188-256 256-256c141.34375 0 256 114.582031 256 256zm0 0" fill="#f76937"/><path d="m512 256c0 132.78125-101.09375 241.945312-230.507812 254.746094-129.410157-12.800782-230.503907-121.964844-230.503907-254.746094s101.09375-241.945312 230.503907-254.746094c129.414062 12.800782 230.507812 121.964844 230.507812 254.746094zm0 0" fill="#ff7c48"/><g fill="#4b5055"><path d="m300.613281 256c0 18.078125-10.800781 33.671875-26.289062 40.671875-5.597657 2.53125-11.800781 3.941406-18.324219 3.941406-24.601562 0-44.613281-20.011719-44.613281-44.613281s20.011719-44.613281 44.613281-44.613281c6.523438 0 12.726562 1.410156 18.324219 3.941406 15.488281 7 26.289062 22.59375 26.289062 40.671875zm0 0"/><path d="m339.449219 67.230469-42.710938 113.394531c-1.699219 4.523438-6.808593 6.667969-11.261719 4.800781-18.824218-7.882812-40.160156-7.871093-58.953124 0-4.453126 1.867188-9.5625-.277343-11.261719-4.800781l-42.710938-113.394531c-1.636719-4.347657.519531-9.179688 4.832031-10.890625 50.328126-19.886719 106.824219-19.902344 157.234376 0 4.3125 1.710937 6.46875 6.542968 4.832031 10.890625zm0 0"/><path d="m208.359375 326.066406-62.398437 86.402344-8.570313 11.875c-2.816406 3.898438-8.285156 4.652344-12.097656 1.722656-39.71875-30.605468-68.464844-74.785156-79.214844-125.527344-.953125-4.535156 1.882813-9.007812 6.40625-10.046874l118.132813-27.015626c4.492187-1.027343 8.871093 1.722657 10.070312 6.078126.0625.234374.128906.476562.167969.722656 3.359375 17.695312 12.832031 33.257812 26.121093 44.378906 3.390626 2.835938 3.964844 7.828125 1.382813 11.410156zm0 0"/><path d="m465.921875 300.539062c-9.253906 43.660157-31.816406 82.453126-63.238281 111.929688-5.097656 4.789062-10.429688 9.324219-15.976563 13.597656-3.8125 2.929688-9.28125 2.175782-12.097656-1.722656l-70.96875-98.277344c-2.582031-3.582031-2.007813-8.574218 1.382813-11.410156 13.289062-11.121094 22.761718-26.683594 26.121093-44.378906.902344-4.769532 5.5-7.882813 10.238281-6.800782l26.578126 6.078126 91.554687 20.9375c4.523437 1.039062 7.359375 5.511718 6.40625 10.046874zm0 0"/></g><path d="m300.613281 256c0 18.078125-10.800781 33.671875-26.289062 40.671875-15.488281-7-26.292969-22.59375-26.292969-40.671875s10.804688-33.671875 26.292969-40.671875c15.488281 7 26.289062 22.59375 26.289062 40.671875zm0 0" fill="#5a5f64"/><path d="m339.449219 67.230469-42.710938 113.394531c-1.699219 4.523438-6.808593 6.667969-11.261719 4.800781-10.804687-4.527343-22.371093-6.445312-33.925781-5.78125l-42.363281-112.414062c-1.636719-4.347657.53125-9.179688 4.84375-10.890625 18.9375-7.476563 39.1875-12.34375 60.292969-14.136719 21.105469 1.792969 41.351562 6.660156 60.292969 14.136719 4.3125 1.710937 6.46875 6.542968 4.832031 10.890625zm0 0" fill="#5a5f64"/><path d="m208.359375 326.066406-62.398437 86.402344c-31.417969-29.476562-53.980469-68.269531-63.234376-111.929688-.964843-4.535156 1.882813-9.007812 6.40625-10.046874l91.554688-20.9375c.0625.234374.128906.476562.167969.722656 3.359375 17.695312 12.832031 33.257812 26.121093 44.378906 3.390626 2.835938 3.964844 7.828125 1.382813 11.410156zm0 0" fill="#5a5f64"/><path d="m465.921875 300.539062c-9.253906 43.660157-31.816406 82.453126-63.238281 111.929688l-62.394532-86.402344c-2.582031-3.582031-2.007812-8.574218 1.371094-11.410156 13.296875-11.121094 22.773438-26.683594 26.128906-44.378906.042969-.246094.105469-.488282.171876-.722656l91.554687 20.9375c4.523437 1.039062 7.359375 5.511718 6.40625 10.046874zm0 0" fill="#5a5f64"/></svg>