<svg height="511pt" viewBox="0 -5 511.99965 511" width="511pt" xmlns="http://www.w3.org/2000/svg"><path d="m217.304688 251.25 43.875-77.207031c1.378906-2.429688 4.988281-2.070313 5.863281.585937l25.4375 77.320313c.691406 2.101562 3.246093 2.898437 5.007812 1.558593l117.566407-89.238281c2.648437-2.007812 6.234374.820313 4.898437 3.863281l-45.980469 104.789063c-.898437 2.050781.515625 4.375 2.753906 4.511719l63.261719 3.925781c3.25.199219 4.183594 4.546875 1.304688 6.066406l-64.835938 34.171875c-2.050781 1.082032-2.320312 3.910156-.515625 5.363282l63.175782 50.839843c2.5625 2.0625.753906 6.183594-2.5 5.695313l-80.390626-12.0625c-2.429687-.367188-4.355468 2.015625-3.492187 4.316406l41.660156 111.234375c1.257813 3.363281-3.097656 5.957031-5.453125 3.242187l-86.011718-99.207031c-1.660157-1.917969-4.78125-1.253906-5.515626 1.171875l-32.578124 107.242188c-.886719 2.929687-4.980469 3.082031-6.085938.226562l-42.234375-109c-.902344-2.332031-4-2.792968-5.539063-.824218l-62.972656 80.285156c-1.992187 2.539062-6.066406.902344-5.742187-2.308594l9.503906-94.765625c.230469-2.308594-1.980469-4.09375-4.1875-3.390625l-66.0625 21.132812c-2.960937.949219-5.414063-2.4375-3.59375-4.957031l42.699219-59.074219c.726562-1.003906.8125-2.335937.222656-3.421874l-44.042969-81.3125c-1.355469-2.503907.964844-5.40625 3.703125-4.640626l67.285156 18.839844c2.164063.605469 4.265626-1.132812 4.082032-3.371094l-9.472656-113.820312c-.289063-3.457031 4.34375-4.863281 6.027343-1.828125l63.261719 114.023437c1.21875 2.195313 4.375 2.210938 5.617188.023438zm0 0" fill="#f76937"/><path d="m236.242188 383.015625c-3.683594-9.5-12.667969-15.625-22.867188-15.570313-7.609375.035157-14.71875 3.816407-19.417969 9.804688l-19.292969 24.597656c-1.507812 1.921875-4.59375.683594-4.347656-1.75l2.5-24.9375c1.746094-17.417968-14.972656-31-31.683594-25.652344l-7.039062 2.25c-2.246094.71875-4.105469-1.84375-2.726562-3.753906l6.402343-8.855468c5.453125-7.53125 6.113281-17.699219 1.675781-25.894532l-21.132812-39.019531c-1.027344-1.894531.726562-4.09375 2.804688-3.511719 22.777343 6.375 23.207031 6.773438 27.550781 6.773438 14.210937 0 25.472656-12.179688 24.285156-26.410156l-1.609375-19.351563c-.21875-2.621094 3.289062-3.6875 4.566406-1.386719l17.273438 31.136719c9.222656 16.625 33.140625 16.726563 42.519531.210937l21.164063-37.242187c1.046874-1.839844 3.777343-1.566406 4.441406.441406l11.074218 33.667969c5.269532 16.019531 24.675782 21.835938 37.898438 11.796875l55.054688-41.789063c2.003906-1.523437 4.722656.621094 3.710937 2.925782l-14.445313 32.925781c-5.648437 12.855469.730469 27.921875 14.058594 32.726563 2.007813.726562 2.257813 3.453124.367188 4.449218l-1.878906.988282c-16.578126 8.742187-17.835938 30.105468-4.46875 40.855468l4.527343 3.644532c1.941407 1.5625.570313 4.6875-1.894531 4.316406-6.203125-.929688-7.25-1.164063-9.578125-1.164063-16.945313 0-28.789063 16.976563-22.816406 32.929688l1.925781 5.144531c.953125 2.550781-2.347656 4.511719-4.128906 2.453125l-11.800782-13.609375c-12.417968-14.324219-36.113281-9.671875-41.746093 8.890625l-15.414063 50.734375c-.671875 2.222656-3.773437 2.335938-4.609375.171875zm0 0" fill="#ff7c48"/><path d="m324.707031 148.4375 89.832031-124.234375c1.085938-1.503906 3.414063-.183594 2.683594 1.519531l-60.390625 140.914063c-4.9375 11.523437-19.640625 14.945312-29.160156 6.785156-7.335937-6.289063-8.628906-17.152344-2.964844-24.984375zm0 0" fill="#ff7c48"/><path d="m195.710938 124.171875 6.160156-122.199219c.09375-1.847656 2.765625-2.0117185 3.082031-.183594l20.792969 120.574219c1.734375 10.070313-6.796875 18.933594-16.925782 17.578125-7.785156-1.042968-13.507812-7.882812-13.109374-15.769531zm0 0" fill="#ff7c48"/><path d="m93.417969 198.863281-81.210938-91.515625c-1.230469-1.386718.5625-3.375 2.066407-2.292968l99.308593 71.476562c8.296875 5.96875 8.414063 18.269531.238281 24.398438-6.285156 4.710937-15.160156 3.839843-20.402343-2.066407zm0 0" fill="#ff7c48"/><g fill="#ffad8c"><path d="m66.253906 69.316406c1.566406 1.761719 3.742188 2.660156 5.929688 2.660156 1.875 0 3.757812-.660156 5.269531-2.003906 3.273437-2.910156 3.570313-7.925781.65625-11.203125l-38.855469-43.710937c-2.914062-3.273438-7.925781-3.566406-11.203125-.65625-3.273437 2.910156-3.570312 7.925781-.65625 11.199218zm0 0"/><path d="m301.351562 26.554688c-4.160156-1.382813-8.652343.863281-10.035156 5.019531l-11.636718 34.910156c-1.386719 4.15625.859374 8.648437 5.015624 10.035156.832032.277344 1.679688.410157 2.511719.410157 3.320313 0 6.417969-2.105469 7.523438-5.429688l11.636719-34.90625c1.386718-4.15625-.859376-8.652344-5.015626-10.039062zm0 0"/><path d="m440.640625 229.628906 66.644531-29.617187c4.003906-1.78125 5.808594-6.46875 4.027344-10.472657-1.777344-4.003906-6.464844-5.808593-10.46875-4.027343l-66.644531 29.617187c-4.003907 1.78125-5.808594 6.46875-4.027344 10.472656 1.777344 4.003907 6.46875 5.808594 10.46875 4.027344zm0 0"/><path d="m80.054688 317.230469c.550781-4.34375-2.527344-8.316407-6.871094-8.871094l-64.25-8.164063c-4.332032-.539062-8.316406 2.523438-8.871094 6.867188-.550781 4.347656 2.527344 8.320312 6.871094 8.871094l64.25 8.167968c4.398437.550782 8.324218-2.566406 8.871094-6.871093zm0 0"/><path d="m98.855469 414.097656-64.140625 58.414063c-5.363282 4.886719-1.851563 13.800781 5.34375 13.800781 4.332031 0 .015625 2.78125 69.480468-60.484375 3.242188-2.949219 3.476563-7.964844.523438-11.207031-2.949219-3.238282-7.96875-3.472656-11.207031-.523438zm0 0"/><path d="m495.914062 471.875-83.570312-58.414062c-3.589844-2.511719-8.535156-1.632813-11.046875 1.957031-2.511719 3.59375-1.632813 8.539062 1.957031 11.046875 90.511719 63.269531 84.550782 59.847656 88.109375 59.847656 7.707031 0 10.917969-9.988281 4.550781-14.4375zm0 0"/><path d="m504.0625 320.195312h-54.476562c-4.382813 0-7.933594 3.550782-7.933594 7.933594 0 4.382813 3.550781 7.933594 7.933594 7.933594h54.476562c4.382812 0 7.933594-3.550781 7.933594-7.933594 0-4.382812-3.550782-7.933594-7.933594-7.933594zm0 0"/></g></svg>